<svg width="231" height="287" viewBox="0 0 231 287" fill="none" xmlns="http://www.w3.org/2000/svg">
<path opacity="0.78" d="M15.694 172.905L14.4297 170.558C13.4641 171.076 12.4057 171.152 11.4305 170.863C10.4569 170.568 9.6134 169.921 9.09258 168.957C8.57411 167.991 8.49904 166.932 8.78861 165.957C9.0836 164.983 9.72917 164.14 10.6935 163.62C11.6603 163.1 12.7193 163.025 13.6945 163.315C14.6681 163.61 15.5109 164.256 16.0317 165.22C16.5502 166.185 16.6259 167.246 16.3364 168.221C16.0414 169.194 15.3952 170.036 14.4297 170.558L15.694 172.905L16.9584 175.253C21.468 172.823 23.1539 167.203 20.7275 162.691C18.2963 158.182 12.6764 156.497 8.16482 158.924C3.65581 161.355 1.97036 166.974 4.39683 171.485C6.82799 175.994 12.4475 177.681 16.9584 175.253L15.694 172.905Z" fill="#ADC4F1"/>
<path opacity="0.78" d="M18.8933 168.877L159.9 169.06L199.231 122.868L385.849 122.868L385.849 117.456L196.834 117.456L157.439 163.724L18.9003 163.544L18.8933 168.877Z" fill="#ADC4F1"/>
</svg>
