<svg width="230" height="230" viewBox="0 0 230 230" fill="none" xmlns="http://www.w3.org/2000/svg">
<rect width="230" height="229.834" rx="114.917" fill="#ADC4F1"/>
<path d="M67.7019 195.182C68.4038 193.971 69.525 193.152 70.7404 192.787C71.9424 192.451 73.2901 192.457 74.4607 193.067C75.0146 193.348 75.4765 193.735 75.869 194.177C76.2636 194.603 76.5798 195.106 76.8018 195.655C77.2481 196.749 77.3378 198.03 76.9543 199.25C87.0432 203.656 97.9528 206.15 108.954 206.625C114.457 206.879 119.981 206.594 125.428 205.82C130.877 205.044 136.257 203.768 141.468 202.01C151.902 198.494 161.666 193.025 170.131 185.979C178.606 178.946 185.746 170.315 191.105 160.702C190.583 160.332 190.152 159.879 189.814 159.381C189.479 158.881 189.23 158.329 189.062 157.75C188.737 156.598 188.807 155.373 189.367 154.279C189.944 153.091 190.926 152.232 192.141 151.797C192.747 151.577 193.397 151.467 194.059 151.472C194.718 151.476 195.382 151.599 196.027 151.871C196.673 152.142 197.238 152.535 197.696 153.014C198.144 153.492 198.492 154.057 198.716 154.681C199.156 155.916 199.142 157.394 198.501 158.726C197.873 159.959 196.855 160.859 195.711 161.307C195.146 161.534 194.527 161.646 193.904 161.632C193.285 161.623 192.666 161.493 192.074 161.244C186.649 170.979 179.422 179.716 170.84 186.838C162.271 193.966 152.387 199.508 141.82 203.069C136.541 204.849 131.094 206.141 125.58 206.928C120.061 207.715 114.471 208 108.903 207.742C97.7667 207.262 86.7203 204.737 76.5036 200.275C75.869 201.382 74.8486 202.16 73.6512 202.513C73.0547 202.69 72.4133 202.757 71.7652 202.712C71.1239 202.656 70.4826 202.454 69.8681 202.143C68.5563 201.463 67.6077 200.371 67.2377 199.068C66.8542 197.785 66.9888 196.397 67.6929 195.186L67.7019 195.182ZM192.132 160.029C194.045 161.09 196.462 160.282 197.51 158.235C198.012 157.208 198.016 156.064 197.669 155.098C197.317 154.129 196.593 153.322 195.59 152.891C194.59 152.458 193.493 152.463 192.552 152.801C191.603 153.14 190.832 153.826 190.37 154.759C189.421 156.607 190.215 158.97 192.128 160.029H192.132ZM68.6662 195.738C68.128 196.691 68.0338 197.781 68.332 198.783C68.6392 199.763 69.3613 200.622 70.3794 201.147C70.8884 201.405 71.4222 201.555 71.9514 201.6C72.4806 201.636 73.0143 201.546 73.5054 201.378C74.4831 201.03 75.3039 200.315 75.7524 199.317C76.2009 198.319 76.2053 197.234 75.8779 196.294C75.712 195.823 75.4586 195.399 75.1379 195.018C74.8217 194.63 74.4271 194.301 73.9629 194.065C73.0322 193.585 71.9828 193.558 71.0207 193.861C70.0722 194.146 69.2043 194.789 68.6706 195.742L68.6662 195.738Z" fill="#638FE4"/>
<mask id="mask0_3054_6292" style="mask-type:luminance" maskUnits="userSpaceOnUse" x="22" y="36" width="47" height="138">
<path d="M22 36.0447H68.5851V173.248H22V36.0447Z" fill="white"/>
</mask>
<g mask="url(#mask0_3054_6292)">
<path d="M67.7017 38.9574C68.3991 40.1729 68.5516 41.552 68.2578 42.7809C67.964 44.0097 67.2778 45.1668 66.1611 45.871C65.1094 46.5123 63.9343 46.7882 62.7548 46.6177C61.5797 46.454 60.4226 45.8889 59.5548 44.9493C50.7037 51.4996 43.0703 59.6846 37.1592 68.9752C31.239 78.2545 27.0568 88.6372 24.8928 99.4369C23.794 104.83 23.2514 110.335 23.1796 115.836C23.1123 121.344 23.5362 126.853 24.4601 132.278C26.3034 143.129 30.1671 153.646 35.8541 163.078C36.4326 162.811 37.0426 162.663 37.6436 162.621C38.2535 162.572 38.8679 162.621 39.4465 162.771C40.6081 163.065 41.6195 163.747 42.2944 164.778C43.0614 165.855 43.2879 167.155 43.0614 168.424C42.9403 169.059 42.7228 169.673 42.3976 170.239C42.068 170.806 41.6284 171.322 41.0678 171.743C40.5094 172.172 39.8928 172.461 39.2424 172.62C38.5921 172.782 37.9194 172.808 37.2803 172.687C35.9841 172.456 34.7373 171.689 33.8829 170.481C33.1227 169.328 32.8648 167.987 33.0465 166.767C33.1407 166.157 33.3402 165.574 33.6519 165.049C33.9726 164.516 34.3897 164.045 34.9032 163.657C29.1468 154.111 25.2315 143.459 23.3657 132.475C22.4306 126.981 22.0045 121.4 22.0718 115.832C22.1413 110.261 22.693 104.689 23.8075 99.2262C25.9961 88.2963 30.2344 77.7836 36.2286 68.3877C42.216 58.9827 49.9413 50.699 58.9022 44.068C58.2609 42.9647 58.0949 41.6955 58.3887 40.4846C58.6869 39.2871 59.4135 38.112 60.593 37.3877C61.8443 36.5939 63.2638 36.327 64.5667 36.6342C65.8718 36.9459 67.0065 37.7555 67.7084 38.9709L67.7017 38.9574ZM35.9348 164.289C34.0668 165.419 33.5398 167.924 34.8001 169.853C36.1299 171.73 38.6415 172.181 40.3861 170.857C42.1307 169.537 42.5748 167.088 41.3705 165.397C40.2381 163.657 37.814 163.155 35.9348 164.289ZM66.7396 39.5136C66.1835 38.5807 65.2753 37.9304 64.2729 37.7173C63.2773 37.5021 62.1628 37.686 61.1985 38.3049C60.223 38.9059 59.6355 39.8836 59.4449 40.9039C59.252 41.922 59.4673 42.9872 60.1064 43.8729C60.7478 44.7587 61.6874 45.3104 62.6673 45.492C63.645 45.6736 64.6609 45.483 65.5511 44.9359C66.4324 44.3708 66.9886 43.485 67.2016 42.4961C67.4124 41.5094 67.3003 40.4577 66.7352 39.5091L66.7396 39.5136Z" fill="#638FE4"/>
</g>
<mask id="mask1_3054_6292" style="mask-type:luminance" maskUnits="userSpaceOnUse" x="100" y="22" width="108" height="96">
<path d="M100.733 22H208V117.563H100.733V22Z" fill="white"/>
</mask>
<g mask="url(#mask1_3054_6292)">
<path d="M203.001 117.07C201.6 117.07 200.317 116.505 199.373 115.637C198.422 114.769 197.85 113.59 197.781 112.273C197.687 111.044 198.097 109.887 198.839 108.948C199.602 108.008 200.62 107.302 201.871 107.021C200.692 96.0714 197.379 85.3681 192.28 75.6155C187.178 65.8585 180.267 57.0546 172.001 49.7822C163.74 42.5054 154.145 36.7423 143.805 32.9368C133.471 29.1313 122.427 27.297 111.421 27.4584C111.3 28.7299 110.721 29.878 109.889 30.7122C109.472 31.1293 108.986 31.468 108.452 31.7079C107.918 31.9703 107.34 32.1452 106.725 32.1878C106.066 32.2371 105.427 32.1452 104.83 31.9299C104.532 31.8245 104.243 31.6855 103.967 31.5263C103.689 31.3783 103.431 31.2011 103.187 31.0015C102.213 30.1987 101.491 29.0057 101.314 27.6176C101.135 26.2295 101.55 24.893 102.399 23.8615C102.613 23.6036 102.848 23.3637 103.11 23.1439C103.375 22.9353 103.664 22.7627 103.971 22.6057C104.584 22.2985 105.274 22.1034 106.014 22.0496C106.703 22.0002 107.367 22.0675 107.981 22.2536C108.595 22.4644 109.156 22.7761 109.64 23.1708C110.607 23.9602 111.248 25.0769 111.408 26.3439C122.548 26.1802 133.729 28.0415 144.192 31.8918C154.656 35.7399 164.377 41.5748 172.735 48.9458C181.099 56.3123 188.1 65.2239 193.262 75.0998C198.427 84.9756 201.781 95.809 202.974 106.896C204.248 106.896 205.479 107.385 206.347 108.248C207.228 109.107 207.82 110.331 207.924 111.708C208.009 113.186 207.439 114.552 206.553 115.523C205.659 116.496 204.398 117.07 203.001 117.07ZM110.331 26.9269C110.304 25.8326 109.827 24.8549 109.057 24.1553C108.674 23.8122 108.216 23.5139 107.714 23.3502C107.21 23.1843 106.658 23.1147 106.088 23.1574C104.949 23.2426 103.954 23.7673 103.29 24.5387C102.626 25.3482 102.292 26.3888 102.417 27.4764C102.541 28.5617 103.095 29.4923 103.855 30.1202C104.624 30.7818 105.604 31.1563 106.644 31.0755C107.167 31.0352 107.656 30.8894 108.1 30.6539C108.546 30.4185 108.943 30.1337 109.275 29.7592C109.943 29.0237 110.358 28.019 110.327 26.9269H110.331ZM202.97 115.958C204.064 115.944 205.044 115.487 205.744 114.724C206.432 113.969 206.883 112.912 206.807 111.769C206.632 109.472 204.719 107.8 202.542 108.03C200.366 108.266 198.725 110.141 198.88 112.21C198.951 113.251 199.386 114.182 200.131 114.863C200.864 115.538 201.871 115.967 202.965 115.958H202.97Z" fill="#638FE4"/>
</g>
<path d="M112.796 194.572C70.063 194.572 35.2935 159.807 35.2935 117.07C35.2935 74.3325 70.063 39.5674 112.796 39.5674C155.528 39.5674 190.298 74.3325 190.298 117.07C190.298 159.807 155.533 194.572 112.796 194.572ZM112.796 40.6841C70.673 40.6841 36.408 74.9514 36.408 117.074C36.408 159.197 70.673 193.464 112.796 193.464C154.918 193.464 189.185 159.197 189.185 117.074C189.185 74.9514 154.918 40.6796 112.796 40.6796V40.6841Z" fill="#638FE4"/>
</svg>
