<svg width="145" height="58" viewBox="0 0 145 58" fill="none" xmlns="http://www.w3.org/2000/svg">
<path d="M46.4545 26.6742C46.4371 26.997 46.3626 27.3036 46.2407 27.5845L46.1672 27.7408L45.9784 28.1436L45.8081 28.5071L42.8433 34.8254L42.8253 34.863L42.822 34.8705C42.785 34.9591 42.7622 35.0547 42.7568 35.1557C42.7557 35.1712 42.7557 35.1863 42.7557 35.2019V38.7785H42.7551C42.7551 38.815 42.7546 38.8521 42.7524 38.8892C42.7464 38.9976 42.7323 39.104 42.71 39.2071C42.5685 39.8666 42.1082 40.4036 41.502 40.6678C41.2071 40.7962 40.8769 40.8601 40.533 40.8418C40.256 40.8273 39.9943 40.7607 39.7571 40.6528C39.2277 40.4122 38.8207 39.9638 38.6378 39.4208C38.5791 39.2452 38.5437 39.0594 38.5355 38.8671V35.0418C38.5355 34.9188 38.5388 34.7953 38.5453 34.6707C38.5579 34.4382 38.5818 34.2094 38.6172 33.9839C38.7113 33.3797 38.8849 32.8029 39.1264 32.2632L39.2233 32.058L40.7267 28.8541L40.7256 28.8535C40.7669 28.7687 40.792 28.6742 40.7974 28.5743C40.8186 28.186 40.5335 27.8509 40.1488 27.7934L40.1107 27.7886H40.1102L39.8751 27.7591L25.3256 25.9261L22.3439 25.5508L22.3096 25.5465C20.9445 25.3682 19.8927 24.2871 19.7599 22.9633C19.7202 22.5487 19.7001 22.1288 19.7001 21.705C19.7001 14.3208 25.7653 8.33496 33.2468 8.33496C39.4905 8.33496 44.7477 12.504 46.3158 18.1756C46.3484 18.2938 46.3794 18.4125 46.4088 18.5317C46.4295 18.6504 46.4404 18.7728 46.4404 18.8979C46.4404 20.095 45.4572 21.066 44.2438 21.066C43.2258 21.066 42.3688 20.3812 42.1201 19.4532C42.1142 19.428 42.1076 19.4028 42.1011 19.3781C41.1076 15.4845 37.5355 12.6023 33.2827 12.6023C28.7209 12.6023 24.9431 15.9179 24.2896 20.2416C24.2853 20.2674 24.2815 20.2932 24.2777 20.3195C24.2755 20.3367 24.2728 20.3539 24.2706 20.3716C24.269 20.3882 24.2679 20.4049 24.2668 20.4215C24.2407 20.9065 24.5693 21.3291 25.0307 21.4494L25.3006 21.4832L25.3975 21.4956L42.1441 23.6051L44.0349 23.843L44.0588 23.8462C45.0551 23.9756 45.8734 24.6201 46.244 25.4847C46.4001 25.8494 46.4768 26.2532 46.4545 26.6742Z" fill="#06A6FF"/>
<path d="M34.107 5.81127C34.1032 5.8843 34.0395 5.94069 33.965 5.9364C33.7071 5.92565 33.4475 5.92028 33.1869 5.92028C23.1323 5.92028 14.9809 13.9656 14.9809 23.8895C14.9809 31.4064 19.6565 37.8455 26.2946 40.5269C26.3447 40.5484 26.3784 40.5984 26.3746 40.6548C26.3708 40.7278 26.3072 40.7842 26.2326 40.7799C26.2283 40.7799 26.2239 40.7794 26.2195 40.7788C26.2195 40.7788 26.2195 40.7788 26.219 40.7788C26.2119 40.7772 26.2049 40.7756 26.1978 40.774C26.1967 40.7734 26.1951 40.7729 26.1934 40.7724C18.2396 38.8482 12.3387 31.7647 12.3387 23.3208C12.3387 13.3969 20.4901 5.35156 30.5447 5.35156C31.7232 5.35156 32.8762 5.46273 33.9922 5.67378C34.0575 5.68291 34.107 5.74575 34.107 5.81127Z" fill="#FCF300"/>
<path d="M30.3482 45.5549C29.8041 45.5549 29.2927 45.223 29.0957 44.6892C28.8438 44.0067 29.2007 43.2516 29.8923 43.0035L36.0728 40.7834C36.7644 40.5347 37.5294 40.887 37.7808 41.5696C38.0327 42.2522 37.6758 43.0072 36.9842 43.2553L30.8036 45.4755C30.6535 45.5297 30.4995 45.5549 30.3482 45.5549Z" fill="white"/>
<path d="M33.552 52.6492C33.0079 52.6492 32.4964 52.3173 32.2994 51.7835C32.0475 51.1009 32.4044 50.3458 33.096 50.0977L39.2765 47.8776C39.9681 47.6289 40.7331 47.9812 40.9845 48.6638C41.2364 49.3464 40.8795 50.1015 40.1879 50.3496L34.0074 52.5697C33.8572 52.6234 33.7032 52.6492 33.552 52.6492Z" fill="white"/>
<path d="M31.0355 49.425C30.4914 49.425 29.9799 49.0931 29.7829 48.5593C29.531 47.8768 29.888 47.1217 30.5795 46.8736L39.9785 43.4972C40.67 43.2486 41.4351 43.6009 41.6864 44.2834C41.9384 44.966 41.5814 45.7211 40.8899 45.9692L31.4909 49.3456C31.3407 49.3993 31.1867 49.425 31.0355 49.425Z" fill="white"/>
<path d="M50.3561 13.0359C50.3561 11.5978 50.8081 10.3826 51.7122 9.39082C52.5675 8.44832 53.6502 7.90281 54.9604 7.7543C55.1773 7.73288 55.3948 7.72217 55.6123 7.72217C56.9162 7.72217 58.0547 8.14701 59.0287 8.9974C59.1615 9.11093 59.2879 9.23088 59.4073 9.35869C59.6665 9.63501 59.7364 9.95775 59.6178 10.3255C59.5408 10.5525 59.4073 10.7296 59.218 10.8567H59.2074C58.8917 11.0623 58.5696 11.0766 58.2405 10.8995C58.1282 10.836 58.0335 10.761 57.9565 10.676C57.347 9.97489 56.5651 9.62359 55.6123 9.62359C54.6101 9.62359 53.7866 9.9706 53.1417 10.6653C52.5456 11.3172 52.2483 12.1069 52.2483 13.0352C52.2483 14.0062 52.5739 14.8173 53.2258 15.4685C53.8706 16.099 54.6518 16.4146 55.57 16.4146C56.6209 16.4146 57.4621 15.9969 58.0929 15.1608C58.3168 14.8702 58.6113 14.7502 58.9757 14.7995C59.0951 14.8138 59.2067 14.8495 59.3119 14.9059C59.3889 14.9416 59.4574 14.9894 59.5168 15.0494C59.5761 15.1094 59.6269 15.1736 59.6693 15.2407C59.7117 15.3079 59.7463 15.3807 59.7746 15.4585C59.8028 15.5363 59.8183 15.6163 59.8219 15.6977C59.8254 15.7791 59.8219 15.8591 59.8113 15.9369C59.8007 16.0147 59.7781 16.0926 59.7428 16.1704C59.7075 16.2482 59.6623 16.3225 59.6057 16.3939C58.7928 17.3999 57.78 18.0197 56.5673 18.2539C56.2515 18.3174 55.933 18.3496 55.6109 18.3496C54.1249 18.3496 52.8917 17.8712 51.9106 16.9151C51.0066 16.0226 50.4952 14.903 50.3759 13.5571C50.3624 13.38 50.3561 13.2065 50.3561 13.0359Z" fill="white"/>
<path d="M62.4034 7.73291C62.7396 7.73291 62.9925 7.87786 63.1606 8.16846C63.2446 8.31697 63.287 8.46977 63.287 8.62543V17.4571C63.287 17.797 63.1436 18.0526 62.8561 18.2225C62.7156 18.3075 62.5651 18.3503 62.4041 18.3503C62.0743 18.3503 61.8221 18.2054 61.647 17.9148C61.57 17.7727 61.5311 17.6206 61.5311 17.4578V8.62543C61.5311 8.28556 61.6745 8.03065 61.962 7.86C62.1018 7.78289 62.2494 7.74005 62.4034 7.73291Z" fill="white"/>
<path d="M70.9079 18.1696C70.7539 18.1696 70.6557 18.099 70.6134 17.9569C70.5992 17.9212 70.5922 17.8862 70.5922 17.8505V17.5213C70.5922 17.4506 70.5568 17.4149 70.4869 17.4149C70.4516 17.4078 70.4205 17.4185 70.3923 17.4471C69.8315 18.0425 69.0991 18.3431 68.195 18.3503C66.9477 18.3503 66.0464 17.879 65.4934 16.9365C65.1501 16.3411 64.9785 15.6078 64.9785 14.7367V10.6982C64.9785 10.3369 65.1325 10.0606 65.4411 9.86922C65.5951 9.77711 65.7632 9.72784 65.9454 9.7207H65.9666C66.3311 9.7207 66.6079 9.87636 66.7972 10.1884C66.8883 10.3512 66.9343 10.5218 66.9343 10.6982V14.5346C66.9343 15.7034 67.351 16.391 68.1851 16.5967C68.3532 16.6395 68.5319 16.6602 68.7212 16.6602C69.4289 16.6602 69.9473 16.3518 70.2772 15.7356C70.4806 15.36 70.5823 14.903 70.5823 14.3647V10.6982C70.5823 10.3369 70.7327 10.0606 71.0343 9.86922C71.1953 9.77711 71.3634 9.72784 71.5386 9.7207C71.9031 9.7207 72.1799 9.87636 72.3692 10.1884C72.4603 10.3512 72.5055 10.5218 72.5055 10.6982V16.5538C72.5055 17.0851 72.2986 17.5135 71.8854 17.8398C71.5916 18.0597 71.2653 18.1696 70.9079 18.1696Z" fill="white"/>
<path d="M76.1543 17.4366C76.1543 17.7272 76.0279 17.9428 75.7757 18.0849C75.6634 18.1413 75.544 18.1735 75.4183 18.1806H75.0186C74.724 18.1806 74.51 18.0492 74.3772 17.7872C74.3144 17.6737 74.2826 17.5566 74.2826 17.4366V8.67921C74.2826 8.32506 74.433 8.05588 74.7346 7.87166C74.8886 7.77955 75.0532 7.73028 75.229 7.72314C75.5794 7.72314 75.8456 7.87523 76.0279 8.18011C76.119 8.33577 76.1649 8.50285 76.1649 8.67993V10.6356C76.1649 10.7134 76.203 10.7563 76.2807 10.7634C76.3231 10.7563 76.3542 10.742 76.3754 10.7206C76.9708 10.1115 77.7279 9.78879 78.6461 9.7538C78.7019 9.74666 78.7584 9.74309 78.8142 9.74309C79.8376 9.74309 80.724 10.083 81.4741 10.7634C82.357 11.6281 82.809 12.7262 82.8302 14.0579C82.8302 15.3617 82.3994 16.4241 81.537 17.246C80.8222 17.9264 79.9845 18.2913 79.0247 18.3406C78.9618 18.3477 78.8982 18.3513 78.8354 18.3513C77.819 18.3441 76.9955 18.0114 76.3648 17.3524C76.3019 17.2888 76.2419 17.2888 76.1861 17.3524C76.1642 17.3795 76.1543 17.408 76.1543 17.4366ZM80.9691 14.025C80.9691 13.2461 80.6922 12.6049 80.1385 12.1015C79.6688 11.6766 79.108 11.471 78.4561 11.4853C77.7413 11.4996 77.1452 11.7937 76.6692 12.3671C76.2835 12.8491 76.0872 13.3946 76.0801 14.0036C76.0801 14.7969 76.3499 15.4488 76.8895 15.9593C77.3451 16.377 77.8882 16.5898 78.519 16.5969C79.2055 16.5969 79.7861 16.3492 80.2586 15.8529C80.7325 15.3567 80.9691 14.7476 80.9691 14.025Z" fill="white"/>
<path d="M50.7134 31.8039L50.8921 31.6554C51.1796 31.429 51.4875 31.3898 51.8174 31.5383C51.9368 31.5883 52.0385 31.6554 52.1225 31.7403C52.6127 32.2294 53.1947 32.4736 53.8678 32.4736C54.5126 32.4736 54.9682 32.243 55.2345 31.7825C55.3609 31.5697 55.4237 31.3398 55.4237 31.0913C55.4237 30.645 55.1151 30.2873 54.4985 30.0181C54.288 29.926 53.8854 29.7882 53.2893 29.604C52.3923 29.3063 51.7581 29.0192 51.3865 28.7429C50.7276 28.2474 50.3949 27.5526 50.3878 26.6601C50.3878 25.8026 50.7205 25.0907 51.3865 24.5238C52.0385 23.9711 52.8373 23.6948 53.7837 23.6948C54.7436 23.702 55.5707 23.9326 56.2649 24.3853C56.5595 24.5766 56.6958 24.853 56.6746 25.2142C56.6463 25.4977 56.5242 25.7241 56.3066 25.8947C56.0191 26.1146 55.7105 26.1496 55.3814 26.0011C55.3044 25.9583 55.238 25.9161 55.1815 25.8733C54.8029 25.5684 54.3403 25.4127 53.7936 25.4056C53.1205 25.4056 52.6791 25.6362 52.4693 26.0968C52.4064 26.2453 52.3711 26.4088 52.3641 26.5859C52.3641 26.99 52.6268 27.3156 53.1523 27.5634C53.3204 27.6483 53.7548 27.8076 54.4561 28.0417C55.4442 28.3681 56.1484 28.7186 56.5694 29.0942C57.1302 29.6119 57.4106 30.2809 57.4106 31.1027C57.4106 31.9603 57.109 32.6936 56.5065 33.3026C55.8334 33.9759 54.9576 34.3158 53.8784 34.3229C52.6657 34.3158 51.6111 33.9616 50.7142 33.2605C50.4338 33.0334 50.3215 32.7435 50.378 32.3894C50.4189 32.148 50.5305 31.9531 50.7134 31.8039Z" fill="white"/>
<path d="M59.4497 29.2641C59.6178 28.2159 60.1158 27.3513 60.9428 26.6708C61.7628 26.0046 62.6916 25.679 63.7285 25.6933C64.9129 25.7147 65.901 26.136 66.6928 26.9578C66.7839 27.05 66.868 27.1456 66.945 27.2449C67.1759 27.5283 67.2218 27.8404 67.0813 28.1802C66.9831 28.4073 66.8256 28.5665 66.608 28.6586L66.5763 28.68C66.2471 28.8221 65.9385 28.7722 65.651 28.5315C65.5945 28.4823 65.5458 28.4323 65.5041 28.383C65.0344 27.7947 64.4214 27.5012 63.6642 27.5012C62.9636 27.4941 62.371 27.7561 61.8879 28.2873C61.5651 28.6486 61.3624 29.0635 61.2783 29.5312C61.1378 30.3244 61.3066 31.0192 61.7826 31.6139C62.2869 32.2023 62.9176 32.5029 63.6748 32.5172C64.4454 32.5172 65.0627 32.2123 65.5253 31.6032C65.7492 31.3126 66.0331 31.1891 66.3771 31.2312C66.4611 31.2455 66.5417 31.2669 66.6186 31.2948L66.6504 31.3162C66.9661 31.4511 67.1448 31.6882 67.1865 32.0281C67.2218 32.2758 67.1653 32.4993 67.0184 32.6978C66.2895 33.661 65.3085 34.1965 64.0746 34.3029C63.9276 34.3172 63.7836 34.3243 63.6437 34.3243C62.5016 34.3243 61.5234 33.9345 60.7105 33.1555C59.9258 32.4044 59.4872 31.4797 59.396 30.3815C59.3692 30.0117 59.3862 29.6397 59.4497 29.2641Z" fill="white"/>
<path d="M69.7623 26.5858C70.0985 26.5858 70.3513 26.7308 70.5194 27.0214C70.6035 27.1699 70.6459 27.3227 70.6459 27.4784V33.4297C70.6459 33.7695 70.5025 34.0252 70.215 34.1951C70.0745 34.2801 69.924 34.3229 69.763 34.3229C69.4339 34.3229 69.181 34.178 69.0058 33.8874C68.9289 33.7453 68.89 33.5932 68.89 33.4304V27.4791C68.89 27.1392 69.0334 26.8836 69.3209 26.7136C69.4607 26.6351 69.6083 26.593 69.7623 26.5858ZM68.9211 24.5773C68.9211 24.2446 69.0609 23.989 69.3413 23.8119C69.4883 23.7269 69.6429 23.6841 69.804 23.6841C70.1331 23.6841 70.386 23.8262 70.5611 24.1089C70.6452 24.2574 70.6875 24.4138 70.6875 24.5766C70.6875 24.91 70.547 25.1649 70.2673 25.342C70.1204 25.427 69.9657 25.4698 69.8047 25.4698C69.4748 25.4698 69.2227 25.3285 69.0475 25.045C68.9635 24.8958 68.9211 24.7401 68.9211 24.5773Z" fill="white"/>
<path d="M72.3481 29.8801C72.3764 28.7256 72.7825 27.7402 73.5679 26.9255C74.3314 26.1323 75.2672 25.6996 76.3747 25.6289C76.5287 25.6217 76.6826 25.6182 76.8373 25.6182C78.0289 25.6681 79.0064 26.1037 79.7706 26.9255C80.5207 27.7402 80.8957 28.7391 80.8957 29.9222V30.0072C80.8957 30.2764 80.7763 30.4678 80.5383 30.5813C80.4472 30.6241 80.3561 30.6448 80.265 30.6448H74.4409C74.3286 30.6448 74.2622 30.702 74.241 30.8148C74.2339 30.8576 74.2374 30.8926 74.2516 30.9212C74.5037 31.6866 74.9946 32.2 75.7235 32.462C76.0321 32.5684 76.3613 32.6212 76.7116 32.6212C77.5175 32.6141 78.1588 32.3271 78.6356 31.7601C78.846 31.4981 79.1229 31.4024 79.4662 31.4731C79.5714 31.4945 79.6625 31.5302 79.7395 31.5795C80.0411 31.7494 80.188 32.0079 80.1809 32.3556C80.1739 32.5891 80.1004 32.7912 79.9599 32.9611C79.1399 33.8608 78.0571 34.3142 76.7116 34.3213C75.8499 34.3213 75.0801 34.1228 74.4041 33.7258C73.7275 33.3288 73.2112 32.7919 72.8538 32.1157C72.4957 31.441 72.3276 30.6948 72.3481 29.8801ZM74.5772 29.0297H78.6772C78.7966 29.0297 78.8665 28.9733 78.8877 28.8598C78.8877 28.8241 78.8842 28.7891 78.8771 28.7534C78.5685 27.9102 77.9448 27.4389 77.0061 27.3397C76.8868 27.3254 76.7681 27.3182 76.6487 27.3182C75.8287 27.3182 75.1768 27.6267 74.693 28.2429C74.5736 28.3985 74.4719 28.5656 74.3879 28.7427C74.3321 28.8562 74.3596 28.9448 74.4719 29.0083C74.5073 29.0233 74.5419 29.0297 74.5772 29.0297Z" fill="white"/>
<path d="M83.9229 25.874H84.1122C84.3014 25.874 84.4279 25.9625 84.4907 26.1396C84.5049 26.1825 84.5119 26.2246 84.5119 26.2674V26.6394C84.5119 26.7101 84.5472 26.7422 84.6172 26.7351C84.6454 26.728 84.6659 26.7173 84.68 26.703C85.2896 26.0368 86.0679 25.7005 87.0136 25.6934C88.3662 25.6934 89.3162 26.2003 89.8628 27.2128C90.1708 27.7869 90.3255 28.4844 90.3255 29.3063V33.3447C90.3255 33.706 90.175 33.9824 89.8734 34.1737C89.7124 34.2658 89.5443 34.3151 89.3691 34.3222H89.3373C88.98 34.3222 88.7066 34.1666 88.5173 33.8546C88.4192 33.6918 88.3704 33.5218 88.3704 33.3447V29.5083C88.3704 28.4459 87.9918 27.7797 87.2354 27.5105C87.0108 27.4256 86.7622 27.3827 86.4889 27.3827C85.7811 27.3827 85.2486 27.6733 84.8912 28.2545C84.6532 28.6444 84.5303 29.1192 84.5232 29.679V33.3455C84.5232 33.7068 84.3721 33.9831 84.0712 34.1744C83.9102 34.2665 83.7414 34.3158 83.5669 34.3229C83.2095 34.3229 82.9362 34.1673 82.7469 33.8553C82.6487 33.6925 82.6 33.5225 82.6 33.3455V27.2135C82.6 26.7458 82.7893 26.381 83.1678 26.1189C83.3974 25.9554 83.6495 25.874 83.9229 25.874Z" fill="white"/>
<path d="M92.9536 25.9804H93.3428C93.4409 25.9518 93.4967 25.8954 93.5109 25.8104V25.0771C93.5179 24.8294 93.6196 24.6344 93.816 24.4923L94.867 23.7698C95.0209 23.6634 95.1685 23.6741 95.3084 23.8019C95.3854 23.8797 95.4278 23.9718 95.4348 24.0782V25.8104C95.4348 25.9025 95.4772 25.9554 95.5612 25.9696C95.5754 25.9696 95.5895 25.9732 95.6029 25.9804H96.2548C96.584 25.9804 96.8333 26.1224 97.0014 26.4052C97.0713 26.5401 97.1102 26.6851 97.1172 26.8407C97.1172 27.167 96.9731 27.4148 96.6864 27.5847C96.5529 27.6626 96.4095 27.7018 96.2555 27.7018H95.6036C95.5054 27.7233 95.4497 27.7797 95.4355 27.8718V30.8264C95.4355 31.5211 95.5196 31.9674 95.6877 32.1651C95.7859 32.2858 95.9222 32.3708 96.0973 32.4201C96.5246 32.5407 96.8262 32.8135 97.0014 33.2383C97.0713 33.4154 97.1102 33.5996 97.1172 33.791V34.3222H96.8439C95.6036 34.3222 94.7448 34.0901 94.268 33.626C93.7913 33.1619 93.5391 32.3208 93.5109 31.102C93.5109 31.0099 93.5109 30.9213 93.5109 30.8364V27.8711C93.4897 27.779 93.4339 27.7225 93.3428 27.7011H92.9536C92.6308 27.7011 92.3857 27.5598 92.2176 27.2763C92.1407 27.1349 92.1018 26.9893 92.1018 26.8407C92.1018 26.508 92.2416 26.2595 92.522 26.0967C92.6626 26.0189 92.806 25.9804 92.9536 25.9804Z" fill="white"/>
<path d="M99.7757 26.5858C100.112 26.5858 100.365 26.7308 100.533 27.0214C100.617 27.1699 100.659 27.3227 100.659 27.4784V33.4297C100.659 33.7695 100.516 34.0252 100.228 34.1951C100.088 34.2801 99.9375 34.3229 99.7764 34.3229C99.4466 34.3229 99.1944 34.178 99.0193 33.8874C98.9423 33.7453 98.9034 33.5932 98.9034 33.4304V27.4791C98.9034 27.1392 99.0468 26.8836 99.3343 26.7136C99.4748 26.6351 99.6218 26.593 99.7757 26.5858ZM98.9352 24.5773C98.9352 24.2446 99.0751 23.989 99.3555 23.8119C99.5024 23.7269 99.6571 23.6841 99.8181 23.6841C100.147 23.6841 100.4 23.8262 100.575 24.1089C100.659 24.2574 100.702 24.4138 100.702 24.5766C100.702 24.91 100.561 25.1649 100.281 25.342C100.135 25.427 99.9798 25.4698 99.8188 25.4698C99.489 25.4698 99.2368 25.3285 99.0617 25.045C98.9769 24.8958 98.9352 24.7401 98.9352 24.5773Z" fill="white"/>
<path d="M102.352 27.3192C102.352 27.0072 102.488 26.7773 102.761 26.6281C102.881 26.5716 103.003 26.5431 103.129 26.5431H103.624V26.5217C103.624 25.2679 103.946 24.4139 104.591 23.9605C105.081 23.6206 105.806 23.4507 106.767 23.4507H106.914V24.6195C106.914 24.8323 106.819 24.9772 106.63 25.0551C106.58 25.0694 106.531 25.0801 106.483 25.0872C105.964 25.1229 105.638 25.2857 105.505 25.5763C105.428 25.7534 105.386 26.0083 105.379 26.3417C105.379 26.4553 105.431 26.5188 105.536 26.5331C105.55 26.5402 105.561 26.5438 105.568 26.5438H106.136C106.445 26.5438 106.672 26.6787 106.82 26.9479C106.882 27.0686 106.914 27.1921 106.914 27.3199C106.914 27.632 106.778 27.8619 106.505 28.0104C106.392 28.0739 106.269 28.1061 106.137 28.1061H105.569C105.456 28.1275 105.394 28.191 105.379 28.2974V33.4305C105.379 33.7703 105.236 34.026 104.949 34.1959C104.802 34.2809 104.651 34.3237 104.497 34.3237C104.167 34.3237 103.915 34.1788 103.739 33.8882C103.662 33.7461 103.624 33.594 103.624 33.4312V28.2981C103.602 28.1917 103.54 28.1282 103.434 28.1068H103.129C102.821 28.1068 102.593 27.9683 102.445 27.6926C102.383 27.5777 102.352 27.4542 102.352 27.3192Z" fill="white"/>
<path d="M109.637 26.5858C109.973 26.5858 110.226 26.7308 110.394 27.0214C110.478 27.1699 110.521 27.3227 110.521 27.4784V33.4297C110.521 33.7695 110.377 34.0252 110.09 34.1951C109.949 34.2801 109.799 34.3229 109.638 34.3229C109.308 34.3229 109.056 34.178 108.881 33.8874C108.804 33.7453 108.765 33.5932 108.765 33.4304V27.4791C108.765 27.1392 108.908 26.8836 109.196 26.7136C109.335 26.6351 109.482 26.593 109.637 26.5858ZM108.796 24.5773C108.796 24.2446 108.936 23.989 109.216 23.8119C109.363 23.7269 109.518 23.6841 109.679 23.6841C110.008 23.6841 110.261 23.8262 110.436 24.1089C110.52 24.2574 110.562 24.4138 110.562 24.5766C110.562 24.91 110.422 25.1649 110.142 25.342C109.995 25.427 109.84 25.4698 109.679 25.4698C109.35 25.4698 109.097 25.3285 108.922 25.045C108.838 24.8958 108.796 24.7401 108.796 24.5773Z" fill="white"/>
<path d="M118.899 26.6178C118.899 26.3272 119.025 26.1116 119.277 25.9695C119.397 25.9131 119.515 25.881 119.635 25.8738H120.034C120.329 25.8738 120.546 26.0052 120.686 26.2672C120.742 26.3808 120.77 26.4979 120.77 26.6178V35.9064C120.77 36.2606 120.619 36.5333 120.318 36.7247C120.164 36.8097 119.999 36.8561 119.824 36.8632C119.474 36.8632 119.207 36.7104 119.025 36.4062C118.934 36.2506 118.889 36.0835 118.889 35.9064V33.4195C118.889 33.3417 118.85 33.2989 118.773 33.2917C118.731 33.2989 118.699 33.3131 118.678 33.3346C118.082 33.9436 117.326 34.2663 116.407 34.302C116.352 34.3092 116.299 34.3128 116.25 34.3128C115.22 34.3128 114.33 33.9729 113.579 33.2924C112.697 32.4349 112.245 31.3367 112.223 29.998C112.223 28.6942 112.654 27.6317 113.517 26.8099C114.231 26.1294 115.069 25.7646 116.029 25.7153C116.092 25.7082 116.155 25.7046 116.218 25.7046C117.242 25.7117 118.065 26.0445 118.689 26.7035C118.752 26.767 118.811 26.767 118.868 26.7035C118.888 26.6742 118.899 26.6457 118.899 26.6178ZM114.084 30.0287C114.084 30.8148 114.361 31.4567 114.914 31.9522C115.391 32.3771 115.951 32.5827 116.596 32.5684C117.311 32.5541 117.906 32.26 118.383 31.6866C118.769 31.2047 118.965 30.6591 118.972 30.0501C118.972 29.2568 118.702 28.6049 118.163 28.0944C117.707 27.6767 117.167 27.4639 116.544 27.4568C115.787 27.4568 115.167 27.7438 114.683 28.3179C114.283 28.807 114.084 29.3775 114.084 30.0287Z" fill="white"/>
<path d="M128.518 34.1423C128.364 34.1423 128.266 34.0716 128.223 33.9295C128.209 33.8938 128.202 33.8588 128.202 33.8231V33.494C128.202 33.4233 128.167 33.3876 128.097 33.3876C128.061 33.3805 128.03 33.3912 128.002 33.4197C127.441 34.0152 126.709 34.3158 125.805 34.3229C124.558 34.3229 123.656 33.8517 123.103 32.9092C122.76 32.3137 122.588 31.5804 122.588 30.7093V26.6708C122.588 26.3096 122.742 26.0332 123.051 25.8419C123.205 25.7498 123.373 25.7005 123.555 25.6934H123.576C123.941 25.6934 124.218 25.849 124.407 26.161C124.498 26.3238 124.543 26.4945 124.543 26.6708V30.5073C124.543 31.6761 124.96 32.3637 125.794 32.5693C125.962 32.6115 126.141 32.6329 126.33 32.6329C127.038 32.6329 127.556 32.3244 127.886 31.7082C128.09 31.3327 128.191 30.8757 128.191 30.3373V26.6708C128.191 26.3096 128.342 26.0332 128.643 25.8419C128.804 25.7498 128.973 25.7005 129.148 25.6934C129.512 25.6934 129.789 25.849 129.978 26.161C130.069 26.3238 130.115 26.4945 130.115 26.6708V32.5265C130.115 33.0577 129.908 33.4861 129.495 33.8124C129.201 34.0323 128.875 34.1423 128.518 34.1423Z" fill="white"/>
<path d="M131.902 29.8801C131.931 28.7256 132.337 27.7402 133.122 26.9255C133.886 26.1323 134.821 25.6996 135.929 25.6289C136.083 25.6217 136.237 25.6182 136.392 25.6182C137.583 25.6681 138.561 26.1037 139.325 26.9255C140.075 27.7402 140.45 28.7391 140.45 29.9222V30.0072C140.45 30.2764 140.331 30.4678 140.093 30.5813C140.001 30.6241 139.91 30.6448 139.819 30.6448H133.995C133.883 30.6448 133.816 30.702 133.795 30.8148C133.788 30.8576 133.792 30.8926 133.806 30.9212C134.058 31.6866 134.549 32.2 135.278 32.462C135.586 32.5684 135.915 32.6212 136.266 32.6212C137.072 32.6141 137.713 32.3271 138.19 31.7601C138.4 31.4981 138.677 31.4024 139.02 31.4731C139.126 31.4945 139.217 31.5302 139.294 31.5795C139.595 31.7494 139.742 32.0079 139.735 32.3556C139.728 32.5891 139.655 32.7912 139.514 32.9611C138.694 33.8608 137.611 34.3142 136.266 34.3213C135.404 34.3213 134.634 34.1228 133.958 33.7258C133.282 33.3288 132.765 32.7919 132.408 32.1157C132.05 31.441 131.882 30.6948 131.902 29.8801ZM134.131 29.0297H138.231C138.351 29.0297 138.421 28.9733 138.442 28.8598C138.442 28.8241 138.438 28.7891 138.431 28.7534C138.123 27.9102 137.499 27.4389 136.56 27.3397C136.441 27.3254 136.322 27.3182 136.203 27.3182C135.383 27.3182 134.731 27.6267 134.247 28.2429C134.128 28.3985 134.026 28.5656 133.942 28.7427C133.886 28.8562 133.914 28.9448 134.026 29.0083C134.061 29.0233 134.096 29.0297 134.131 29.0297Z" fill="white"/>
<path d="M50.3561 46.0018C50.3561 44.6559 50.7975 43.5749 51.6804 42.7602C52.4651 42.0662 53.3727 41.712 54.4032 41.6978C55.3701 41.7049 56.1696 42.0098 56.8003 42.6117C56.8632 42.6752 56.9225 42.6717 56.979 42.601C57.0002 42.5724 57.0108 42.5481 57.0108 42.5267V40.6353C57.0108 40.2811 57.1613 40.012 57.4628 39.8277C57.6168 39.7356 57.7814 39.6899 57.9573 39.6899H57.9678C58.3182 39.6899 58.588 39.8385 58.7773 40.1362C58.8613 40.299 58.9065 40.4654 58.9136 40.636V49.1699C58.9136 49.5241 58.7631 49.7968 58.4615 49.9882C58.3076 50.0803 58.1423 50.126 57.9671 50.126C57.6168 50.126 57.3505 49.9732 57.1683 49.669C57.0772 49.5134 57.0313 49.3463 57.0313 49.1692C57.0313 49.1335 57.0136 49.1192 56.979 49.1264C56.9649 49.1335 56.9543 49.1406 56.9472 49.1478C56.4006 49.7997 55.6752 50.1753 54.7711 50.2745C54.6377 50.2888 54.5049 50.2959 54.3714 50.2959C53.4108 50.2959 52.5562 49.9732 51.8061 49.3284C50.9232 48.5701 50.443 47.5677 50.366 46.321C50.3589 46.2139 50.3561 46.1075 50.3561 46.0018ZM57.1259 46.0547C57.1471 45.2685 56.8907 44.6166 56.3582 44.099C55.8885 43.6599 55.3277 43.44 54.6758 43.44C53.9186 43.44 53.2985 43.727 52.8147 44.3011C52.4149 44.7759 52.2158 45.3357 52.2158 45.9804C52.2158 46.7665 52.4891 47.4113 53.0358 47.9147C53.5055 48.3324 54.0592 48.5416 54.697 48.5416C55.4118 48.5416 56.0114 48.2581 56.4945 47.6912C56.895 47.2171 57.1048 46.6709 57.1259 46.0547Z" fill="white"/>
<path d="M60.7111 45.8528C60.7394 44.6982 61.1455 43.7129 61.9309 42.8982C62.6944 42.1049 63.6303 41.6722 64.7377 41.6015C64.8917 41.5944 65.0464 41.5908 65.2004 41.5908C66.3919 41.6408 67.3694 42.0764 68.1336 42.8982C68.8837 43.7129 69.2587 44.7118 69.2587 45.8949V45.9799C69.2587 46.2491 69.1394 46.4404 68.9014 46.5539C68.8102 46.5968 68.7191 46.6175 68.628 46.6175H62.8032C62.6909 46.6175 62.6245 46.6746 62.6033 46.7874C62.5962 46.8303 62.5998 46.8653 62.6139 46.8938C62.866 47.6592 63.3569 48.1726 64.0858 48.4347C64.3945 48.541 64.7236 48.5939 65.0739 48.5939C65.8798 48.5867 66.5211 48.2997 66.9979 47.7328C67.2084 47.4707 67.4852 47.3751 67.8285 47.4457C67.9337 47.4672 68.0248 47.5029 68.1018 47.5521C68.4034 47.7221 68.5503 47.9805 68.5433 48.3283C68.5362 48.5618 68.4627 48.7638 68.3222 48.9338C67.5022 49.8334 66.4194 50.2868 65.0739 50.294C64.2115 50.294 63.4424 50.0955 62.7665 49.6985C62.0898 49.3015 61.5735 48.7645 61.2161 48.0884C60.858 47.4136 60.6899 46.6675 60.7111 45.8528ZM62.9395 45.0024H67.0396C67.1589 45.0024 67.2288 44.946 67.25 44.8325C67.25 44.7975 67.2465 44.7618 67.2394 44.7261C66.9308 43.8828 66.3071 43.4123 65.3685 43.3123C65.2491 43.298 65.1304 43.2909 65.0111 43.2909C64.1911 43.2909 63.5391 43.5993 63.056 44.2155C62.9367 44.3712 62.835 44.5383 62.7509 44.7154C62.6944 44.8289 62.7227 44.9174 62.835 44.981C62.8696 44.996 62.9042 45.0024 62.9395 45.0024Z" fill="white"/>
<path d="M75.1549 39.6777C75.4911 39.6777 75.7439 39.8227 75.912 40.1133C75.9961 40.2618 76.0385 40.4146 76.0385 40.5703V49.4019C76.0385 49.7418 75.8951 49.9974 75.6076 50.1673C75.4671 50.2523 75.3166 50.2951 75.1556 50.2951C74.8264 50.2951 74.5736 50.1502 74.3984 49.8596C74.3214 49.7175 74.2826 49.5654 74.2826 49.4026V40.571C74.2826 40.2311 74.426 39.9755 74.7134 39.8055C74.854 39.7277 75.0009 39.6849 75.1549 39.6777Z" fill="white"/>
<path d="M77.9412 42.3563C77.9059 41.393 77.8783 40.6276 77.8571 40.0607C77.8501 39.7915 77.9553 39.6601 78.1729 39.6673L78.8664 39.678C78.9992 39.6923 79.1186 39.7629 79.2238 39.8908C79.322 40.0257 79.3637 40.1707 79.3503 40.3263L79.3397 40.337V40.3477V40.3584V40.3691V40.3799V40.3906V40.4013V40.412V40.4227L79.3291 40.4334V40.4441V40.4541V40.4648V40.4755V40.4862V40.497V40.5077V40.5184L79.3185 40.5291V40.5398V40.5505V40.5612V40.5719V40.5826V40.5933V40.6041V40.6148V40.6255L79.3079 40.6362V40.6469V40.6576V40.6683V40.679V40.6897V40.7004V40.7112V40.7219L79.2973 40.7326V40.7433V40.754V40.7647V40.7754V40.7861V40.7968V40.8076V40.8183L79.2867 40.829V40.8397V40.8504V40.8611V40.8718V40.8825V40.8932V40.9039V40.9147L79.2761 40.9254V40.9361V40.9468V40.9575V40.9682V40.9789V40.9896V41.0003V41.011L79.2655 41.0218V41.0325V41.0432V41.0539V41.0646V41.0753V41.086V41.0967V41.1074V41.1181L79.2549 41.1289V41.1396V41.1503V41.161V41.1717V41.1824V41.1931V41.2038V41.2145L79.2443 41.2252V41.236C79.1673 41.9371 79.1179 42.3984 79.0974 42.6176C79.0762 42.8018 78.9886 42.9046 78.8347 42.926C78.8135 42.9332 78.7958 42.9367 78.7824 42.9367L78.4356 42.926C78.3092 42.9189 78.1976 42.8625 78.0994 42.7561C78.0076 42.629 77.9546 42.4983 77.9412 42.3563Z" fill="white"/>
<path d="M81.3893 39.667H86.2253C86.5757 39.667 86.8419 39.8155 87.0242 40.1133C87.1153 40.2689 87.1612 40.436 87.1612 40.6131C87.1612 40.9672 87.0143 41.2364 86.7197 41.4206C86.5658 41.5127 86.4005 41.5584 86.2253 41.5584H83.3027C83.1134 41.5584 82.9834 41.647 82.9135 41.824C82.8923 41.8812 82.8817 41.934 82.8817 41.9833V43.5884C82.8817 43.7797 82.9728 43.9111 83.1551 43.9818C83.2038 43.9961 83.2532 44.0032 83.302 44.0032H86.2246C86.575 44.0032 86.8412 44.1517 87.0235 44.4495C87.1146 44.6051 87.1605 44.7722 87.1605 44.9486C87.1605 45.3027 87.0136 45.5719 86.719 45.7561C86.5651 45.8482 86.3998 45.8946 86.2246 45.8946H83.302C83.1127 45.8946 82.9827 45.9867 82.9128 46.171C82.8916 46.2209 82.881 46.2702 82.881 46.3195V47.9774C82.881 48.1688 82.9721 48.2994 83.1544 48.3708C83.2031 48.3923 83.2525 48.403 83.3013 48.403H86.2239C86.5743 48.403 86.8405 48.5515 87.0228 48.8492C87.1139 49.0049 87.1598 49.1712 87.1598 49.349C87.1598 49.6961 87.0129 49.9652 86.7183 50.1566C86.5644 50.2416 86.3991 50.288 86.2239 50.2951H81.3879C81.1845 50.2951 81.0411 50.1994 80.9571 50.0081C80.9359 49.9445 80.9253 49.8838 80.9253 49.8274V40.1347C80.9253 39.929 81.0199 39.7841 81.2092 39.6991C81.2664 39.6777 81.3258 39.667 81.3893 39.667Z" fill="white"/>
<path d="M89.2632 47.7761L89.4419 47.6275C89.7293 47.4012 90.0373 47.3619 90.3671 47.5105C90.4865 47.5604 90.5882 47.6275 90.6722 47.7125C91.1624 48.2016 91.7444 48.4458 92.4175 48.4458C93.0623 48.4458 93.5179 48.2152 93.7842 47.7546C93.9106 47.5419 93.9735 47.312 93.9735 47.0635C93.9735 46.6172 93.6648 46.2595 93.0482 45.9903C92.8377 45.8982 92.4351 45.7604 91.839 45.5762C90.942 45.2784 90.3078 44.9914 89.9363 44.7151C89.2773 44.2196 88.9446 43.5248 88.9376 42.6323C88.9376 41.7748 89.2702 41.0629 89.9363 40.496C90.5882 39.9433 91.387 39.667 92.3334 39.667C93.2933 39.6741 94.1204 39.9048 94.8147 40.3582C95.1092 40.5495 95.2455 40.8258 95.225 41.1871C95.1968 41.4706 95.0739 41.6969 94.857 41.8676C94.5696 42.0875 94.2609 42.1225 93.9318 41.974C93.8548 41.9318 93.7877 41.889 93.7319 41.8462C93.3533 41.5413 92.8907 41.3856 92.344 41.3785C91.6709 41.3785 91.2295 41.6091 91.0197 42.0689C90.9569 42.2175 90.9215 42.381 90.9145 42.558C90.9145 42.9622 91.1772 43.2878 91.7027 43.5355C91.8708 43.6205 92.3052 43.7797 93.0065 44.0139C93.9946 44.3402 94.6988 44.6908 95.1198 45.0664C95.6806 45.5833 95.961 46.2531 95.961 47.0749C95.961 47.9324 95.6594 48.6657 95.0569 49.2748C94.3838 49.9481 93.508 50.288 92.4288 50.2951C91.2161 50.288 90.1616 49.9338 89.2646 49.2327C88.9842 49.0056 88.8719 48.7157 88.9284 48.3616C88.9686 48.1202 89.0809 47.9253 89.2632 47.7761Z" fill="white"/>
<path d="M98.9034 39.667C99.2679 39.667 99.5447 39.8227 99.734 40.1347C99.8322 40.2975 99.8809 40.471 99.8809 40.6552V49.3062C99.8809 49.6675 99.7305 49.9474 99.4289 50.1459C99.2608 50.238 99.0856 50.2873 98.9034 50.2944C98.546 50.2944 98.2692 50.1387 98.0728 49.8267C97.9746 49.6639 97.9259 49.4904 97.9259 49.3062V40.6559C97.9259 40.2946 98.0799 40.0147 98.3885 39.8162C98.5496 39.717 98.7212 39.667 98.9034 39.667Z" fill="white"/>
</svg>
