<svg width="147" height="60" viewBox="0 0 147 60" fill="none" xmlns="http://www.w3.org/2000/svg">
<path d="M47.3469 27.5029C47.3294 27.8279 47.2545 28.1366 47.1321 28.4194L47.0584 28.5768L46.8688 28.9823L46.6978 29.3484L43.7206 35.7102L43.7026 35.7481L43.6993 35.7557C43.6622 35.8449 43.6392 35.9411 43.6338 36.0428C43.6327 36.0585 43.6327 36.0736 43.6327 36.0893V39.6906H43.6321C43.6321 39.7274 43.6316 39.7647 43.6294 39.802C43.6234 39.9113 43.6092 40.0183 43.5868 40.1221C43.4447 40.7862 42.9825 41.3269 42.3739 41.593C42.0777 41.7222 41.7461 41.7865 41.4008 41.7682C41.1227 41.7536 40.8599 41.6865 40.6217 41.5778C40.0901 41.3356 39.6814 40.884 39.4978 40.3374C39.4388 40.1605 39.4033 39.9734 39.3951 39.7799V35.9282C39.3951 35.8043 39.3984 35.68 39.4049 35.5545C39.4175 35.3204 39.4415 35.09 39.4771 34.8629C39.5716 34.2546 39.7459 33.6738 39.9885 33.1304L40.0857 32.9238L41.5953 29.6977L41.5942 29.6972C41.6357 29.6118 41.6609 29.5166 41.6663 29.416C41.6876 29.0251 41.4013 28.6876 41.0151 28.6298L40.9768 28.6249H40.9763L40.7402 28.5952L26.1305 26.7496L23.1365 26.3716L23.102 26.3673C21.7312 26.1878 20.6751 25.0993 20.5418 23.7664C20.5019 23.3489 20.4817 22.926 20.4817 22.4994C20.4817 15.0642 26.572 9.03711 34.0845 9.03711C40.354 9.03711 45.6329 13.2349 47.2075 18.9456C47.2403 19.0646 47.2715 19.1841 47.301 19.3042C47.3217 19.4237 47.3326 19.547 47.3326 19.6729C47.3326 20.8783 46.3454 21.8559 45.127 21.8559C44.1047 21.8559 43.2442 21.1665 42.9945 20.2321C42.9885 20.2067 42.982 20.1812 42.9754 20.1564C41.9778 16.236 38.3909 13.3338 34.1205 13.3338C29.5398 13.3338 25.7464 16.6724 25.0903 21.0259C25.0859 21.0518 25.0821 21.0778 25.0782 21.1043C25.076 21.1216 25.0733 21.1389 25.0711 21.1567C25.0695 21.1735 25.0684 21.1903 25.0673 21.207C25.0411 21.6953 25.3711 22.1209 25.8344 22.242L26.1054 22.2761L26.2026 22.2885L43.0186 24.4125L44.9172 24.6521L44.9412 24.6553C45.9416 24.7856 46.7633 25.4345 47.1354 26.3051C47.2922 26.6723 47.3693 27.0789 47.3469 27.5029Z" fill="#06A6FF"/>
<path d="M34.9482 6.49608C34.9443 6.56962 34.8804 6.6264 34.8055 6.62207C34.5466 6.61125 34.286 6.60585 34.0243 6.60585C23.928 6.60585 15.743 14.7067 15.743 24.699C15.743 32.2678 20.4379 38.7513 27.1035 41.4512C27.1537 41.4728 27.1876 41.5231 27.1838 41.5799C27.18 41.6534 27.116 41.7102 27.0412 41.7059C27.0368 41.7059 27.0325 41.7053 27.0281 41.7048C27.0281 41.7048 27.0281 41.7048 27.0275 41.7048C27.0204 41.7032 27.0133 41.7015 27.0062 41.6999C27.0051 41.6994 27.0035 41.6988 27.0019 41.6983C19.0151 39.7608 13.0898 32.6285 13.0898 24.1264C13.0898 14.134 21.2749 6.0332 31.3711 6.0332C32.5545 6.0332 33.7123 6.14514 34.8329 6.35765C34.8984 6.36684 34.9482 6.43011 34.9482 6.49608Z" fill="#FCF300"/>
<path d="M31.1741 46.5137C30.6277 46.5137 30.1141 46.1795 29.9163 45.642C29.6634 44.9547 30.0218 44.1944 30.7162 43.9446L36.9223 41.7092C37.6168 41.4588 38.3849 41.8136 38.6374 42.5008C38.8903 43.1881 38.5319 43.9484 37.8375 44.1982L31.6314 46.4337C31.4806 46.4883 31.3259 46.5137 31.1741 46.5137Z" fill="black"/>
<path d="M34.3909 53.6567C33.8445 53.6567 33.3309 53.3226 33.1331 52.7851C32.8802 52.0978 33.2386 51.3375 33.933 51.0877L40.1391 48.8523C40.8336 48.6019 41.6017 48.9566 41.8542 49.6439C42.1071 50.3312 41.7487 51.0915 41.0543 51.3413L34.8482 53.5767C34.6974 53.6308 34.5427 53.6567 34.3909 53.6567Z" fill="black"/>
<path d="M31.864 50.4108C31.3176 50.4108 30.8041 50.0766 30.6063 49.5391C30.3533 48.8519 30.7117 48.0916 31.4061 47.8417L40.844 44.4421C41.5384 44.1917 42.3066 44.5465 42.559 45.2338C42.812 45.921 42.4536 46.6813 41.7592 46.9311L32.3213 50.3308C32.1705 50.3849 32.0159 50.4108 31.864 50.4108Z" fill="black"/>
<path d="M51.2646 13.7708C51.2646 12.3228 51.7186 11.0992 52.6264 10.1006C53.4852 9.15157 54.5725 8.6023 55.8881 8.45276C56.1058 8.43119 56.3242 8.42041 56.5427 8.42041C57.8519 8.42041 58.9951 8.84818 59.9732 9.70444C60.1065 9.81875 60.2334 9.93953 60.3533 10.0682C60.6136 10.3464 60.6838 10.6714 60.5647 11.0417C60.4873 11.2703 60.3533 11.4486 60.1632 11.5766H60.1526C59.8356 11.7836 59.5122 11.798 59.1817 11.6197C59.0689 11.5557 58.9739 11.4802 58.8966 11.3947C58.2845 10.6887 57.4994 10.3349 56.5427 10.3349C55.5363 10.3349 54.7093 10.6843 54.0618 11.3839C53.4632 12.0403 53.1647 12.8354 53.1647 13.77C53.1647 14.7478 53.4916 15.5645 54.1462 16.2202C54.7937 16.855 55.5781 17.1728 56.5001 17.1728C57.5554 17.1728 58.4001 16.7522 59.0334 15.9103C59.2583 15.6177 59.554 15.4969 59.92 15.5465C60.0398 15.5609 60.1519 15.5969 60.2576 15.6537C60.3349 15.6896 60.4037 15.7378 60.4632 15.7982C60.5228 15.8586 60.5739 15.9233 60.6164 15.9908C60.659 16.0584 60.6937 16.1318 60.7221 16.2101C60.7505 16.2885 60.7661 16.369 60.7696 16.451C60.7732 16.5329 60.7696 16.6134 60.759 16.6918C60.7483 16.7702 60.7256 16.8485 60.6902 16.9269C60.6547 17.0053 60.6093 17.08 60.5526 17.1519C59.7363 18.1649 58.7193 18.789 57.5015 19.0248C57.1845 19.0888 56.8647 19.1211 56.5412 19.1211C55.049 19.1211 53.8107 18.6394 52.8256 17.6768C51.9178 16.7781 51.4044 15.6508 51.2845 14.2956C51.271 14.1173 51.2646 13.9426 51.2646 13.7708Z" fill="black"/>
<path d="M63.362 8.43115C63.6996 8.43115 63.9535 8.5771 64.1223 8.86971C64.2067 9.01925 64.2492 9.1731 64.2492 9.32983V18.2224C64.2492 18.5646 64.1052 18.822 63.8166 18.9931C63.6754 19.0786 63.5244 19.1218 63.3627 19.1218C63.0315 19.1218 62.7783 18.9758 62.6024 18.6832C62.5251 18.5402 62.4861 18.387 62.4861 18.2231V9.32983C62.4861 8.98761 62.6301 8.73095 62.9187 8.55912C63.0591 8.48148 63.2074 8.43834 63.362 8.43115Z" fill="black"/>
<path d="M71.9014 18.9398C71.7468 18.9398 71.6482 18.8687 71.6057 18.7256C71.5915 18.6896 71.5844 18.6544 71.5844 18.6185V18.287C71.5844 18.2159 71.5489 18.1799 71.4787 18.1799C71.4433 18.1727 71.4121 18.1835 71.3837 18.2123C70.8206 18.8119 70.0851 19.1145 69.1773 19.1217C67.9248 19.1217 67.0198 18.6472 66.4645 17.6982C66.1198 17.0986 65.9475 16.3603 65.9475 15.4832V11.4168C65.9475 11.0531 66.1021 10.7748 66.412 10.5822C66.5667 10.4894 66.7355 10.4398 66.9184 10.4326H66.9397C67.3057 10.4326 67.5837 10.5893 67.7738 10.9035C67.8652 11.0674 67.9113 11.2393 67.9113 11.4168V15.2797C67.9113 16.4566 68.3298 17.1489 69.1674 17.356C69.3362 17.3991 69.5156 17.42 69.7057 17.42C70.4163 17.42 70.9369 17.1094 71.2681 16.489C71.4723 16.1108 71.5745 15.6507 71.5745 15.1086V11.4168C71.5745 11.0531 71.7255 10.7748 72.0284 10.5822C72.1901 10.4894 72.3589 10.4398 72.5347 10.4326C72.9007 10.4326 73.1787 10.5893 73.3688 10.9035C73.4603 11.0674 73.5057 11.2393 73.5057 11.4168V17.3129C73.5057 17.8478 73.2979 18.2791 72.883 18.6077C72.5879 18.8291 72.2603 18.9398 71.9014 18.9398Z" fill="black"/>
<path d="M77.1697 18.2014C77.1697 18.494 77.0428 18.7111 76.7896 18.8541C76.6768 18.9109 76.557 18.9433 76.4307 18.9505H76.0293C75.7335 18.9505 75.5187 18.8182 75.3853 18.5544C75.3222 18.44 75.2903 18.3221 75.2903 18.2014V9.38356C75.2903 9.02696 75.4413 8.75592 75.7442 8.57044C75.8988 8.47769 76.064 8.42809 76.2406 8.4209C76.5924 8.4209 76.8598 8.57403 77.0428 8.88102C77.1343 9.03775 77.1804 9.20598 77.1804 9.38428V11.3535C77.1804 11.4318 77.2187 11.475 77.2967 11.4821C77.3392 11.475 77.3704 11.4606 77.3917 11.439C77.9896 10.8258 78.7499 10.5008 79.6718 10.4656C79.7279 10.4584 79.7846 10.4548 79.8406 10.4548C80.8683 10.4548 81.7584 10.797 82.5116 11.4821C83.3981 12.3528 83.852 13.4585 83.8733 14.7993C83.8733 16.1121 83.4406 17.1819 82.5747 18.0094C81.8569 18.6945 81.0158 19.0619 80.052 19.1115C79.9889 19.1187 79.925 19.1223 79.8619 19.1223C78.8413 19.1151 78.0144 18.7801 77.3811 18.1165C77.3179 18.0525 77.2577 18.0525 77.2016 18.1165C77.1796 18.1438 77.1697 18.1726 77.1697 18.2014ZM82.0045 14.7663C82.0045 13.9819 81.7265 13.3363 81.1704 12.8294C80.6988 12.4017 80.1357 12.1946 79.4811 12.209C78.7633 12.2234 78.1648 12.5196 77.6867 13.0969C77.2995 13.5822 77.1023 14.1314 77.0952 14.7447C77.0952 15.5434 77.3662 16.1998 77.908 16.7139C78.3655 17.1344 78.9109 17.3487 79.5442 17.3559C80.2335 17.3559 80.8165 17.1064 81.291 16.6067C81.7669 16.1071 82.0045 15.4938 82.0045 14.7663Z" fill="black"/>
<path d="M51.6233 32.6679L51.8028 32.5184C52.0914 32.2905 52.4006 32.2509 52.7319 32.4005C52.8517 32.4508 52.9538 32.5184 53.0382 32.6039C53.5304 33.0964 54.1148 33.3423 54.7907 33.3423C55.4382 33.3423 55.8957 33.1101 56.1631 32.6464C56.29 32.4321 56.3531 32.2006 56.3531 31.9504C56.3531 31.5011 56.0432 31.1409 55.424 30.8699C55.2127 30.7771 54.8084 30.6384 54.2099 30.4529C53.3092 30.1531 52.6723 29.8641 52.2992 29.5858C51.6375 29.0869 51.3035 28.3874 51.2964 27.4887C51.2964 26.6252 51.6304 25.9085 52.2992 25.3376C52.9538 24.7812 53.756 24.5029 54.7063 24.5029C55.6701 24.5101 56.5006 24.7423 57.1978 25.1981C57.4936 25.3908 57.6304 25.669 57.6092 26.0328C57.5808 26.3183 57.4581 26.5462 57.2397 26.718C56.951 26.9394 56.6411 26.9746 56.3106 26.8251C56.2333 26.782 56.1666 26.7396 56.1099 26.6964C55.7297 26.3894 55.2652 26.2327 54.7162 26.2255C54.0404 26.2255 53.5971 26.4577 53.3865 26.9214C53.3233 27.071 53.2879 27.2356 53.2808 27.4139C53.2808 27.8208 53.5446 28.1487 54.0723 28.3981C54.2411 28.4837 54.6772 28.644 55.3815 28.8798C56.3737 29.2084 57.0808 29.5614 57.5035 29.9396C58.0666 30.4608 58.3482 31.1344 58.3482 31.9619C58.3482 32.8254 58.0453 33.5637 57.4404 34.177C56.7645 34.8549 55.885 35.1972 54.8014 35.2043C53.5836 35.1972 52.5248 34.8406 51.624 34.1346C51.3425 33.9059 51.2297 33.614 51.2865 33.2575C51.3276 33.0145 51.4397 32.8182 51.6233 32.6679Z" fill="black"/>
<path d="M60.3958 30.111C60.5646 29.0556 61.0646 28.185 61.8951 27.4998C62.7185 26.829 63.6511 26.5012 64.6923 26.5156C65.8816 26.5372 66.8738 26.9613 67.6688 27.7888C67.7603 27.8816 67.8447 27.9779 67.922 28.0778C68.154 28.3633 68.2001 28.6774 68.0589 29.0197C67.9603 29.2483 67.8022 29.4086 67.5837 29.5013L67.5518 29.5229C67.2213 29.666 66.9114 29.6157 66.6227 29.3734C66.566 29.3238 66.5171 29.2734 66.4752 29.2238C66.0036 28.6314 65.388 28.3359 64.6277 28.3359C63.9242 28.3288 63.3291 28.5926 62.844 29.1275C62.5199 29.4913 62.3164 29.909 62.232 30.3799C62.0908 31.1786 62.2603 31.8782 62.7384 32.477C63.2447 33.0694 63.8781 33.3721 64.6383 33.3865C65.4121 33.3865 66.032 33.0795 66.4965 32.4662C66.7213 32.1736 67.0064 32.0493 67.3518 32.0917C67.4362 32.1061 67.5171 32.1276 67.5944 32.1557L67.6263 32.1772C67.9433 32.3131 68.1227 32.5518 68.1646 32.894C68.2001 33.1435 68.1433 33.3685 67.9958 33.5684C67.2639 34.5382 66.2788 35.0774 65.0398 35.1846C64.8923 35.1989 64.7476 35.2061 64.6071 35.2061C63.4603 35.2061 62.4781 34.8136 61.6618 34.0292C60.8738 33.2729 60.4334 32.3419 60.3419 31.2361C60.3149 30.8637 60.332 30.4892 60.3958 30.111Z" fill="black"/>
<path d="M70.7511 27.414C71.0887 27.414 71.3426 27.5599 71.5114 27.8525C71.5958 28.002 71.6384 28.1559 71.6384 28.3126V34.305C71.6384 34.6472 71.4944 34.9046 71.2057 35.0757C71.0646 35.1612 70.9135 35.2044 70.7518 35.2044C70.4213 35.2044 70.1674 35.0584 69.9916 34.7658C69.9143 34.6228 69.8752 34.4696 69.8752 34.3057V28.3134C69.8752 27.9711 70.0192 27.7138 70.3079 27.5426C70.4483 27.4636 70.5965 27.4211 70.7511 27.414ZM69.9064 25.3916C69.9064 25.0566 70.0469 24.7992 70.3284 24.6209C70.476 24.5353 70.6313 24.4922 70.793 24.4922C71.1235 24.4922 71.3774 24.6353 71.5533 24.92C71.6377 25.0695 71.6802 25.2269 71.6802 25.3909C71.6802 25.7266 71.5391 25.9833 71.2582 26.1616C71.1107 26.2471 70.9554 26.2903 70.7937 26.2903C70.4625 26.2903 70.2093 26.1479 70.0334 25.8625C69.949 25.7122 69.9064 25.5555 69.9064 25.3916Z" fill="black"/>
<path d="M73.3476 30.7313C73.376 29.5688 73.7838 28.5766 74.5724 27.7563C75.3391 26.9576 76.2788 26.5219 77.3909 26.4507C77.5455 26.4435 77.7001 26.4399 77.8554 26.4399C79.0519 26.4903 80.0334 26.9288 80.8008 27.7563C81.554 28.5766 81.9306 29.5824 81.9306 30.7737V30.8593C81.9306 31.1303 81.8107 31.323 81.5717 31.4373C81.4802 31.4804 81.3888 31.5013 81.2973 31.5013H75.449C75.3363 31.5013 75.2696 31.5588 75.2483 31.6724C75.2412 31.7155 75.2448 31.7507 75.259 31.7795C75.5122 32.5502 76.0051 33.0671 76.737 33.331C77.0469 33.4381 77.3774 33.4913 77.7292 33.4913C78.5384 33.4841 79.1824 33.1951 79.6611 32.6243C79.8724 32.3604 80.1505 32.2641 80.4951 32.3352C80.6008 32.3568 80.6923 32.3928 80.7696 32.4424C81.0724 32.6135 81.22 32.8737 81.2129 33.2239C81.2058 33.4589 81.132 33.6624 80.9909 33.8335C80.1675 34.7394 79.0802 35.1959 77.7292 35.2031C76.8639 35.2031 76.0909 35.0032 75.4122 34.6035C74.7327 34.2038 74.2143 33.6631 73.8554 32.9823C73.4958 32.3029 73.3271 31.5516 73.3476 30.7313ZM75.5859 29.875H79.7029C79.8228 29.875 79.893 29.8182 79.9143 29.7039C79.9143 29.668 79.9107 29.6328 79.9037 29.5968C79.5937 28.7477 78.9675 28.2732 78.0249 28.1733C77.9051 28.1589 77.7859 28.1517 77.6661 28.1517C76.8427 28.1517 76.188 28.4623 75.7022 29.0828C75.5824 29.2395 75.4802 29.4077 75.3958 29.586C75.3398 29.7003 75.3675 29.7895 75.4802 29.8535C75.5157 29.8686 75.5505 29.875 75.5859 29.875Z" fill="black"/>
<path d="M84.9705 26.6975H85.1605C85.3506 26.6975 85.4776 26.7867 85.5407 26.965C85.5549 27.0081 85.562 27.0505 85.562 27.0937V27.4682C85.562 27.5394 85.5974 27.5717 85.6676 27.5646C85.696 27.5574 85.7166 27.5466 85.7307 27.5322C86.3428 26.8614 87.1244 26.5228 88.074 26.5156C89.4322 26.5156 90.3861 27.0261 90.935 28.0455C91.2442 28.6236 91.3995 29.326 91.3995 30.1535V34.2198C91.3995 34.5836 91.2485 34.8618 90.9456 35.0545C90.7839 35.1472 90.6151 35.1968 90.4393 35.204H90.4073C90.0485 35.204 89.774 35.0473 89.5839 34.7331C89.4854 34.5692 89.4364 34.3981 89.4364 34.2198V30.3569C89.4364 29.2871 89.0563 28.6164 88.2967 28.3453C88.0712 28.2598 87.8215 28.2166 87.5471 28.2166C86.8364 28.2166 86.3017 28.5092 85.9428 29.0945C85.7038 29.487 85.5804 29.9651 85.5733 30.5287V34.2205C85.5733 34.5843 85.4215 34.8625 85.1194 35.0552C84.9577 35.1479 84.7882 35.1975 84.613 35.2047C84.2542 35.2047 83.9797 35.048 83.7896 34.7338C83.691 34.5699 83.6421 34.3988 83.6421 34.2205V28.0462C83.6421 27.5753 83.8322 27.208 84.2123 26.9441C84.4428 26.7795 84.696 26.6975 84.9705 26.6975Z" fill="black"/>
<path d="M94.0384 26.8042H94.4292C94.5278 26.7754 94.5838 26.7186 94.598 26.6331V25.8947C94.6051 25.6453 94.7072 25.449 94.9044 25.3059L95.9597 24.5784C96.1143 24.4712 96.2625 24.482 96.403 24.6107C96.4803 24.6891 96.5228 24.7818 96.5299 24.8889V26.6331C96.5299 26.7258 96.5725 26.779 96.6569 26.7934C96.671 26.7934 96.6852 26.797 96.6987 26.8042H97.3533C97.6838 26.8042 97.9342 26.9473 98.103 27.232C98.1732 27.3678 98.2122 27.5138 98.2193 27.6705C98.2193 27.9991 98.0746 28.2486 97.7867 28.4197C97.6526 28.498 97.5086 28.5376 97.354 28.5376H96.6994C96.6008 28.5591 96.5448 28.6159 96.5306 28.7087V31.6836C96.5306 32.3832 96.615 32.8325 96.7838 33.0317C96.8824 33.1532 97.0193 33.2387 97.1952 33.2883C97.6242 33.4098 97.9271 33.6845 98.103 34.1122C98.1732 34.2905 98.2122 34.476 98.2193 34.6687V35.2036H97.9448C96.6994 35.2036 95.837 34.9699 95.3583 34.5026C94.8796 34.0353 94.6264 33.1884 94.598 31.9612C94.598 31.8684 94.598 31.7793 94.598 31.6937V28.708C94.5767 28.6152 94.5207 28.5584 94.4292 28.5368H94.0384C93.7143 28.5368 93.4682 28.3945 93.2994 28.1091C93.2221 27.9667 93.1831 27.8201 93.1831 27.6705C93.1831 27.3355 93.3235 27.0853 93.6051 26.9214C93.7462 26.843 93.8902 26.8042 94.0384 26.8042Z" fill="black"/>
<path d="M100.889 27.414C101.226 27.414 101.48 27.5599 101.649 27.8525C101.734 28.002 101.776 28.1559 101.776 28.3126V34.305C101.776 34.6472 101.632 34.9046 101.343 35.0757C101.202 35.1612 101.051 35.2044 100.89 35.2044C100.558 35.2044 100.305 35.0584 100.129 34.7658C100.052 34.6228 100.013 34.4696 100.013 34.3057V28.3134C100.013 27.9711 100.157 27.7138 100.446 27.5426C100.587 27.4636 100.734 27.4211 100.889 27.414ZM100.045 25.3916C100.045 25.0566 100.185 24.7992 100.467 24.6209C100.614 24.5353 100.77 24.4922 100.931 24.4922C101.262 24.4922 101.516 24.6353 101.692 24.92C101.776 25.0695 101.819 25.2269 101.819 25.3909C101.819 25.7266 101.677 25.9833 101.397 26.1616C101.249 26.2471 101.094 26.2903 100.932 26.2903C100.601 26.2903 100.348 26.1479 100.172 25.8625C100.087 25.7122 100.045 25.5555 100.045 25.3916Z" fill="black"/>
<path d="M103.475 28.1525C103.475 27.8384 103.612 27.6069 103.887 27.4566C104.007 27.3998 104.129 27.3711 104.256 27.3711H104.753V27.3495C104.753 26.087 105.076 25.2272 105.724 24.7706C106.216 24.4284 106.944 24.2573 107.909 24.2573H108.056V25.4342C108.056 25.6485 107.961 25.7944 107.771 25.8728C107.721 25.8872 107.673 25.8979 107.624 25.9051C107.103 25.9411 106.775 26.105 106.642 26.3976C106.565 26.5759 106.522 26.8326 106.515 27.1683C106.515 27.2826 106.568 27.3466 106.673 27.361C106.687 27.3682 106.698 27.3718 106.705 27.3718H107.275C107.585 27.3718 107.814 27.5077 107.962 27.7787C108.025 27.9002 108.057 28.0246 108.057 28.1533C108.057 28.4674 107.92 28.6989 107.646 28.8485C107.533 28.9125 107.409 28.9448 107.276 28.9448H106.706C106.593 28.9664 106.53 29.0304 106.516 29.1375V34.3059C106.516 34.6482 106.372 34.9055 106.083 35.0766C105.936 35.1622 105.784 35.2053 105.629 35.2053C105.298 35.2053 105.045 35.0594 104.869 34.7668C104.792 34.6237 104.753 34.4706 104.753 34.3067V29.1382C104.731 29.0311 104.668 28.9671 104.563 28.9455H104.256C103.946 28.9455 103.718 28.8061 103.57 28.5285C103.507 28.4128 103.475 28.2884 103.475 28.1525Z" fill="black"/>
<path d="M110.791 27.414C111.129 27.414 111.382 27.5599 111.551 27.8525C111.636 28.002 111.678 28.1559 111.678 28.3126V34.305C111.678 34.6472 111.534 34.9046 111.246 35.0757C111.104 35.1612 110.953 35.2044 110.792 35.2044C110.46 35.2044 110.207 35.0584 110.031 34.7658C109.954 34.6228 109.915 34.4696 109.915 34.3057V28.3134C109.915 27.9711 110.059 27.7138 110.348 27.5426C110.488 27.4636 110.636 27.4211 110.791 27.414ZM109.946 25.3916C109.946 25.0566 110.087 24.7992 110.368 24.6209C110.516 24.5353 110.671 24.4922 110.833 24.4922C111.163 24.4922 111.417 24.6353 111.593 24.92C111.677 25.0695 111.72 25.2269 111.72 25.3909C111.72 25.7266 111.579 25.9833 111.298 26.1616C111.15 26.2471 110.995 26.2903 110.833 26.2903C110.502 26.2903 110.249 26.1479 110.073 25.8625C109.988 25.7122 109.946 25.5555 109.946 25.3916Z" fill="black"/>
<path d="M120.091 27.4464C120.091 27.1538 120.218 26.9367 120.471 26.7936C120.591 26.7368 120.71 26.7044 120.83 26.6972H121.231C121.527 26.6972 121.745 26.8295 121.886 27.0934C121.942 27.2077 121.97 27.3256 121.97 27.4464V36.7991C121.97 37.1557 121.818 37.4303 121.516 37.623C121.362 37.7085 121.196 37.7553 121.02 37.7624C120.668 37.7624 120.401 37.6086 120.218 37.3023C120.126 37.1456 120.081 36.9774 120.081 36.7991V34.295C120.081 34.2166 120.042 34.1735 119.965 34.1663C119.922 34.1735 119.891 34.1879 119.869 34.2094C119.271 34.8227 118.511 35.1477 117.589 35.1836C117.533 35.1908 117.48 35.1944 117.431 35.1944C116.396 35.1944 115.503 34.8522 114.75 34.167C113.863 33.3036 113.409 32.1978 113.388 30.8498C113.388 29.5371 113.821 28.4673 114.687 27.6398C115.404 26.9546 116.245 26.5872 117.209 26.5376C117.272 26.5304 117.336 26.5269 117.399 26.5269C118.427 26.534 119.254 26.8691 119.88 27.5327C119.943 27.5966 120.003 27.5966 120.06 27.5327C120.08 27.5032 120.091 27.4744 120.091 27.4464ZM115.256 30.8808C115.256 31.6723 115.534 32.3186 116.09 32.8176C116.569 33.2453 117.131 33.4524 117.779 33.438C118.496 33.4236 119.094 33.1274 119.573 32.5501C119.96 32.0648 120.157 31.5156 120.165 30.9023C120.165 30.1036 119.894 29.4472 119.352 28.9331C118.894 28.5126 118.352 28.2983 117.726 28.2911C116.966 28.2911 116.343 28.5801 115.857 29.1582C115.456 29.6506 115.256 30.2251 115.256 30.8808Z" fill="black"/>
<path d="M129.75 35.0228C129.595 35.0228 129.497 34.9517 129.454 34.8086C129.44 34.7726 129.433 34.7374 129.433 34.7015V34.37C129.433 34.2989 129.397 34.2629 129.327 34.2629C129.292 34.2557 129.26 34.2665 129.232 34.2953C128.669 34.8949 127.933 35.1975 127.026 35.2047C125.773 35.2047 124.868 34.7302 124.313 33.7812C123.968 33.1816 123.796 32.4433 123.796 31.5662V27.4999C123.796 27.1361 123.951 26.8578 124.26 26.6652C124.415 26.5724 124.584 26.5228 124.767 26.5156H124.788C125.154 26.5156 125.432 26.6724 125.622 26.9865C125.714 27.1504 125.759 27.3223 125.759 27.4999V31.3627C125.759 32.5396 126.177 33.232 127.015 33.439C127.184 33.4814 127.363 33.503 127.553 33.503C128.264 33.503 128.785 33.1924 129.116 32.572C129.32 32.1938 129.422 31.7337 129.422 31.1916V27.4999C129.422 27.1361 129.573 26.8578 129.876 26.6652C130.038 26.5724 130.207 26.5228 130.382 26.5156C130.748 26.5156 131.026 26.6724 131.216 26.9865C131.308 27.1504 131.353 27.3223 131.353 27.4999V33.3959C131.353 33.9308 131.146 34.3621 130.731 34.6907C130.436 34.9121 130.109 35.0228 129.75 35.0228Z" fill="black"/>
<path d="M133.148 30.7313C133.177 29.5688 133.585 28.5766 134.373 27.7563C135.14 26.9576 136.08 26.5219 137.192 26.4507C137.346 26.4435 137.501 26.4399 137.656 26.4399C138.853 26.4903 139.834 26.9288 140.602 27.7563C141.355 28.5766 141.731 29.5824 141.731 30.7737V30.8593C141.731 31.1303 141.612 31.323 141.373 31.4373C141.281 31.4804 141.19 31.5013 141.098 31.5013H135.25C135.137 31.5013 135.07 31.5588 135.049 31.6724C135.042 31.7155 135.046 31.7507 135.06 31.7795C135.313 32.5502 135.806 33.0671 136.538 33.331C136.848 33.4381 137.178 33.4913 137.53 33.4913C138.339 33.4841 138.983 33.1951 139.462 32.6243C139.673 32.3604 139.951 32.2641 140.296 32.3352C140.402 32.3568 140.493 32.3928 140.57 32.4424C140.873 32.6135 141.021 32.8737 141.014 33.2239C141.007 33.4589 140.933 33.6624 140.792 33.8335C139.968 34.7394 138.881 35.1959 137.53 35.2031C136.665 35.2031 135.892 35.0032 135.213 34.6035C134.534 34.2038 134.015 33.6631 133.656 32.9823C133.297 32.3029 133.128 31.5516 133.148 30.7313ZM135.387 29.875H139.504C139.624 29.875 139.694 29.8182 139.715 29.7039C139.715 29.668 139.712 29.6328 139.704 29.5968C139.394 28.7477 138.768 28.2732 137.826 28.1733C137.706 28.1589 137.587 28.1517 137.467 28.1517C136.643 28.1517 135.989 28.4623 135.503 29.0828C135.383 29.2395 135.281 29.4077 135.197 29.586C135.141 29.7003 135.168 29.7895 135.281 29.8535C135.316 29.8686 135.351 29.875 135.387 29.875Z" fill="black"/>
<path d="M51.2646 46.9643C51.2646 45.6091 51.7079 44.5206 52.5944 43.7003C53.3824 43.0015 54.2937 42.6449 55.3285 42.6305C56.2994 42.6377 57.1022 42.9447 57.7356 43.5508C57.7987 43.6148 57.8583 43.6112 57.915 43.54C57.9363 43.5112 57.9469 43.4868 57.9469 43.4652V41.5608C57.9469 41.2042 58.098 40.9331 58.4008 40.7476C58.5554 40.6549 58.7207 40.6089 58.8973 40.6089H58.9079C59.2597 40.6089 59.5306 40.7584 59.7207 41.0582C59.8051 41.2221 59.8505 41.3897 59.8576 41.5615V50.1542C59.8576 50.5108 59.7065 50.7855 59.4037 50.9782C59.249 51.0709 59.0831 51.1169 58.9072 51.1169C58.5554 51.1169 58.2881 50.9631 58.1051 50.6568C58.0136 50.5001 57.9675 50.3318 57.9675 50.1535C57.9675 50.1176 57.9498 50.1032 57.915 50.1104C57.9008 50.1176 57.8902 50.1248 57.8831 50.132C57.3342 50.7884 56.6058 51.1665 55.698 51.2664C55.5639 51.2808 55.4306 51.288 55.2966 51.288C54.332 51.288 53.4739 50.963 52.7207 50.3138C51.8342 49.5503 51.3519 48.5409 51.2746 47.2857C51.2675 47.1778 51.2646 47.0707 51.2646 46.9643ZM58.0625 47.0175C58.0838 46.226 57.8264 45.5696 57.2916 45.0483C56.82 44.6062 56.2568 44.3848 55.6022 44.3848C54.842 44.3848 54.2193 44.6738 53.7334 45.2518C53.332 45.7299 53.132 46.2935 53.132 46.9427C53.132 47.7343 53.4065 48.3835 53.9554 48.8903C54.4271 49.3109 54.9831 49.5216 55.6235 49.5216C56.3412 49.5216 56.9434 49.2362 57.4285 48.6653C57.8306 48.1879 58.0412 47.638 58.0625 47.0175Z" fill="black"/>
<path d="M61.6627 46.8138C61.691 45.6513 62.0988 44.6591 62.8875 43.8388C63.6542 43.0401 64.5939 42.6044 65.7059 42.5332C65.8605 42.5261 66.0159 42.5225 66.1705 42.5225C67.3669 42.5728 68.3485 43.0113 69.1159 43.8388C69.8691 44.6591 70.2457 45.6649 70.2457 46.8562V46.9418C70.2457 47.2128 70.1258 47.4055 69.8868 47.5198C69.7953 47.5629 69.7038 47.5838 69.6123 47.5838H63.7634C63.6506 47.5838 63.584 47.6413 63.5627 47.7549C63.5556 47.798 63.5591 47.8333 63.5733 47.862C63.8265 48.6327 64.3194 49.1496 65.0513 49.4135C65.3613 49.5206 65.6918 49.5738 66.0435 49.5738C66.8527 49.5666 67.4967 49.2776 67.9754 48.7068C68.1868 48.4429 68.4648 48.3466 68.8095 48.4178C68.9152 48.4393 69.0066 48.4753 69.084 48.5249C69.3868 48.696 69.5343 48.9563 69.5272 49.3064C69.5201 49.5415 69.4464 49.7449 69.3052 49.916C68.4818 50.8219 67.3946 51.2784 66.0435 51.2856C65.1776 51.2856 64.4052 51.0857 63.7265 50.686C63.0471 50.2863 62.5286 49.7456 62.1698 49.0648C61.8102 48.3854 61.6414 47.6341 61.6627 46.8138ZM63.9003 45.9576H68.0173C68.1371 45.9576 68.2074 45.9008 68.2286 45.7864C68.2286 45.7512 68.2251 45.7153 68.218 45.6793C67.9081 44.8303 67.2818 44.3565 66.3393 44.2558C66.2194 44.2414 66.1003 44.2343 65.9804 44.2343C65.157 44.2343 64.5024 44.5448 64.0173 45.1653C63.8974 45.322 63.7953 45.4902 63.7109 45.6685C63.6542 45.7829 63.6825 45.872 63.7953 45.936C63.8301 45.9511 63.8648 45.9576 63.9003 45.9576Z" fill="black"/>
<path d="M76.1662 40.5967C76.5038 40.5967 76.7577 40.7426 76.9265 41.0352C77.0109 41.1848 77.0534 41.3386 77.0534 41.4954V50.3879C77.0534 50.7301 76.9094 50.9875 76.6208 51.1586C76.4796 51.2442 76.3286 51.2873 76.1669 51.2873C75.8364 51.2873 75.5825 51.1414 75.4066 50.8488C75.3293 50.7057 75.2903 50.5526 75.2903 50.3886V41.4961C75.2903 41.1539 75.4343 40.8965 75.7229 40.7254C75.864 40.647 76.0116 40.6039 76.1662 40.5967Z" fill="black"/>
<path d="M78.9639 43.2933C78.9284 42.3234 78.9008 41.5527 78.8795 40.9819C78.8724 40.7108 78.9781 40.5785 79.1965 40.5857L79.893 40.5965C80.0263 40.6109 80.1462 40.6821 80.2518 40.8108C80.3504 40.9466 80.3922 41.0926 80.3788 41.2493L80.3681 41.2601V41.2709V41.2817V41.2924V41.3032V41.314V41.3248V41.3356V41.3464L80.3575 41.3572V41.3679V41.378V41.3888V41.3996V41.4104V41.4211V41.4319V41.4427L80.3469 41.4535V41.4643V41.4751V41.4858V41.4966V41.5074V41.5182V41.529V41.5398V41.5505L80.3362 41.5613V41.5721V41.5829V41.5937V41.6045V41.6152V41.626V41.6368V41.6476L80.3256 41.6584V41.6692V41.68V41.6907V41.7015V41.7123V41.7231V41.7339V41.7447L80.3149 41.7554V41.7662V41.777V41.7878V41.7986V41.8094V41.8201V41.8309V41.8417L80.3043 41.8525V41.8633V41.8741V41.8849V41.8956V41.9064V41.9172V41.928V41.9388L80.2937 41.9496V41.9603V41.9711V41.9819V41.9927V42.0035V42.0143V42.025V42.0358V42.0466L80.283 42.0574V42.0682V42.079V42.0898V42.1005V42.1113V42.1221V42.1329V42.1437L80.2724 42.1545V42.1652C80.1951 42.8712 80.1454 43.3357 80.1249 43.5564C80.1036 43.7419 80.0157 43.8454 79.861 43.867C79.8398 43.8742 79.822 43.8778 79.8086 43.8778L79.4603 43.867C79.3334 43.8598 79.2213 43.803 79.1227 43.6959C79.0305 43.5679 78.9774 43.4363 78.9639 43.2933Z" fill="black"/>
<path d="M82.4264 40.5859H87.2824C87.6342 40.5859 87.9016 40.7355 88.0846 41.0353C88.176 41.192 88.2221 41.3602 88.2221 41.5385C88.2221 41.8951 88.0746 42.1662 87.7789 42.3517C87.6243 42.4444 87.4583 42.4904 87.2824 42.4904H84.3477C84.1576 42.4904 84.0271 42.5796 83.9569 42.7579C83.9356 42.8154 83.925 42.8686 83.925 42.9182V44.5344C83.925 44.727 84.0165 44.8593 84.1995 44.9305C84.2484 44.9449 84.298 44.9521 84.347 44.9521H87.2817C87.6335 44.9521 87.9009 45.1016 88.0838 45.4014C88.1753 45.5581 88.2214 45.7264 88.2214 45.9039C88.2214 46.2605 88.0739 46.5316 87.7782 46.7171C87.6236 46.8098 87.4576 46.8565 87.2817 46.8565H84.347C84.1569 46.8565 84.0264 46.9493 83.9562 47.1348C83.9349 47.1851 83.9243 47.2347 83.9243 47.2843V48.9537C83.9243 49.1463 84.0158 49.2779 84.1987 49.3498C84.2477 49.3714 84.2973 49.3822 84.3463 49.3822H87.281C87.6328 49.3822 87.9002 49.5317 88.0831 49.8315C88.1746 49.9882 88.2207 50.1557 88.2207 50.3348C88.2207 50.6842 88.0732 50.9552 87.7775 51.1479C87.6229 51.2334 87.4569 51.2802 87.281 51.2874H82.425C82.2207 51.2874 82.0768 51.191 81.9924 50.9983C81.9711 50.9344 81.9604 50.8732 81.9604 50.8164V41.0568C81.9604 40.8498 82.0555 40.7038 82.2456 40.6183C82.303 40.5967 82.3626 40.5859 82.4264 40.5859Z" fill="black"/>
<path d="M90.3326 48.7509L90.512 48.6014C90.8007 48.3735 91.1099 48.334 91.4411 48.4835C91.561 48.5338 91.6631 48.6014 91.7475 48.6869C92.2397 49.1794 92.8241 49.4253 93.5 49.4253C94.1475 49.4253 94.6049 49.1931 94.8723 48.7294C94.9993 48.5151 95.0624 48.2836 95.0624 48.0334C95.0624 47.5841 94.7525 47.2239 94.1333 46.9529C93.922 46.8601 93.5177 46.7214 92.9191 46.5359C92.0184 46.2361 91.3815 45.9471 91.0085 45.6688C90.3468 45.1699 90.0127 44.4704 90.0056 43.5717C90.0056 42.7082 90.3397 41.9915 91.0085 41.4206C91.6631 40.8642 92.4652 40.5859 93.4156 40.5859C94.3794 40.5931 95.2099 40.8253 95.9071 41.2819C96.2028 41.4745 96.3397 41.7528 96.3191 42.1166C96.2908 42.402 96.1674 42.6299 95.9496 42.8017C95.661 43.0231 95.351 43.0584 95.0205 42.9088C94.9432 42.8664 94.8759 42.8233 94.8198 42.7801C94.4397 42.4732 93.9751 42.3164 93.4262 42.3092C92.7503 42.3092 92.3071 42.5415 92.0964 43.0045C92.0333 43.154 91.9978 43.3186 91.9908 43.4969C91.9908 43.9038 92.2546 44.2317 92.7822 44.4812C92.951 44.5667 93.3872 44.727 94.0915 44.9628C95.0837 45.2914 95.7908 45.6444 96.2134 46.0226C96.7766 46.5431 97.0581 47.2174 97.0581 48.0449C97.0581 48.9084 96.7553 49.6467 96.1503 50.26C95.4744 50.9379 94.595 51.2802 93.5113 51.2874C92.2936 51.2802 91.2347 50.9236 90.334 50.2176C90.0525 49.9889 89.9397 49.6971 89.9964 49.3405C90.0369 49.0975 90.1496 48.9012 90.3326 48.7509Z" fill="black"/>
<path d="M100.013 40.5859C100.379 40.5859 100.657 40.7427 100.847 41.0568C100.945 41.2208 100.994 41.3955 100.994 41.581V50.2916C100.994 50.6554 100.843 50.9372 100.54 51.1371C100.372 51.2298 100.196 51.2794 100.013 51.2866C99.6539 51.2866 99.3759 51.1299 99.1788 50.8157C99.0802 50.6518 99.0312 50.4771 99.0312 50.2916V41.5817C99.0312 41.2179 99.1859 40.9361 99.4958 40.7362C99.6575 40.6363 99.8298 40.5859 100.013 40.5859Z" fill="black"/>
</svg>
