<svg width="632" height="118" viewBox="0 0 632 118" fill="none" xmlns="http://www.w3.org/2000/svg">
<path d="M387.756 0.954102H354.217V117.035H387.756V0.954102Z" fill="white"/>
<path d="M632 0.954102H598.461V117.035H632V0.954102Z" fill="white"/>
<path d="M317.315 90.4139C316.175 104.236 312.661 115.743 307.808 115.743H177.516C174.583 108.564 182.241 93.2761 189.432 90.4139C190.201 90.1114 190.957 89.9485 191.702 89.9485H280.716V71.8913H186.535C176.608 71.8913 172.791 51.2743 174.921 43.5139H302.641C315.314 43.5139 319.014 69.5992 317.304 90.4139H317.315Z" fill="white"/>
<path d="M137.692 117.034H12.5557C5.21251 117.034 1.44203 106.726 0.80198 100.42C0.58087 98.2789 0.324838 94.707 0.173552 90.4138C-0.385041 74.1599 0.743764 47.3882 12.5557 47.3882H111.892C114.86 54.7879 104.13 70.5997 97.6946 70.5997H31.9086L32.2694 87.0164L35.6791 90.4138L36.1446 90.8791L125.543 91.7867C134.911 96.3708 138.065 107.331 137.692 117.046V117.034Z" fill="white"/>
<path d="M133.817 0.954102C143.162 3.73482 132.467 29.3314 120.911 29.3314H0.929971C-2.88708 20.3028 5.67802 0.954102 15.1159 0.954102H133.805H133.817Z" fill="white"/>
<mask id="mask0_3054_6466" style="mask-type:luminance" maskUnits="userSpaceOnUse" x="354" y="0" width="34" height="118">
<path d="M387.757 0.953613H354.218V117.034H387.757V0.953613Z" fill="white"/>
</mask>
<g mask="url(#mask0_3054_6466)">
<path opacity="0.11" d="M387.757 87.0286H354.218V117.035H387.757V87.0286Z" fill="white"/>
<path opacity="0.5" d="M380.89 47.8885V45.9339C380.89 44.7238 379.948 43.7581 378.749 43.7232L378.714 38.2432C378.889 33.5311 378.4 27.6439 378.4 27.6439C377.911 22.6758 374.49 18.3361 374.49 18.3361C373.675 16.7886 369.207 13.3098 369.207 13.3098C364.749 8.98166 364.866 3.80417 364.866 3.80417L364.703 -4.20059H364.552C365.855 -4.20059 366.902 -5.27099 366.902 -6.57409V-8.49384C366.902 -9.79694 365.843 -10.8557 364.528 -10.8557H363.434C362.131 -10.8557 361.072 -9.79694 361.072 -8.49384V-6.57409C361.072 -5.31753 362.05 -4.28203 363.295 -4.21223L363.434 2.68723C363.562 7.30625 364.726 9.20272 364.726 9.20272C366.937 14.1708 370.801 16.4629 370.801 16.4629C373.71 18.7665 375.293 22.3268 375.293 22.3268C376.957 25.317 377.201 29.9011 377.201 29.9011L377.364 43.7349C376.154 43.7698 375.2 44.7471 375.2 45.9455V47.9001C375.2 49.1334 376.189 50.1108 377.411 50.1108H378.644C379.878 50.1108 380.855 49.1218 380.855 47.9001L380.89 47.8885Z" fill="#111F3B"/>
</g>
<mask id="mask1_3054_6466" style="mask-type:luminance" maskUnits="userSpaceOnUse" x="598" y="0" width="35" height="118">
<path d="M632.001 0.953613H598.462V117.034H632.001V0.953613Z" fill="white"/>
</mask>
<g mask="url(#mask1_3054_6466)">
<path opacity="0.11" d="M632.001 87.0276H598.462V117.034H632.001V87.0276Z" fill="white"/>
<path opacity="0.5" d="M627.615 121.863V120.048C627.615 118.931 626.73 118.023 625.625 117.988L625.59 112.892C625.753 108.506 625.299 103.026 625.299 103.026C624.845 98.4067 621.656 94.3578 621.656 94.3578C620.9 92.9267 616.745 89.6806 616.745 89.6806C612.602 85.655 612.707 80.8382 612.707 80.8382L612.556 73.3919H612.416C613.627 73.3919 614.604 72.3913 614.604 71.1929V69.4011C614.604 68.1911 613.627 67.2021 612.405 67.2021H611.381C610.17 67.2021 609.181 68.1795 609.181 69.4011V71.1929C609.181 72.368 610.089 73.3221 611.253 73.3919L611.381 79.8143C611.497 84.1076 612.579 85.876 612.579 85.876C614.639 90.4951 618.235 92.6242 618.235 92.6242C620.947 94.765 622.413 98.081 622.413 98.081C623.961 100.862 624.193 105.132 624.193 105.132L624.345 118C623.227 118.035 622.331 118.942 622.331 120.059V121.874C622.331 123.014 623.251 123.934 624.391 123.934H625.543C626.684 123.934 627.603 123.014 627.603 121.874L627.615 121.863Z" fill="#111F3B"/>
</g>
<mask id="mask2_3054_6466" style="mask-type:luminance" maskUnits="userSpaceOnUse" x="174" y="43" width="144" height="73">
<path d="M317.316 90.4141C316.175 104.236 312.661 115.743 307.808 115.743H177.516C174.583 108.564 182.241 93.2763 189.433 90.4141C190.201 90.1116 190.957 89.9487 191.702 89.9487H280.716V71.8915H186.535C176.608 71.8915 172.791 51.2746 174.921 43.5142H302.641C315.314 43.5142 319.015 69.5994 317.304 90.4141H317.316Z" fill="white"/>
</mask>
<g mask="url(#mask2_3054_6466)">
<path opacity="0.11" d="M188.129 86.97H319.143C317.979 102.677 314.371 115.755 309.402 115.755H175.91C172.896 107.61 180.751 90.2394 188.129 86.97Z" fill="white"/>
<path opacity="0.5" d="M251.494 53.7294H249.469C248.119 53.7294 247.037 54.8114 247.037 56.1494V55.7422H192.353C191.34 55.812 190.014 55.5677 190.014 55.5677C188.222 55.3466 186.732 54.125 186.732 54.125C186.371 54.0784 183.089 50.6229 183.089 50.6229L178.97 46.4925C175.385 43.6304 172.569 43.7816 172.569 43.7816H153.565V43.991C153.565 42.7345 152.553 41.7339 151.319 41.7339H148.945C147.7 41.7339 146.699 42.7461 146.699 43.991V46.3529C146.699 47.6095 147.712 48.6101 148.945 48.6101H151.319C152.565 48.6101 153.565 47.5978 153.565 46.3529H172.569V46.3296L174.885 46.923C176.666 47.5164 179.121 50.2739 179.982 51.1814C180.843 52.1005 183.089 54.3344 183.089 54.3344C184.87 56.545 187.919 57.6852 187.919 57.6852C189.862 58.3833 192.33 58.3368 192.33 58.3368H247.013V58.1623C247.013 59.5003 248.096 60.5823 249.446 60.5823H251.471C252.809 60.5823 253.903 59.5003 253.903 58.1623V56.1262C253.903 54.7882 252.809 53.7061 251.471 53.7061L251.494 53.7294Z" fill="#111F3B"/>
<path opacity="0.5" d="M322.168 101.653H319.701C318.048 101.653 316.698 103.003 316.698 104.667V104.76H287.838C287.838 103.038 286.441 101.653 284.73 101.653H281.961C280.238 101.653 278.854 103.049 278.854 104.76V107.04C278.854 108.762 280.25 110.147 281.961 110.147H284.73C286.453 110.147 287.838 108.751 287.838 107.04V107.215H316.698C316.745 108.844 318.071 110.147 319.701 110.147H322.168C323.844 110.147 325.182 108.797 325.182 107.145V104.678C325.182 103.003 323.832 101.665 322.168 101.665V101.653Z" fill="#111F3B"/>
</g>
<path d="M311.671 2.24512C314.01 9.76121 308.831 28.0395 300.057 28.0395H174.92C172.36 21.8033 177.271 2.24512 183.951 2.24512H311.671Z" fill="white"/>
<mask id="mask3_3054_6466" style="mask-type:luminance" maskUnits="userSpaceOnUse" x="0" y="47" width="138" height="71">
<path d="M137.692 117.035H12.5557C5.21251 117.035 1.44203 106.726 0.80198 100.42C0.58087 98.2794 0.324838 94.7075 0.173552 90.4142C-0.385041 74.1604 0.743764 47.3887 12.5557 47.3887H111.892C114.86 54.7884 104.13 70.6001 97.6946 70.6001H31.9086L32.2694 87.0169L35.6791 90.4142L36.1446 90.8796L125.543 91.7871C134.911 96.3713 138.065 107.331 137.692 117.046V117.035Z" fill="white"/>
</mask>
<g mask="url(#mask3_3054_6466)">
<path opacity="0.11" d="M144.931 117.035H11.3224C3.47877 117.035 -0.547758 105.482 -1.22273 98.4077C-1.45547 96.0109 -1.73475 92.0086 -1.89768 87.2034H36.0168L36.5056 87.7153L131.967 88.7275C141.963 93.8701 145.338 106.156 144.931 117.035Z" fill="white"/>
</g>
<mask id="mask4_3054_6466" style="mask-type:luminance" maskUnits="userSpaceOnUse" x="0" y="0" width="138" height="30">
<path d="M133.817 0.953613C143.162 3.73434 132.467 29.3309 120.911 29.3309H0.929971C-2.88708 20.3023 5.67802 0.953613 15.1159 0.953613H133.805H133.817Z" fill="white"/>
</mask>
<g mask="url(#mask4_3054_6466)">
<path opacity="0.5" d="M147.514 15.9508H145.931C144.884 15.9508 144.035 16.8001 144.035 17.8356V17.5215H101.349C100.557 17.5796 99.5333 17.3935 99.5333 17.3935C98.1368 17.2189 96.973 16.2649 96.973 16.2649C96.6937 16.23 94.1335 13.5307 94.1335 13.5307L90.9216 10.3079C88.1286 8.07397 85.9292 8.19032 85.9292 8.19032H71.0915V8.35321C71.0915 7.37588 70.3002 6.58472 69.3343 6.58472H67.484C66.5181 6.58472 65.7267 7.37588 65.7267 8.35321V10.2031C65.7267 11.1805 66.5181 11.9716 67.484 11.9716H69.3343C70.3002 11.9716 71.0915 11.1805 71.0915 10.2031H85.9292L87.733 10.6453C89.1294 11.1107 91.038 13.2631 91.713 13.9728C92.3879 14.6942 94.1335 16.4278 94.1335 16.4278C95.53 18.1614 97.904 19.0456 97.904 19.0456C99.4169 19.5924 101.349 19.5459 101.349 19.5459H144.035V19.4179C144.035 20.4651 144.884 21.3028 145.931 21.3028H147.514C148.561 21.3028 149.411 20.4534 149.411 19.4179V17.824C149.411 16.7768 148.561 15.9391 147.514 15.9391V15.9508Z" fill="#111F3B"/>
<path opacity="0.5" d="M27.3586 16.4861H25.4035C24.0885 16.4861 23.0179 17.5565 23.0179 18.8829V18.9527H0.138832C0.138832 17.5914 -0.966712 16.4861 -2.32828 16.4861H-4.51611C-5.87768 16.4861 -6.98323 17.5914 -6.98323 18.9527V20.7561C-6.98323 22.1173 -5.87768 23.2226 -4.51611 23.2226H-2.32828C-0.966712 23.2226 0.138832 22.1173 0.138832 20.7561V20.8957H23.0179C23.0528 22.1871 24.1118 23.2226 25.4035 23.2226H27.3586C28.6853 23.2226 29.7559 22.1522 29.7559 20.8375V18.8829C29.7559 17.5565 28.6853 16.4861 27.3586 16.4861Z" fill="#111F3B"/>
</g>
<path d="M515.651 81.0949L430.104 81.7813C426.753 81.8046 424.146 79.3148 424.286 76.2199L427.451 6.42257C427.591 3.26954 430.453 0.83786 433.817 0.989112L519.863 4.8286C521.341 4.89841 522.645 5.53832 523.564 6.52728C524.483 7.51624 525.054 8.91242 524.961 10.4017L521.318 75.7778C521.155 78.6865 518.618 81.06 515.651 81.0832V81.0949Z" fill="#265FA2"/>
<path d="M558.441 111.868L470.392 116.755C466.75 116.953 462.584 116.417 461.118 115.557L427.392 95.6144C425.833 94.6953 427.8 93.8576 431.733 93.7528L526.554 91.2165C529.662 91.135 533.164 91.7284 534.41 92.5312L561.525 110.181C562.712 110.949 561.339 111.705 558.441 111.868Z" fill="#265FA2"/>
</svg>
