<svg width="59" height="59" viewBox="0 0 59 59" fill="none" xmlns="http://www.w3.org/2000/svg">
<path d="M28.4607 51.8441H28.3638C16.2476 51.8441 6.3901 41.9866 6.3901 29.8704V29.7735C6.3901 17.6574 16.2476 7.7998 28.3638 7.7998H28.4607C40.5769 7.7998 50.4344 17.6574 50.4344 29.7735V29.8704C50.4344 41.9866 40.5769 51.8441 28.4607 51.8441ZM28.3638 9.29066C17.0691 9.29066 7.88095 18.4788 7.88095 29.7735V29.8704C7.88095 41.1651 17.0691 50.3532 28.3638 50.3532H28.4607C39.7554 50.3532 48.9435 41.1651 48.9435 29.8704V29.7735C48.9435 18.4788 39.7554 9.29066 28.4607 9.29066H28.3638Z" fill="#ECF1FC"/>
<path d="M14.3413 54.551C14.5602 54.173 14.9098 53.9176 15.2888 53.8035C15.6636 53.6985 16.0839 53.7006 16.4489 53.891C16.6216 53.9785 16.7657 54.0996 16.8881 54.2374C17.0111 54.3704 17.1097 54.5272 17.179 54.6987C17.3181 55.0402 17.3461 55.4398 17.2265 55.8206C20.3725 57.1959 23.7744 57.9741 27.205 58.1225C28.921 58.2016 30.6433 58.1127 32.3418 57.8713C34.0411 57.6291 35.7186 57.2309 37.3437 56.6821C40.5974 55.5847 43.642 53.8777 46.2817 51.6786C48.9242 49.4838 51.1507 46.7899 52.8219 43.7895C52.659 43.674 52.5248 43.5326 52.4192 43.3772C52.315 43.2212 52.2374 43.049 52.1849 42.8684C52.0835 42.5087 52.1052 42.1265 52.28 41.785C52.4597 41.4141 52.766 41.146 53.145 41.0102C53.3338 40.9416 53.5366 40.9073 53.7429 40.9087C53.9485 40.9101 54.1554 40.9486 54.3568 41.0333C54.5582 41.118 54.7344 41.2405 54.8771 41.3903C55.0169 41.5393 55.1253 41.7157 55.1953 41.9103C55.3323 42.2959 55.3281 42.7571 55.1281 43.1729C54.9323 43.5578 54.6149 43.8385 54.2582 43.9784C54.082 44.0491 53.889 44.0841 53.6946 44.0799C53.5016 44.0771 53.3086 44.0365 53.124 43.9589C51.4325 46.9971 49.1788 49.7238 46.5027 51.9467C43.8308 54.1716 40.7484 55.9011 37.4535 57.0125C35.8074 57.5682 34.1089 57.9713 32.3894 58.217C30.6685 58.4627 28.9252 58.5515 27.189 58.4711C23.7164 58.3213 20.2718 57.5332 17.086 56.1404C16.8881 56.4862 16.5699 56.729 16.1965 56.8389C16.0105 56.8942 15.8105 56.9152 15.6084 56.9012C15.4084 56.8837 15.2084 56.8207 15.0168 56.7234C14.6078 56.5114 14.312 56.1705 14.1966 55.7639C14.077 55.3636 14.119 54.9303 14.3385 54.5524L14.3413 54.551ZM53.1422 43.5795C53.7387 43.9106 54.4925 43.6586 54.819 43.0196C54.9757 42.6991 54.9771 42.3421 54.8687 42.0405C54.7589 41.7381 54.533 41.4861 54.2205 41.3518C53.9086 41.2167 53.5667 41.2181 53.273 41.3238C52.9772 41.4295 52.7366 41.6436 52.5926 41.9348C52.2968 42.5115 52.5443 43.2492 53.1408 43.5795H53.1422ZM14.642 54.7246C14.4742 55.022 14.4448 55.3622 14.5378 55.675C14.6336 55.9809 14.8588 56.2489 15.1763 56.4127C15.335 56.4932 15.5014 56.5401 15.6664 56.5541C15.8315 56.5653 15.9979 56.5373 16.151 56.4848C16.4559 56.3763 16.7118 56.153 16.8517 55.8416C16.9916 55.5301 16.993 55.1914 16.8909 54.8981C16.8391 54.7511 16.7601 54.6189 16.6601 54.4999C16.5615 54.3788 16.4384 54.2759 16.2937 54.2024C16.0035 54.0527 15.6762 54.0443 15.3763 54.1387C15.0805 54.2276 14.8098 54.4285 14.6434 54.726L14.642 54.7246Z" fill="#ECF1FC"/>
<mask id="mask0_3054_6570" style="mask-type:luminance" maskUnits="userSpaceOnUse" x="0" y="4" width="15" height="44">
<path d="M0.0901031 4.8833H14.6167V47.7053H0.0901031V4.8833Z" fill="white"/>
</mask>
<g mask="url(#mask0_3054_6570)">
<path d="M14.3412 5.79267C14.5587 6.17201 14.6063 6.60244 14.5147 6.98598C14.423 7.36952 14.2091 7.73066 13.8608 7.95043C13.5329 8.15059 13.1665 8.23668 12.7987 8.18349C12.4322 8.1324 12.0714 7.95602 11.8008 7.66277C9.0408 9.70715 6.6605 12.2617 4.81723 15.1614C2.97117 18.0575 1.66704 21.298 0.992248 24.6687C0.649608 26.3519 0.480386 28.0702 0.458009 29.787C0.437031 31.5059 0.569192 33.2255 0.85729 34.9186C1.43209 38.3053 2.63692 41.5878 4.41026 44.5316C4.59067 44.4483 4.78087 44.4021 4.96827 44.3888C5.15847 44.3734 5.35007 44.3888 5.53048 44.4357C5.8927 44.5274 6.20807 44.7401 6.41855 45.0621C6.6577 45.398 6.72833 45.804 6.6577 46.2001C6.61994 46.3982 6.55211 46.5899 6.45072 46.7663C6.34793 46.9434 6.21087 47.1044 6.03605 47.2359C5.86194 47.3696 5.66964 47.4599 5.46685 47.5096C5.26406 47.56 5.05428 47.5684 4.85499 47.5306C4.45082 47.4585 4.06203 47.2191 3.79561 46.8419C3.55855 46.4822 3.47814 46.0636 3.53478 45.6829C3.56415 45.4925 3.62638 45.3105 3.72358 45.1468C3.82358 44.9802 3.95364 44.8332 4.11377 44.7121C2.31876 41.7327 1.09784 38.4082 0.516048 34.9802C0.224454 33.2654 0.0915939 31.5234 0.112572 29.7856C0.134249 28.0471 0.306268 26.3078 0.653804 24.6029C1.33629 21.1916 2.6579 17.9106 4.52704 14.978C6.39408 12.0427 8.80305 9.45729 11.5973 7.38771C11.3973 7.04337 11.3456 6.64723 11.4372 6.26929C11.5302 5.89555 11.7567 5.52881 12.1246 5.30274C12.5148 5.05498 12.9574 4.9717 13.3637 5.06758C13.7706 5.16486 14.1245 5.41752 14.3433 5.79686L14.3412 5.79267ZM4.43543 44.9095C3.85295 45.2622 3.68862 46.044 4.08161 46.6459C4.49627 47.2317 5.27945 47.3724 5.82348 46.9595C6.36751 46.5472 6.50596 45.783 6.13046 45.2552C5.77733 44.7121 5.02142 44.5554 4.43543 44.9095ZM14.0413 5.96624C13.8678 5.67508 13.5846 5.47212 13.2721 5.40563C12.9616 5.33844 12.614 5.39583 12.3134 5.589C12.0092 5.77657 11.826 6.08172 11.7665 6.40017C11.7064 6.71792 11.7735 7.05037 11.9728 7.32682C12.1728 7.60328 12.4658 7.77545 12.7714 7.83214C13.0763 7.88884 13.393 7.82934 13.6706 7.65857C13.9455 7.4822 14.1189 7.20574 14.1853 6.89709C14.251 6.58914 14.2161 6.26089 14.0399 5.96484L14.0413 5.96624Z" fill="#ECF1FC"/>
</g>
<mask id="mask1_3054_6570" style="mask-type:luminance" maskUnits="userSpaceOnUse" x="24" y="0" width="35" height="31">
<path d="M24.6415 0.5H58.0902V30.3258H24.6415V0.5Z" fill="white"/>
</mask>
<g mask="url(#mask1_3054_6570)">
<path d="M56.5314 30.172C56.0944 30.172 55.6944 29.9957 55.4 29.7248C55.1035 29.454 54.9252 29.0858 54.9035 28.675C54.8741 28.2914 55.0021 27.9303 55.2336 27.637C55.4713 27.3438 55.7888 27.1233 56.179 27.0358C55.8112 23.6183 54.7783 20.2777 53.1882 17.2339C51.5974 14.1887 49.4422 11.4409 46.8647 9.17116C44.2887 6.90001 41.2965 5.1013 38.0722 3.91358C34.85 2.72587 31.4061 2.15336 27.9741 2.20376C27.9363 2.60059 27.7559 2.95894 27.4965 3.21929C27.3664 3.34947 27.2147 3.45516 27.0483 3.53005C26.8818 3.61193 26.7014 3.66652 26.5098 3.67982C26.3042 3.69522 26.1049 3.66652 25.9189 3.59933C25.8259 3.56644 25.7357 3.52305 25.6497 3.47335C25.563 3.42716 25.4826 3.37187 25.4064 3.30958C25.1029 3.05902 24.8777 2.68668 24.8225 2.25345C24.7665 1.82022 24.8959 1.40308 25.1609 1.08113C25.2274 1.00064 25.3008 0.925757 25.3826 0.857167C25.4651 0.792078 25.5553 0.738186 25.6511 0.689194C25.842 0.593309 26.0574 0.532419 26.2881 0.515621C26.5028 0.500224 26.7098 0.521221 26.9014 0.579311C27.093 0.645101 27.2678 0.742386 27.4189 0.865566C27.7202 1.11193 27.9202 1.46047 27.9699 1.85591C31.4438 1.80482 34.9304 2.38573 38.1932 3.58744C41.4559 4.78845 44.4872 6.60956 47.0934 8.9101C49.7017 11.2092 51.8848 13.9906 53.4945 17.0729C55.1049 20.1552 56.151 23.5364 56.523 26.9966C56.9202 26.9966 57.3041 27.1492 57.5747 27.4187C57.8495 27.6867 58.0341 28.0689 58.0663 28.4986C58.0929 28.9598 57.9152 29.3861 57.639 29.6891C57.36 29.9929 56.967 30.172 56.5314 30.172ZM27.6342 2.03788C27.6258 1.69634 27.4769 1.39118 27.2371 1.17282C27.1175 1.06573 26.9748 0.972649 26.8182 0.921557C26.6609 0.869765 26.4888 0.848069 26.3112 0.861367C25.956 0.887963 25.6455 1.05174 25.4385 1.2925C25.2316 1.54516 25.1274 1.86991 25.1665 2.20935C25.205 2.5481 25.3777 2.83855 25.6148 3.03452C25.8546 3.24099 26.1602 3.35787 26.4846 3.33268C26.6476 3.32008 26.8 3.27459 26.9385 3.2011C27.0776 3.12761 27.2014 3.03872 27.3049 2.92184C27.5133 2.69228 27.6426 2.37873 27.6328 2.03788H27.6342ZM56.5216 29.8249C56.8629 29.8207 57.1684 29.6779 57.3866 29.44C57.6013 29.2041 57.7418 28.8744 57.7181 28.5175C57.6635 27.8008 57.067 27.2787 56.3881 27.3508C55.7098 27.4243 55.1979 28.0094 55.2461 28.6554C55.2685 28.9801 55.4042 29.2706 55.6363 29.4834C55.865 29.694 56.179 29.8277 56.5202 29.8249H56.5216Z" fill="#ECF1FC"/>
</g>
<path d="M28.4028 54.3607C15.0775 54.3607 4.23543 43.5103 4.23543 30.1718C4.23543 16.8333 15.0775 5.98291 28.4028 5.98291C41.728 5.98291 52.5701 16.8333 52.5701 30.1718C52.5701 43.5103 41.7294 54.3607 28.4028 54.3607ZM28.4028 6.33146C15.2677 6.33146 4.58296 17.0265 4.58296 30.1732C4.58296 43.3199 15.2677 54.0149 28.4028 54.0149C41.5378 54.0149 52.2232 43.3199 52.2232 30.1732C52.2232 17.0265 41.5378 6.33006 28.4028 6.33006V6.33146Z" fill="#ECF1FC"/>
<path d="M30.6125 27.0099V31.4752H36.1364L35.2617 37.4903H30.6125V51.3489C29.6804 51.4782 28.7267 51.5457 27.7586 51.5457C26.6412 51.5457 25.5439 51.4566 24.4753 51.2843V37.4903H19.3809V31.4752H24.4753V26.0117C24.4753 22.6221 27.2229 19.873 30.6139 19.873V19.8759C30.624 19.8759 30.6326 19.873 30.6427 19.873H36.1378V25.0752H32.5472C31.48 25.0752 30.6139 25.9413 30.6139 27.0084L30.6125 27.0099Z" fill="#ECF1FC"/>
</svg>
