<svg width="59" height="58" viewBox="0 0 59 58" fill="none" xmlns="http://www.w3.org/2000/svg">
<path d="M28.4607 51.3441H28.3638C16.2477 51.3441 6.39014 41.4866 6.39014 29.3704V29.2735C6.39014 17.1574 16.2477 7.2998 28.3638 7.2998H28.4607C40.5769 7.2998 50.4344 17.1574 50.4344 29.2735V29.3704C50.4344 41.4866 40.5769 51.3441 28.4607 51.3441ZM28.3638 8.79066C17.0691 8.79066 7.88099 17.9788 7.88099 29.2735V29.3704C7.88099 40.6651 17.0691 49.8532 28.3638 49.8532H28.4607C39.7554 49.8532 48.9436 40.6651 48.9436 29.3704V29.2735C48.9436 17.9788 39.7554 8.79066 28.4607 8.79066H28.3638Z" fill="#4176DE"/>
<path d="M14.3412 54.051C14.5601 53.673 14.9097 53.4176 15.2887 53.3035C15.6635 53.1985 16.0838 53.2006 16.4488 53.391C16.6215 53.4785 16.7656 53.5996 16.8879 53.7374C17.011 53.8704 17.1096 54.0272 17.1788 54.1987C17.318 54.5402 17.3459 54.9398 17.2264 55.3206C20.3724 56.6959 23.7743 57.4741 27.2049 57.6225C28.9209 57.7016 30.6432 57.6127 32.3417 57.3713C34.0409 57.1291 35.7185 56.7309 37.3436 56.1821C40.5972 55.0847 43.6418 53.3777 46.2816 51.1786C48.9241 48.9838 51.1506 46.2899 52.8218 43.2895C52.6589 43.174 52.5246 43.0326 52.419 42.8772C52.3148 42.7212 52.2372 42.549 52.1848 42.3684C52.0834 42.0087 52.1051 41.6265 52.2799 41.285C52.4596 40.9141 52.7659 40.646 53.1449 40.5102C53.3337 40.4416 53.5365 40.4073 53.7427 40.4087C53.9483 40.4101 54.1553 40.4486 54.3567 40.5333C54.5581 40.618 54.7343 40.7405 54.8769 40.8903C55.0168 41.0393 55.1252 41.2157 55.1951 41.4103C55.3322 41.7959 55.328 42.2571 55.128 42.6729C54.9322 43.0578 54.6147 43.3385 54.2581 43.4784C54.0819 43.5491 53.8889 43.5841 53.6945 43.5799C53.5015 43.5771 53.3085 43.5365 53.1239 43.4589C51.4324 46.4971 49.1786 49.2238 46.5025 51.4467C43.8306 53.6716 40.7483 55.4011 37.4533 56.5125C35.8073 57.0682 34.1087 57.4713 32.3893 57.717C30.6684 57.9627 28.9251 58.0515 27.1888 57.9711C23.7163 57.8213 20.2717 57.0332 17.0858 55.6404C16.8879 55.9862 16.5698 56.229 16.1964 56.3389C16.0103 56.3942 15.8104 56.4152 15.6083 56.4012C15.4083 56.3837 15.2083 56.3207 15.0167 56.2234C14.6076 56.0114 14.3118 55.6705 14.1965 55.2639C14.0769 54.8636 14.1188 54.4303 14.3384 54.0524L14.3412 54.051ZM53.1421 43.0795C53.7385 43.4106 54.4924 43.1586 54.8189 42.5196C54.9755 42.1991 54.9769 41.8421 54.8686 41.5405C54.7588 41.2381 54.5329 40.9861 54.2203 40.8518C53.9085 40.7167 53.5665 40.7181 53.2728 40.8238C52.977 40.9295 52.7365 41.1436 52.5924 41.4348C52.2967 42.0115 52.5442 42.7492 53.1407 43.0795H53.1421ZM14.6419 54.2246C14.4741 54.522 14.4447 54.8622 14.5377 55.175C14.6335 55.4809 14.8587 55.7489 15.1761 55.9127C15.3349 55.9932 15.5013 56.0401 15.6663 56.0541C15.8313 56.0653 15.9978 56.0373 16.1509 55.9848C16.4558 55.8763 16.7117 55.653 16.8516 55.3416C16.9914 55.0301 16.9928 54.6914 16.8907 54.3981C16.839 54.2511 16.76 54.1189 16.66 53.9999C16.5614 53.8788 16.4383 53.7759 16.2936 53.7024C16.0034 53.5527 15.6761 53.5443 15.3761 53.6387C15.0803 53.7276 14.8097 53.9285 14.6433 54.226L14.6419 54.2246Z" fill="#4176DE"/>
<mask id="mask0_3054_6420" style="mask-type:luminance" maskUnits="userSpaceOnUse" x="0" y="4" width="15" height="44">
<path d="M0.0900879 4.3833H14.6166V47.2053H0.0900879V4.3833Z" fill="white"/>
</mask>
<g mask="url(#mask0_3054_6420)">
<path d="M14.3412 5.29267C14.5586 5.67201 14.6062 6.10244 14.5146 6.48598C14.423 6.86952 14.209 7.23066 13.8608 7.45043C13.5328 7.65059 13.1664 7.73668 12.7986 7.68349C12.4322 7.6324 12.0713 7.45602 11.8007 7.16277C9.04072 9.20715 6.66042 11.7617 4.81716 14.6614C2.97109 17.5575 1.66696 20.798 0.992172 24.1687C0.649532 25.8519 0.480309 27.5702 0.457933 29.287C0.436955 31.0059 0.569116 32.7255 0.857214 34.4186C1.43201 37.8053 2.63685 41.0878 4.41018 44.0316C4.59059 43.9483 4.7808 43.9021 4.9682 43.8888C5.1584 43.8734 5.35 43.8888 5.53041 43.9357C5.89263 44.0274 6.208 44.2401 6.41848 44.5621C6.65763 44.898 6.72825 45.304 6.65763 45.7001C6.61986 45.8982 6.55204 46.0899 6.45064 46.2663C6.34785 46.4434 6.21079 46.6044 6.03598 46.7359C5.86186 46.8696 5.66956 46.9599 5.46677 47.0096C5.26399 47.06 5.05421 47.0684 4.85492 47.0306C4.45074 46.9585 4.06195 46.7191 3.79553 46.3419C3.55848 45.9822 3.47806 45.5636 3.5347 45.1829C3.56407 44.9925 3.62631 44.8105 3.72351 44.6468C3.8235 44.4802 3.95356 44.3332 4.1137 44.2121C2.31868 41.2327 1.09776 37.9082 0.515972 34.4802C0.224378 32.7654 0.0915176 31.0234 0.112495 29.2856C0.134173 27.5471 0.306192 25.8078 0.653727 24.1029C1.33621 20.6916 2.65782 17.4106 4.52696 14.478C6.394 11.5427 8.80297 8.95729 11.5972 6.88771C11.3973 6.54337 11.3455 6.14723 11.4371 5.76929C11.5301 5.39555 11.7567 5.02881 12.1245 4.80274C12.5147 4.55498 12.9573 4.4717 13.3636 4.56758C13.7706 4.66486 14.1244 4.91752 14.3433 5.29686L14.3412 5.29267ZM4.43536 44.4095C3.85287 44.7622 3.68854 45.544 4.08153 46.1459C4.49619 46.7317 5.27937 46.8724 5.8234 46.4595C6.36743 46.0472 6.50588 45.283 6.13038 44.7552C5.77725 44.2121 5.02134 44.0554 4.43536 44.4095ZM14.0412 5.46624C13.8678 5.17508 13.5846 4.97212 13.272 4.90563C12.9615 4.83844 12.614 4.89583 12.3133 5.089C12.0091 5.27657 11.8259 5.58172 11.7665 5.90017C11.7063 6.21792 11.7735 6.55037 11.9727 6.82682C12.1727 7.10328 12.4657 7.27545 12.7713 7.33214C13.0762 7.38884 13.393 7.32934 13.6706 7.15857C13.9454 6.9822 14.1188 6.70574 14.1852 6.39709C14.251 6.08914 14.216 5.76089 14.0398 5.46484L14.0412 5.46624Z" fill="#4176DE"/>
</g>
<mask id="mask1_3054_6420" style="mask-type:luminance" maskUnits="userSpaceOnUse" x="24" y="0" width="35" height="30">
<path d="M24.6416 0H58.0903V29.8258H24.6416V0Z" fill="white"/>
</mask>
<g mask="url(#mask1_3054_6420)">
<path d="M56.5316 29.672C56.0945 29.672 55.6945 29.4957 55.4002 29.2248C55.1037 28.954 54.9254 28.5858 54.9037 28.175C54.8743 27.7914 55.0023 27.4303 55.2337 27.137C55.4715 26.8438 55.7889 26.6233 56.1791 26.5358C55.8113 23.1183 54.7785 19.7777 53.1884 16.7339C51.5975 13.6887 49.4424 10.9409 46.8649 8.67116C44.2888 6.40001 41.2967 4.6013 38.0723 3.41358C34.8501 2.22587 31.4062 1.65336 27.9742 1.70376C27.9365 2.10059 27.7561 2.45894 27.4966 2.71929C27.3666 2.84947 27.2148 2.95516 27.0484 3.03005C26.882 3.11193 26.7016 3.16652 26.51 3.17982C26.3044 3.19522 26.1051 3.16652 25.9191 3.09933C25.8261 3.06644 25.7359 3.02305 25.6499 2.97335C25.5632 2.92716 25.4828 2.87187 25.4065 2.80958C25.1031 2.55902 24.8779 2.18668 24.8227 1.75345C24.7667 1.32022 24.8961 0.903081 25.1611 0.581132C25.2275 0.500645 25.301 0.425757 25.3828 0.357167C25.4653 0.292078 25.5555 0.238186 25.6513 0.189194C25.8422 0.0933091 26.0576 0.0324187 26.2883 0.0156214C26.503 0.000223711 26.71 0.0212206 26.9016 0.0793113C27.0932 0.145101 27.268 0.242386 27.419 0.365566C27.7204 0.611927 27.9204 0.960472 27.9701 1.35591C31.444 1.30482 34.9305 1.88573 38.1933 3.08744C41.4561 4.28845 44.4874 6.10956 47.0936 8.4101C49.7018 10.7092 51.8849 13.4906 53.4947 16.5729C55.1051 19.6552 56.1512 23.0364 56.5232 26.4966C56.9204 26.4966 57.3043 26.6492 57.5749 26.9187C57.8497 27.1867 58.0343 27.5689 58.0665 27.9986C58.093 28.4598 57.9154 28.8861 57.6392 29.1891C57.3602 29.4929 56.9672 29.672 56.5316 29.672ZM27.6344 1.53788C27.626 1.19634 27.4771 0.891183 27.2372 0.672818C27.1176 0.565735 26.975 0.472649 26.8184 0.421557C26.661 0.369765 26.489 0.348069 26.3114 0.361367C25.9562 0.387963 25.6457 0.551737 25.4387 0.792499C25.2317 1.04516 25.1275 1.36991 25.1667 1.70935C25.2052 2.0481 25.3779 2.33855 25.6149 2.53452C25.8548 2.74099 26.1604 2.85787 26.4848 2.83268C26.6477 2.82008 26.8002 2.77459 26.9386 2.7011C27.0778 2.62761 27.2016 2.53872 27.3051 2.42184C27.5134 2.19228 27.6428 1.87873 27.633 1.53788H27.6344ZM56.5218 29.3249C56.863 29.3207 57.1686 29.1779 57.3868 28.94C57.6014 28.7041 57.742 28.3744 57.7182 28.0175C57.6637 27.3008 57.0672 26.7787 56.3882 26.8508C55.7099 26.9243 55.1981 27.5094 55.2463 28.1554C55.2687 28.4801 55.4044 28.7706 55.6365 28.9834C55.8652 29.194 56.1791 29.3277 56.5204 29.3249H56.5218Z" fill="#4176DE"/>
</g>
<path d="M28.4027 53.8607C15.0775 53.8607 4.23535 43.0103 4.23535 29.6718C4.23535 16.3333 15.0775 5.48291 28.4027 5.48291C41.7279 5.48291 52.57 16.3333 52.57 29.6718C52.57 43.0103 41.7293 53.8607 28.4027 53.8607ZM28.4027 5.83146C15.2677 5.83146 4.58289 16.5265 4.58289 29.6732C4.58289 42.8199 15.2677 53.5149 28.4027 53.5149C41.5377 53.5149 52.2232 42.8199 52.2232 29.6732C52.2232 16.5265 41.5377 5.83006 28.4027 5.83006V5.83146Z" fill="#4176DE"/>
<path d="M30.6125 26.5099V30.9752H36.1364L35.2617 36.9903H30.6125V50.8489C29.6803 50.9782 28.7267 51.0457 27.7586 51.0457C26.6412 51.0457 25.5439 50.9566 24.4753 50.7843V36.9903H19.3809V30.9752H24.4753V25.5117C24.4753 22.1221 27.2229 19.373 30.6139 19.373V19.3759C30.624 19.3759 30.6326 19.373 30.6427 19.373H36.1378V24.5752H32.5471C31.48 24.5752 30.6139 25.4413 30.6139 26.5084L30.6125 26.5099Z" fill="#4176DE"/>
</svg>
