<svg width="58" height="59" viewBox="0 0 58 59" fill="none" xmlns="http://www.w3.org/2000/svg">
<path d="M28.3706 51.9896H28.2737C16.1576 51.9896 6.30005 42.1321 6.30005 30.0159V29.919C6.30005 17.8029 16.1576 7.94531 28.2737 7.94531H28.3706C40.4868 7.94531 50.3443 17.8029 50.3443 29.919V30.0159C50.3443 42.1321 40.4868 51.9896 28.3706 51.9896ZM28.2737 9.43617C16.979 9.43617 7.7909 18.6243 7.7909 29.919V30.0159C7.7909 41.3106 16.979 50.4988 28.2737 50.4988H28.3706C39.6654 50.4988 48.8535 41.3106 48.8535 30.0159V29.919C48.8535 18.6243 39.6654 9.43617 28.3706 9.43617H28.2737Z" fill="#F8A207"/>
<path d="M14.2512 54.695C14.4701 54.3171 14.8197 54.0616 15.1987 53.9475C15.5735 53.8426 15.9938 53.8447 16.3588 54.035C16.5315 54.1225 16.6756 54.2436 16.798 54.3815C16.921 54.5145 17.0196 54.6712 17.0889 54.8427C17.228 55.1842 17.256 55.5839 17.1364 55.9646C20.2824 57.3399 23.6843 58.1182 27.1149 58.2666C28.8309 58.3456 30.5532 58.2568 32.2517 58.0153C33.951 57.7731 35.6285 57.3749 37.2536 56.8262C40.5073 55.7288 43.5519 54.0217 46.1916 51.8227C48.8341 49.6278 51.0606 46.9339 52.7318 43.9335C52.5689 43.818 52.4347 43.6767 52.3291 43.5213C52.2249 43.3652 52.1473 43.193 52.0948 43.0125C51.9934 42.6527 52.0151 42.2706 52.1899 41.929C52.3696 41.5581 52.6759 41.29 53.0549 41.1543C53.2437 41.0857 53.4465 41.0514 53.6528 41.0528C53.8584 41.0542 54.0653 41.0927 54.2667 41.1774C54.4681 41.262 54.6443 41.3845 54.787 41.5343C54.9268 41.6834 55.0352 41.8597 55.1051 42.0543C55.2422 42.44 55.238 42.9012 55.038 43.3169C54.8422 43.7019 54.5248 43.9825 54.1681 44.1225C53.9919 44.1932 53.7989 44.2282 53.6045 44.224C53.4115 44.2212 53.2185 44.1806 53.0339 44.1029C51.3424 47.1411 49.0887 49.8679 46.4126 52.0907C43.7407 54.3157 40.6583 56.0451 37.3634 57.1565C35.7173 57.7122 34.0188 58.1154 32.2993 58.361C30.5784 58.6067 28.8351 58.6956 27.0988 58.6151C23.6263 58.4653 20.1817 57.6773 16.9959 56.2845C16.798 56.6302 16.4798 56.8731 16.1064 56.983C15.9204 57.0383 15.7204 57.0593 15.5183 57.0453C15.3183 57.0278 15.1183 56.9648 14.9267 56.8675C14.5177 56.6554 14.2219 56.3146 14.1065 55.9079C13.9869 55.5076 14.0289 55.0744 14.2484 54.6964L14.2512 54.695ZM53.0521 43.7236C53.6486 44.0546 54.4024 43.8026 54.7289 43.1636C54.8856 42.8431 54.887 42.4861 54.7786 42.1845C54.6688 41.8821 54.4429 41.6302 54.1304 41.4958C53.8185 41.3607 53.4766 41.3621 53.1829 41.4678C52.8871 41.5735 52.6465 41.7877 52.5025 42.0788C52.2067 42.6555 52.4542 43.3932 53.0507 43.7236H53.0521ZM14.5519 54.8686C14.3841 55.166 14.3547 55.5062 14.4477 55.819C14.5435 56.1249 14.7687 56.393 15.0862 56.5567C15.2449 56.6372 15.4113 56.6841 15.5763 56.6981C15.7414 56.7093 15.9078 56.6813 16.0609 56.6288C16.3658 56.5203 16.6217 56.2971 16.7616 55.9856C16.9015 55.6742 16.9029 55.3354 16.8008 55.0422C16.749 54.8952 16.67 54.7629 16.57 54.6439C16.4714 54.5229 16.3483 54.42 16.2036 54.3465C15.9134 54.1967 15.5861 54.1883 15.2861 54.2828C14.9904 54.3717 14.7197 54.5725 14.5533 54.87L14.5519 54.8686Z" fill="#F8A207"/>
<mask id="mask0_3089_9448" style="mask-type:luminance" maskUnits="userSpaceOnUse" x="0" y="5" width="15" height="43">
<path d="M0 5.02734H14.5266V47.8494H0V5.02734Z" fill="white"/>
</mask>
<g mask="url(#mask0_3089_9448)">
<path d="M14.2511 5.93573C14.4685 6.31507 14.5161 6.7455 14.4245 7.12904C14.3329 7.51258 14.1189 7.87373 13.7707 8.09349C13.4427 8.29366 13.0763 8.37975 12.7085 8.32656C12.3421 8.27546 11.9813 8.09909 11.7106 7.80584C8.95064 9.85021 6.57033 12.4048 4.72707 15.3045C2.88101 18.2006 1.57688 21.4411 0.902084 24.8118C0.559444 26.495 0.390221 28.2132 0.367845 29.93C0.346867 31.649 0.479028 33.3686 0.767126 35.0616C1.34192 38.4484 2.54676 41.7309 4.3201 44.6746C4.50051 44.5913 4.69071 44.5451 4.87811 44.5318C5.06831 44.5164 5.25991 44.5318 5.44032 44.5787C5.80254 44.6704 6.11791 44.8832 6.32839 45.2051C6.56754 45.5411 6.63816 45.947 6.56754 46.3432C6.52978 46.5412 6.46195 46.733 6.36055 46.9094C6.25776 47.0864 6.12071 47.2474 5.94589 47.379C5.77177 47.5127 5.57947 47.603 5.37669 47.6527C5.1739 47.703 4.96412 47.7114 4.76483 47.6737C4.36065 47.6016 3.97186 47.3622 3.70544 46.985C3.46839 46.6252 3.38797 46.2067 3.44462 45.8259C3.47398 45.6356 3.53622 45.4536 3.63342 45.2898C3.73341 45.1233 3.86348 44.9763 4.02361 44.8552C2.22859 41.8758 1.00767 38.5513 0.425884 35.1232C0.13429 33.4085 0.00142969 31.6665 0.0224076 29.9286C0.0440849 28.1901 0.216104 26.4509 0.563639 24.746C1.24612 21.3347 2.56774 18.0536 4.43687 15.1211C6.30391 12.1857 8.71289 9.60035 11.5072 7.53078C11.3072 7.18644 11.2554 6.7903 11.347 6.41236C11.44 6.03862 11.6666 5.67187 12.0344 5.44581C12.4246 5.19805 12.8672 5.11476 13.2735 5.21065C13.6805 5.30793 14.0343 5.56059 14.2532 5.93993L14.2511 5.93573ZM4.34527 45.0526C3.76278 45.4053 3.59845 46.1871 3.99144 46.789C4.40611 47.3748 5.18928 47.5155 5.73331 47.1025C6.27734 46.6903 6.4158 45.926 6.04029 45.3983C5.68716 44.8552 4.93125 44.6984 4.34527 45.0526ZM13.9511 6.1093C13.7777 5.81815 13.4945 5.61518 13.1819 5.54869C12.8714 5.4815 12.5239 5.53889 12.2232 5.73206C11.919 5.91963 11.7358 6.22479 11.6764 6.54324C11.6162 6.86099 11.6834 7.19343 11.8827 7.46989C12.0826 7.74635 12.3756 7.91852 12.6812 7.97521C12.9861 8.0319 13.3029 7.97241 13.5805 7.80164C13.8553 7.62527 14.0287 7.34881 14.0951 7.04016C14.1609 6.73221 14.1259 6.40396 13.9497 6.1079L13.9511 6.1093Z" fill="#F8A207"/>
</g>
<mask id="mask1_3089_9448" style="mask-type:luminance" maskUnits="userSpaceOnUse" x="24" y="0" width="35" height="31">
<path d="M24.5514 0.644531H58.0001V30.4703H24.5514V0.644531Z" fill="white"/>
</mask>
<g mask="url(#mask1_3089_9448)">
<path d="M56.4412 30.3156C56.0042 30.3156 55.6042 30.1392 55.3098 29.8684C55.0133 29.5975 54.835 29.2294 54.8133 28.8185C54.784 28.435 54.9119 28.0739 55.1434 27.7806C55.3811 27.4873 55.6986 27.2669 56.0888 27.1794C55.721 23.7618 54.6882 20.4213 53.098 17.3774C51.5072 14.3322 49.3521 11.5845 46.7746 9.31471C44.1985 7.04357 41.2063 5.24485 37.982 4.05714C34.7598 2.86943 31.3159 2.29692 27.8839 2.34731C27.8462 2.74415 27.6657 3.10249 27.4063 3.36285C27.2763 3.49303 27.1245 3.59871 26.9581 3.6736C26.7917 3.75549 26.6113 3.81008 26.4197 3.82338C26.2141 3.83877 26.0148 3.81008 25.8288 3.74289C25.7358 3.70999 25.6456 3.6666 25.5596 3.61691C25.4728 3.57072 25.3924 3.51543 25.3162 3.45314C25.0127 3.20257 24.7876 2.83023 24.7323 2.397C24.6764 1.96377 24.8057 1.54664 25.0708 1.22469C25.1372 1.1442 25.2106 1.06931 25.2924 1.00072C25.3749 0.935632 25.4652 0.881741 25.561 0.832749C25.7519 0.736864 25.9672 0.675973 26.198 0.659176C26.4127 0.643778 26.6196 0.664775 26.8112 0.722866C27.0028 0.788656 27.1777 0.88594 27.3287 1.00912C27.6301 1.25548 27.8301 1.60403 27.8797 1.99946C31.3537 1.94837 34.8402 2.52928 38.103 3.73099C41.3658 4.932 44.3971 6.75311 47.0032 9.05365C49.6115 11.3528 51.7946 14.1341 53.4043 17.2165C55.0147 20.2988 56.0608 23.6799 56.4328 27.1402C56.83 27.1402 57.2139 27.2928 57.4845 27.5622C57.7594 27.8303 57.944 28.2124 57.9761 28.6422C58.0027 29.1034 57.8251 29.5296 57.5489 29.8327C57.2699 30.1364 56.8769 30.3156 56.4412 30.3156ZM27.5441 2.18144C27.5357 1.83989 27.3867 1.53474 27.1469 1.31637C27.0273 1.20929 26.8847 1.1162 26.728 1.06511C26.5707 1.01332 26.3987 0.991624 26.2211 1.00492C25.8658 1.03152 25.5554 1.19529 25.3484 1.43605C25.1414 1.68871 25.0372 2.01346 25.0764 2.35291C25.1148 2.69166 25.2875 2.98211 25.5246 3.17808C25.7644 3.38455 26.07 3.50143 26.3945 3.47623C26.5574 3.46363 26.7098 3.41814 26.8483 3.34465C26.9875 3.27116 27.1112 3.18228 27.2147 3.0654C27.4231 2.83583 27.5525 2.52228 27.5427 2.18144H27.5441ZM56.4314 29.9685C56.7727 29.9643 57.0783 29.8215 57.2964 29.5835C57.5111 29.3477 57.6517 29.018 57.6279 28.6611C57.5733 27.9444 56.9769 27.4223 56.2979 27.4943C55.6196 27.5678 55.1077 28.1529 55.156 28.7989C55.1784 29.1237 55.314 29.4141 55.5462 29.6269C55.7748 29.8376 56.0888 29.9713 56.43 29.9685H56.4314Z" fill="#F8A207"/>
</g>
<path d="M28.3126 54.5047C14.9874 54.5047 4.14526 43.6543 4.14526 30.3158C4.14526 16.9773 14.9874 6.12695 28.3126 6.12695C41.6378 6.12695 52.4799 16.9773 52.4799 30.3158C52.4799 43.6543 41.6392 54.5047 28.3126 54.5047ZM28.3126 6.4755C15.1776 6.4755 4.4928 17.1705 4.4928 30.3172C4.4928 43.464 15.1776 54.159 28.3126 54.159C41.4476 54.159 52.1331 43.464 52.1331 30.3172C52.1331 17.1705 41.4476 6.4741 28.3126 6.4741V6.4755Z" fill="#F8A207"/>
<path d="M30.5224 27.1544V31.6197H36.0463L35.1716 37.6349H30.5224V51.4934C29.5903 51.6227 28.6366 51.6902 27.6685 51.6902C26.5511 51.6902 25.4538 51.6011 24.3852 51.4288V37.6349H19.2908V31.6197H24.3852V26.1562C24.3852 22.7666 27.1328 20.0176 30.5238 20.0176V20.0205C30.5339 20.0205 30.5425 20.0176 30.5526 20.0176H36.0477V25.2197H32.4571C31.3899 25.2197 30.5238 26.0858 30.5238 27.153L30.5224 27.1544Z" fill="#F8A207"/>
</svg>
