<svg width="1440" height="247" viewBox="0 0 1440 247" fill="none" xmlns="http://www.w3.org/2000/svg">
<path d="M215.107 242C215.107 240.14 216.615 238.632 218.475 238.632C220.335 238.632 221.842 240.14 221.842 242C221.842 243.86 220.335 245.368 218.475 245.368C216.615 245.368 215.107 243.86 215.107 242ZM155.903 242V242.631H155.693L155.525 242.506L155.903 242ZM129.613 222.332V221.701H129.823L129.991 221.827L129.613 222.332ZM2.89197 222.332V222.964H2.26054V222.332H2.89197ZM2.89197 120.392H2.26054V120.169L2.40039 119.996L2.89197 120.392ZM23.6615 94.6299H24.293V94.8527L24.1531 95.0262L23.6615 94.6299ZM20.2939 27.5931C20.2939 25.7332 21.8016 24.2255 23.6615 24.2255C25.5214 24.2255 27.0292 25.7332 27.0292 27.5931C27.0292 29.453 25.5214 30.9607 23.6615 30.9607C21.8016 30.9607 20.2939 29.453 20.2939 27.5931ZM176.46 230.366C176.46 228.506 177.968 226.998 179.828 226.998C181.688 226.998 183.195 228.506 183.195 230.366C183.195 232.225 181.688 233.733 179.828 233.733C177.968 233.733 176.46 232.225 176.46 230.366ZM154.326 230.366L153.889 229.91L154.072 229.734H154.326V230.366ZM142.758 241.446L143.195 241.902L143.012 242.077H142.758V241.446ZM70.4588 241.446V242.077H70.1729L69.9843 241.863L70.4588 241.446ZM60.7313 230.366V229.734H61.0172L61.2058 229.949L60.7313 230.366ZM19.1921 230.366V230.997H18.5607V230.366H19.1921ZM0 44.4908L-0.468689 44.9139L-0.63143 44.7337V44.4908H0ZM10.2533 55.8483L10.722 55.4252L10.8848 55.6054V55.8483H10.2533ZM10.2533 110.974L10.7432 111.372L9.6219 112.75V110.974H10.2533ZM18.1405 101.278L17.6507 100.88L18.0918 100.337L18.5866 100.831L18.1405 101.278ZM33.1262 116.237L33.5722 115.79L33.7576 115.975V116.237H33.1262ZM33.1262 183.551H33.7576V183.795L33.5935 183.975L33.1262 183.551ZM67.8297 209.59L68.2877 210.024L68.101 210.221H67.8297V209.59ZM89.6509 186.598L89.1929 186.163L89.3797 185.966H89.6509V186.598ZM144.861 186.598V185.966H145.145L145.333 186.178L144.861 186.598ZM164.579 208.759V209.39H164.296L164.107 209.178L164.579 208.759ZM218.475 242V242.631H155.903V242V241.369H218.475V242ZM155.903 242L155.525 242.506L129.234 222.838L129.613 222.332L129.991 221.827L156.281 241.494L155.903 242ZM129.613 222.332V222.964H2.89197V222.332V221.701H129.613V222.332ZM2.89197 222.332H2.26054V120.392H2.89197H3.5234V222.332H2.89197ZM2.89197 120.392L2.40039 119.996L23.17 94.2336L23.6615 94.6299L24.1531 95.0262L3.38354 120.788L2.89197 120.392ZM23.6615 94.6299H23.0301V27.5931H23.6615H24.293V94.6299H23.6615ZM179.828 230.366V230.997H154.326V230.366V229.734H179.828V230.366ZM154.326 230.366L154.763 230.822L143.195 241.902L142.758 241.446L142.321 240.99L153.889 229.91L154.326 230.366ZM142.758 241.446V242.077H70.4588V241.446V240.815H142.758V241.446ZM70.4588 241.446L69.9843 241.863L60.2568 230.782L60.7313 230.366L61.2058 229.949L70.9333 241.029L70.4588 241.446ZM60.7313 230.366V230.997H19.1921V230.366V229.734H60.7313V230.366ZM19.1921 230.366H18.5607V222.332H19.1921H19.8236V230.366H19.1921ZM0 1.00002H0.63143V44.4908H0H-0.63143V1.00002H0ZM0 44.4908L0.468689 44.0677L10.722 55.4252L10.2533 55.8483L9.78464 56.2714L-0.468689 44.9139L0 44.4908ZM10.2533 55.8483H10.8848V110.974H10.2533H9.6219V55.8483H10.2533ZM10.2533 110.974L9.76351 110.575L17.6507 100.88L18.1405 101.278L18.6303 101.677L10.7432 111.372L10.2533 110.974ZM18.1405 101.278L18.5866 100.831L33.5722 115.79L33.1262 116.237L32.6801 116.684L17.6944 101.725L18.1405 101.278ZM33.1262 116.237H33.7576V183.551H33.1262H32.4947V116.237H33.1262ZM33.1262 183.551L33.5935 183.975L9.93193 210.014L9.46461 209.59L8.9973 209.165L32.6588 183.126L33.1262 183.551ZM9.46461 209.59V210.221H2.89197V209.59V208.958H9.46461V209.59ZM9.46461 209.59V208.958H67.8297V209.59V210.221H9.46461V209.59ZM67.8297 209.59L67.3717 209.155L89.1929 186.163L89.6509 186.598L90.1089 187.032L68.2877 210.024L67.8297 209.59ZM89.6509 186.598V185.966H144.861V186.598V187.229H89.6509V186.598ZM144.861 186.598L145.333 186.178L165.051 208.339L164.579 208.759L164.107 209.178L144.389 187.017L144.861 186.598ZM164.579 208.759V208.127H210.325V208.759V209.39H164.579V208.759Z" fill="#4176DE"/>
<path d="M227.107 246C227.107 244.14 228.615 242.632 230.475 242.632C232.335 242.632 233.842 244.14 233.842 246C233.842 247.86 232.335 249.368 230.475 249.368C228.615 249.368 227.107 247.86 227.107 246ZM167.903 246V246.631H167.693L167.525 246.506L167.903 246ZM141.613 226.332V225.701H141.823L141.991 225.827L141.613 226.332ZM14.892 226.332V226.964H14.2605V226.332H14.892ZM14.892 124.392H14.2605V124.169L14.4004 123.996L14.892 124.392ZM35.6615 98.6299H36.293V98.8527L36.1531 99.0262L35.6615 98.6299ZM32.2939 31.5931C32.2939 29.7332 33.8016 28.2255 35.6615 28.2255C37.5214 28.2255 39.0292 29.7332 39.0292 31.5931C39.0292 33.453 37.5214 34.9607 35.6615 34.9607C33.8016 34.9607 32.2939 33.453 32.2939 31.5931ZM188.46 234.366C188.46 232.506 189.968 230.998 191.828 230.998C193.688 230.998 195.195 232.506 195.195 234.366C195.195 236.225 193.688 237.733 191.828 237.733C189.968 237.733 188.46 236.225 188.46 234.366ZM166.326 234.366L165.889 233.91L166.072 233.734H166.326V234.366ZM154.758 245.446L155.195 245.902L155.012 246.077H154.758V245.446ZM82.4588 245.446V246.077H82.1729L81.9843 245.863L82.4588 245.446ZM72.7313 234.366V233.734H73.0172L73.2058 233.949L72.7313 234.366ZM31.1921 234.366V234.997H30.5607V234.366H31.1921ZM12 48.4908L11.5313 48.9139L11.3686 48.7337V48.4908H12ZM22.2533 59.8483L22.722 59.4252L22.8848 59.6054V59.8483H22.2533ZM22.2533 114.974L22.7432 115.372L21.6219 116.75V114.974H22.2533ZM30.1405 105.278L29.6507 104.88L30.0918 104.337L30.5866 104.831L30.1405 105.278ZM45.1262 120.237L45.5722 119.79L45.7576 119.975V120.237H45.1262ZM45.1262 187.551H45.7576V187.795L45.5935 187.975L45.1262 187.551ZM79.8297 213.59L80.2877 214.024L80.101 214.221H79.8297V213.59ZM101.651 190.598L101.193 190.163L101.38 189.966H101.651V190.598ZM156.861 190.598V189.966H157.145L157.333 190.178L156.861 190.598ZM176.579 212.759V213.39H176.296L176.107 213.178L176.579 212.759ZM230.475 246V246.631H167.903V246V245.369H230.475V246ZM167.903 246L167.525 246.506L141.234 226.838L141.613 226.332L141.991 225.827L168.281 245.494L167.903 246ZM141.613 226.332V226.964H14.892V226.332V225.701H141.613V226.332ZM14.892 226.332H14.2605V124.392H14.892H15.5234V226.332H14.892ZM14.892 124.392L14.4004 123.996L35.17 98.2336L35.6615 98.6299L36.1531 99.0262L15.3835 124.788L14.892 124.392ZM35.6615 98.6299H35.0301V31.5931H35.6615H36.293V98.6299H35.6615ZM191.828 234.366V234.997H166.326V234.366V233.734H191.828V234.366ZM166.326 234.366L166.763 234.822L155.195 245.902L154.758 245.446L154.321 244.99L165.889 233.91L166.326 234.366ZM154.758 245.446V246.077H82.4588V245.446V244.815H154.758V245.446ZM82.4588 245.446L81.9843 245.863L72.2568 234.782L72.7313 234.366L73.2058 233.949L82.9333 245.029L82.4588 245.446ZM72.7313 234.366V234.997H31.1921V234.366V233.734H72.7313V234.366ZM31.1921 234.366H30.5607V226.332H31.1921H31.8236V234.366H31.1921ZM12 5.00002H12.6314V48.4908H12H11.3686V5.00002H12ZM12 48.4908L12.4687 48.0677L22.722 59.4252L22.2533 59.8483L21.7846 60.2714L11.5313 48.9139L12 48.4908ZM22.2533 59.8483H22.8848V114.974H22.2533H21.6219V59.8483H22.2533ZM22.2533 114.974L21.7635 114.575L29.6507 104.88L30.1405 105.278L30.6303 105.677L22.7432 115.372L22.2533 114.974ZM30.1405 105.278L30.5866 104.831L45.5722 119.79L45.1262 120.237L44.6801 120.684L29.6944 105.725L30.1405 105.278ZM45.1262 120.237H45.7576V187.551H45.1262H44.4947V120.237H45.1262ZM45.1262 187.551L45.5935 187.975L21.9319 214.014L21.4646 213.59L20.9973 213.165L44.6588 187.126L45.1262 187.551ZM21.4646 213.59V214.221H14.892V213.59V212.958H21.4646V213.59ZM21.4646 213.59V212.958H79.8297V213.59V214.221H21.4646V213.59ZM79.8297 213.59L79.3717 213.155L101.193 190.163L101.651 190.598L102.109 191.032L80.2877 214.024L79.8297 213.59ZM101.651 190.598V189.966H156.861V190.598V191.229H101.651V190.598ZM156.861 190.598L157.333 190.178L177.051 212.339L176.579 212.759L176.107 213.178L156.389 191.017L156.861 190.598ZM176.579 212.759V212.127H222.325V212.759V213.39H176.579V212.759Z" fill="#F8A207"/>
<path d="M1224.37 247C1224.37 245.14 1222.86 243.632 1221 243.632C1219.14 243.632 1217.63 245.14 1217.63 247C1217.63 248.86 1219.14 250.368 1221 250.368C1222.86 250.368 1224.37 248.86 1224.37 247ZM1283.57 247V247.631H1283.78L1283.95 247.506L1283.57 247ZM1309.86 227.332V226.701H1309.65L1309.48 226.827L1309.86 227.332ZM1436.58 227.332V227.964H1437.21V227.332H1436.58ZM1436.58 125.392H1437.21V125.169L1437.07 124.996L1436.58 125.392ZM1415.81 99.6299H1415.18V99.8527L1415.32 100.026L1415.81 99.6299ZM1419.18 32.5931C1419.18 30.7332 1417.67 29.2255 1415.81 29.2255C1413.95 29.2255 1412.45 30.7332 1412.45 32.5931C1412.45 34.453 1413.95 35.9607 1415.81 35.9607C1417.67 35.9607 1419.18 34.453 1419.18 32.5931ZM1263.01 235.366C1263.01 233.506 1261.51 231.998 1259.65 231.998C1257.79 231.998 1256.28 233.506 1256.28 235.366C1256.28 237.225 1257.79 238.733 1259.65 238.733C1261.51 238.733 1263.01 237.225 1263.01 235.366ZM1285.15 235.366L1285.59 234.91L1285.4 234.734H1285.15V235.366ZM1296.72 246.446L1296.28 246.902L1296.46 247.077H1296.72V246.446ZM1369.02 246.446V247.077H1369.3L1369.49 246.863L1369.02 246.446ZM1378.74 235.366V234.734H1378.46L1378.27 234.949L1378.74 235.366ZM1420.28 235.366V235.997H1420.91V235.366H1420.28ZM1439.47 49.4908L1439.94 49.9139L1440.11 49.7337V49.4908H1439.47ZM1429.22 60.8483L1428.75 60.4252L1428.59 60.6054V60.8483H1429.22ZM1429.22 115.974L1428.73 116.372L1429.85 117.75V115.974H1429.22ZM1421.33 106.278L1421.82 105.88L1421.38 105.337L1420.89 105.831L1421.33 106.278ZM1406.35 121.237L1405.9 120.79L1405.72 120.975V121.237H1406.35ZM1406.35 188.551H1405.72V188.795L1405.88 188.975L1406.35 188.551ZM1371.65 214.59L1371.19 215.024L1371.37 215.221H1371.65V214.59ZM1349.82 191.598L1350.28 191.163L1350.1 190.966H1349.82V191.598ZM1294.61 191.598V190.966H1294.33L1294.14 191.178L1294.61 191.598ZM1274.9 213.759V214.39H1275.18L1275.37 214.178L1274.9 213.759ZM1221 247V247.631H1283.57V247V246.369H1221V247ZM1283.57 247L1283.95 247.506L1310.24 227.838L1309.86 227.332L1309.48 226.827L1283.19 246.494L1283.57 247ZM1309.86 227.332V227.964H1436.58V227.332V226.701H1309.86V227.332ZM1436.58 227.332H1437.21V125.392H1436.58H1435.95V227.332H1436.58ZM1436.58 125.392L1437.07 124.996L1416.3 99.2336L1415.81 99.6299L1415.32 100.026L1436.09 125.788L1436.58 125.392ZM1415.81 99.6299H1416.44V32.5931H1415.81H1415.18V99.6299H1415.81ZM1259.65 235.366V235.997H1285.15V235.366V234.734H1259.65V235.366ZM1285.15 235.366L1284.71 235.822L1296.28 246.902L1296.72 246.446L1297.15 245.99L1285.59 234.91L1285.15 235.366ZM1296.72 246.446V247.077H1369.02V246.446V245.815H1296.72V246.446ZM1369.02 246.446L1369.49 246.863L1379.22 235.782L1378.74 235.366L1378.27 234.949L1368.54 246.029L1369.02 246.446ZM1378.74 235.366V235.997H1420.28V235.366V234.734H1378.74V235.366ZM1420.28 235.366H1420.91V227.332H1420.28H1419.65V235.366H1420.28ZM1439.47 6.00002H1438.84V49.4908H1439.47H1440.11V6.00002H1439.47ZM1439.47 49.4908L1439.01 49.0677L1428.75 60.4252L1429.22 60.8483L1429.69 61.2714L1439.94 49.9139L1439.47 49.4908ZM1429.22 60.8483H1428.59V115.974H1429.22H1429.85V60.8483H1429.22ZM1429.22 115.974L1429.71 115.575L1421.82 105.88L1421.33 106.278L1420.84 106.677L1428.73 116.372L1429.22 115.974ZM1421.33 106.278L1420.89 105.831L1405.9 120.79L1406.35 121.237L1406.79 121.684L1421.78 106.725L1421.33 106.278ZM1406.35 121.237H1405.72V188.551H1406.35H1406.98V121.237H1406.35ZM1406.35 188.551L1405.88 188.975L1429.54 215.014L1430.01 214.59L1430.48 214.165L1406.82 188.126L1406.35 188.551ZM1430.01 214.59V215.221H1436.58V214.59V213.958H1430.01V214.59ZM1430.01 214.59V213.958H1371.65V214.59V215.221H1430.01V214.59ZM1371.65 214.59L1372.1 214.155L1350.28 191.163L1349.82 191.598L1349.37 192.032L1371.19 215.024L1371.65 214.59ZM1349.82 191.598V190.966H1294.61V191.598V192.229H1349.82V191.598ZM1294.61 191.598L1294.14 191.178L1274.42 213.339L1274.9 213.759L1275.37 214.178L1295.09 192.017L1294.61 191.598ZM1274.9 213.759V213.127H1229.15V213.759V214.39H1274.9V213.759Z" fill="#4176DE"/>
<path d="M1210.37 241C1210.37 239.14 1208.86 237.632 1207 237.632C1205.14 237.632 1203.63 239.14 1203.63 241C1203.63 242.86 1205.14 244.368 1207 244.368C1208.86 244.368 1210.37 242.86 1210.37 241ZM1269.57 241V241.631H1269.78L1269.95 241.506L1269.57 241ZM1295.86 221.332V220.701H1295.65L1295.48 220.827L1295.86 221.332ZM1422.58 221.332V221.964H1423.21V221.332H1422.58ZM1422.58 119.392H1423.21V119.169L1423.07 118.996L1422.58 119.392ZM1401.81 93.6299H1401.18V93.8527L1401.32 94.0262L1401.81 93.6299ZM1405.18 26.5931C1405.18 24.7332 1403.67 23.2255 1401.81 23.2255C1399.95 23.2255 1398.45 24.7332 1398.45 26.5931C1398.45 28.453 1399.95 29.9607 1401.81 29.9607C1403.67 29.9607 1405.18 28.453 1405.18 26.5931ZM1249.01 229.366C1249.01 227.506 1247.51 225.998 1245.65 225.998C1243.79 225.998 1242.28 227.506 1242.28 229.366C1242.28 231.225 1243.79 232.733 1245.65 232.733C1247.51 232.733 1249.01 231.225 1249.01 229.366ZM1271.15 229.366L1271.59 228.91L1271.4 228.734H1271.15V229.366ZM1282.72 240.446L1282.28 240.902L1282.46 241.077H1282.72V240.446ZM1355.02 240.446V241.077H1355.3L1355.49 240.863L1355.02 240.446ZM1364.74 229.366V228.734H1364.46L1364.27 228.949L1364.74 229.366ZM1406.28 229.366V229.997H1406.91V229.366H1406.28ZM1425.47 43.4908L1425.94 43.9139L1426.11 43.7337V43.4908H1425.47ZM1415.22 54.8483L1414.75 54.4252L1414.59 54.6054V54.8483H1415.22ZM1415.22 109.974L1414.73 110.372L1415.85 111.75V109.974H1415.22ZM1407.33 100.278L1407.82 99.8797L1407.38 99.3374L1406.89 99.8313L1407.33 100.278ZM1392.35 115.237L1391.9 114.79L1391.72 114.975V115.237H1392.35ZM1392.35 182.551H1391.72V182.795L1391.88 182.975L1392.35 182.551ZM1357.65 208.59L1357.19 209.024L1357.37 209.221H1357.65V208.59ZM1335.82 185.598L1336.28 185.163L1336.1 184.966H1335.82V185.598ZM1280.61 185.598V184.966H1280.33L1280.14 185.178L1280.61 185.598ZM1260.9 207.759V208.39H1261.18L1261.37 208.178L1260.9 207.759ZM1207 241V241.631H1269.57V241V240.369H1207V241ZM1269.57 241L1269.95 241.506L1296.24 221.838L1295.86 221.332L1295.48 220.827L1269.19 240.494L1269.57 241ZM1295.86 221.332V221.964H1422.58V221.332V220.701H1295.86V221.332ZM1422.58 221.332H1423.21V119.392H1422.58H1421.95V221.332H1422.58ZM1422.58 119.392L1423.07 118.996L1402.3 93.2336L1401.81 93.6299L1401.32 94.0262L1422.09 119.788L1422.58 119.392ZM1401.81 93.6299H1402.44V26.5931H1401.81H1401.18V93.6299H1401.81ZM1245.65 229.366V229.997H1271.15V229.366V228.734H1245.65V229.366ZM1271.15 229.366L1270.71 229.822L1282.28 240.902L1282.72 240.446L1283.15 239.99L1271.59 228.91L1271.15 229.366ZM1282.72 240.446V241.077H1355.02V240.446V239.815H1282.72V240.446ZM1355.02 240.446L1355.49 240.863L1365.22 229.782L1364.74 229.366L1364.27 228.949L1354.54 240.029L1355.02 240.446ZM1364.74 229.366V229.997H1406.28V229.366V228.734H1364.74V229.366ZM1406.28 229.366H1406.91V221.332H1406.28H1405.65V229.366H1406.28ZM1425.47 1.52588e-05H1424.84V43.4908H1425.47H1426.11V1.52588e-05H1425.47ZM1425.47 43.4908L1425.01 43.0677L1414.75 54.4252L1415.22 54.8483L1415.69 55.2714L1425.94 43.9139L1425.47 43.4908ZM1415.22 54.8483H1414.59V109.974H1415.22H1415.85V54.8483H1415.22ZM1415.22 109.974L1415.71 109.575L1407.82 99.8797L1407.33 100.278L1406.84 100.677L1414.73 110.372L1415.22 109.974ZM1407.33 100.278L1406.89 99.8313L1391.9 114.79L1392.35 115.237L1392.79 115.684L1407.78 100.725L1407.33 100.278ZM1392.35 115.237H1391.72V182.551H1392.35H1392.98V115.237H1392.35ZM1392.35 182.551L1391.88 182.975L1415.54 209.014L1416.01 208.59L1416.48 208.165L1392.82 182.126L1392.35 182.551ZM1416.01 208.59V209.221H1422.58V208.59V207.958H1416.01V208.59ZM1416.01 208.59V207.958H1357.65V208.59V209.221H1416.01V208.59ZM1357.65 208.59L1358.1 208.155L1336.28 185.163L1335.82 185.598L1335.37 186.032L1357.19 209.024L1357.65 208.59ZM1335.82 185.598V184.966H1280.61V185.598V186.229H1335.82V185.598ZM1280.61 185.598L1280.14 185.178L1260.42 207.339L1260.9 207.759L1261.37 208.178L1281.09 186.017L1280.61 185.598ZM1260.9 207.759V207.127H1215.15V207.759V208.39H1260.9V207.759Z" fill="#F8A207"/>
</svg>
