<svg width="125" height="321" viewBox="0 0 125 321" fill="none" xmlns="http://www.w3.org/2000/svg">
<path opacity="0.3" d="M11 21.6667C16.891 21.6667 21.6667 16.8911 21.6667 11C21.6667 5.109 16.891 0.333362 11 0.333362C5.10896 0.333362 0.333334 5.109 0.333334 11C0.333334 16.8911 5.10896 21.6667 11 21.6667ZM11 99.2118H9V99.8505L9.37016 100.371L11 99.2118ZM37.3598 136.276H39.3598V135.637L38.9896 135.116L37.3598 136.276ZM37.3598 314.923H35.3598V316.923H37.3598V314.923ZM173.985 314.923V316.923H174.719L175.279 316.448L173.985 314.923ZM208.513 285.643V283.643H207.779L207.219 284.117L208.513 285.643ZM298.359 296.309C304.25 296.309 309.025 291.534 309.025 285.643C309.025 279.752 304.25 274.976 298.359 274.976C292.468 274.976 287.692 279.752 287.692 285.643C287.692 291.534 292.468 296.309 298.359 296.309ZM26.5931 76.1505C32.4841 76.1505 37.2598 71.3748 37.2598 65.4838C37.2598 59.5927 32.4841 54.8171 26.5931 54.8171C20.7021 54.8171 15.9264 59.5927 15.9264 65.4838C15.9264 71.3748 20.7021 76.1505 26.5931 76.1505ZM26.5931 101.436L28.0719 102.782L28.5931 102.21V101.436H26.5931ZM11.7425 117.744L10.2638 116.397L9.74253 116.97L9.74253 117.744H11.7425ZM11.7425 219.669H9.74253V220.545L10.3857 221.138L11.7425 219.669ZM26.5931 233.383H28.5931V232.507L27.95 231.913L26.5931 233.383ZM26.5931 291.943H24.5931V293.943H26.5931V291.943ZM275.711 319L274.334 320.45L274.913 321H275.711V319ZM260.49 304.545L261.867 303.095L261.288 302.545H260.49V304.545ZM186.608 304.545L185.308 303.026L181.195 306.545H186.608V304.545ZM199.602 293.426L200.903 294.946L202.502 293.577L201.053 292.049L199.602 293.426ZM179.554 272.3L181.005 270.923L180.413 270.3H179.554V272.3ZM89.3368 272.3V270.3H88.5347L87.9549 270.854L89.3368 272.3ZM54.4379 223.375L53.0249 221.96L52.4379 222.546V223.375H54.4379ZM85.2529 192.613L86.6659 194.028L87.2529 193.442V192.613H85.2529ZM85.2529 114.779H87.2529V113.911L86.6195 113.318L85.2529 114.779ZM55.5517 86.9808H53.5517V87.8482L54.1851 88.441L55.5517 86.9808ZM11 11H9L9 99.2118H11H13L13 11H11ZM11 99.2118L9.37016 100.371L35.7299 137.435L37.3598 136.276L38.9896 135.116L12.6298 98.0527L11 99.2118ZM37.3598 136.276H35.3598L35.3598 314.923H37.3598H39.3598L39.3598 136.276H37.3598ZM37.3598 314.923V316.923H173.985V314.923V312.923H37.3598V314.923ZM173.985 314.923L175.279 316.448L209.806 287.168L208.513 285.643L207.219 284.117L172.692 313.398L173.985 314.923ZM208.513 285.643V287.643H298.359V285.643V283.643H208.513V285.643ZM26.5931 65.4838H24.5931L24.5931 101.436H26.5931H28.5931L28.5931 65.4838H26.5931ZM26.5931 101.436L25.1144 100.089L10.2638 116.397L11.7425 117.744L13.2213 119.09L28.0719 102.782L26.5931 101.436ZM11.7425 117.744H9.74253L9.74253 219.669H11.7425H13.7425L13.7425 117.744H11.7425ZM11.7425 219.669L10.3857 221.138L25.2363 234.852L26.5931 233.383L27.95 231.913L13.0994 218.2L11.7425 219.669ZM26.5931 233.383H24.5931L24.5931 291.943H26.5931H28.5931L28.5931 233.383H26.5931ZM26.5931 291.943V293.943H37.3598V291.943V289.943H26.5931V291.943ZM334 319V317H275.711V319V321H334V319ZM275.711 319L277.089 317.55L261.867 303.095L260.49 304.545L259.112 305.995L274.334 320.45L275.711 319ZM260.49 304.545V302.545H186.608V304.545V306.545H260.49V304.545ZM186.608 304.545L187.908 306.065L200.903 294.946L199.602 293.426L198.302 291.906L185.308 303.026L186.608 304.545ZM199.602 293.426L201.053 292.049L181.005 270.923L179.554 272.3L178.103 273.676L198.152 294.803L199.602 293.426ZM179.554 272.3V270.3L89.3368 270.3V272.3V274.3L179.554 274.3V272.3ZM89.3368 272.3L87.9549 270.854L53.056 304.211L54.4379 305.657L55.8199 307.103L90.7187 273.745L89.3368 272.3ZM54.4379 305.657H52.4379V314.923H54.4379H56.4379V305.657H54.4379ZM54.4379 305.657H56.4379L56.4379 223.375H54.4379H52.4379L52.4379 305.657H54.4379ZM54.4379 223.375L55.8509 224.791L86.6659 194.028L85.2529 192.613L83.8398 191.197L53.0249 221.96L54.4379 223.375ZM85.2529 192.613H87.2529L87.2529 114.779H85.2529H83.2529L83.2529 192.613H85.2529ZM85.2529 114.779L86.6195 113.318L56.9184 85.5205L55.5517 86.9808L54.1851 88.441L83.8862 116.239L85.2529 114.779ZM55.5517 86.9808H57.5517L57.5517 22.4898H55.5517H53.5517L53.5517 86.9808H55.5517Z" fill="#638FE4"/>
</svg>
