<svg width="59" height="59" viewBox="0 0 59 59" fill="none" xmlns="http://www.w3.org/2000/svg">
<path d="M28.8525 51.8277H28.7557C16.6594 51.8277 6.81808 41.9775 6.81808 29.8705V29.7736C6.81808 17.6665 16.6594 7.81641 28.7557 7.81641H28.8525C40.9488 7.81641 50.7901 17.6665 50.7901 29.7736V29.8705C50.7901 41.9775 40.9488 51.8277 28.8525 51.8277ZM28.7557 9.30614C17.4796 9.30614 8.30649 18.4874 8.30649 29.7736V29.8705C8.30649 41.1567 17.4796 50.3379 28.7557 50.3379H28.8525C40.1287 50.3379 49.3017 41.1567 49.3017 29.8705V29.7736C49.3017 18.4874 40.1287 9.30614 28.8525 9.30614H28.7557Z" fill="#ECF1FC"/>
<path d="M14.7692 54.5676C14.988 54.1896 15.3377 53.9342 15.7167 53.8201C16.0915 53.7151 16.5118 53.7172 16.8768 53.9076C17.0495 53.9951 17.1935 54.1162 17.3159 54.254C17.439 54.387 17.5376 54.5438 17.6068 54.7153C17.746 55.0568 17.7739 55.4564 17.6544 55.8372C20.8003 57.2125 24.2023 57.9907 27.6329 58.1391C29.3489 58.2182 31.0712 58.1293 32.7697 57.8879C34.4689 57.6457 36.1464 57.2475 37.7715 56.6987C41.0252 55.6013 44.0698 53.8943 46.7096 51.6952C49.3521 49.5004 51.5785 46.8065 53.2498 43.8061C53.0869 43.6906 52.9526 43.5492 52.847 43.3938C52.7428 43.2378 52.6652 43.0656 52.6128 42.885C52.5114 42.5253 52.533 42.1431 52.7079 41.8016C52.8876 41.4307 53.1938 41.1626 53.5728 41.0268C53.7617 40.9582 53.9644 40.9239 54.1707 40.9253C54.3763 40.9267 54.5833 40.9652 54.7847 41.0499C54.9861 41.1346 55.1623 41.2571 55.3049 41.4069C55.4448 41.5559 55.5532 41.7323 55.6231 41.9269C55.7602 42.3125 55.756 42.7737 55.556 43.1895C55.3602 43.5744 55.0427 43.8551 54.6861 43.995C54.5099 44.0657 54.3169 44.1007 54.1225 44.0965C53.9295 44.0937 53.7365 44.0531 53.5519 43.9755C51.8603 47.0137 49.6066 49.7404 46.9305 51.9633C44.2586 54.1882 41.1763 55.9177 37.8813 57.0291C36.2352 57.5848 34.5367 57.9879 32.8172 58.2336C31.0963 58.4793 29.3531 58.5681 27.6168 58.4877C24.1442 58.3379 20.6997 57.5498 17.5138 56.157C17.3159 56.5028 16.9977 56.7456 16.6243 56.8555C16.4383 56.9108 16.2383 56.9318 16.0362 56.9178C15.8363 56.9003 15.6363 56.8373 15.4447 56.74C15.0356 56.528 14.7398 56.1871 14.6244 55.7805C14.5049 55.3802 14.5468 54.9469 14.7664 54.569L14.7692 54.5676ZM53.57 43.5961C54.1665 43.9272 54.9203 43.6752 55.2469 43.0362C55.4035 42.7157 55.4049 42.3587 55.2965 42.0571C55.1868 41.7547 54.9609 41.5027 54.6483 41.3684C54.3364 41.2333 53.9945 41.2347 53.7008 41.3404C53.405 41.4461 53.1645 41.6602 53.0204 41.9514C52.7246 42.5281 52.9722 43.2658 53.5687 43.5961H53.57ZM15.0699 54.7412C14.902 55.0386 14.8727 55.3788 14.9657 55.6916C15.0615 55.9975 15.2866 56.2655 15.6041 56.4293C15.7628 56.5098 15.9293 56.5567 16.0943 56.5707C16.2593 56.5819 16.4257 56.5539 16.5789 56.5014C16.8838 56.3929 17.1397 56.1696 17.2795 55.8582C17.4194 55.5467 17.4208 55.208 17.3187 54.9147C17.267 54.7677 17.1879 54.6355 17.0879 54.5165C16.9893 54.3954 16.8663 54.2925 16.7215 54.219C16.4313 54.0693 16.1041 54.0609 15.8041 54.1553C15.5083 54.2442 15.2377 54.4451 15.0713 54.7426L15.0699 54.7412Z" fill="#ECF1FC"/>
<mask id="mask0_3054_6569" style="mask-type:luminance" maskUnits="userSpaceOnUse" x="0" y="4" width="16" height="44">
<path d="M0.518005 4.8999H15.0446V47.7219H0.518005V4.8999Z" fill="white"/>
</mask>
<g mask="url(#mask0_3054_6569)">
<path d="M14.769 5.80927C14.9865 6.18861 15.034 6.61904 14.9424 7.00258C14.8508 7.38612 14.6369 7.74726 14.2886 7.96703C13.9607 8.1672 13.5942 8.25328 13.2264 8.20009C12.86 8.149 12.4992 7.97263 12.2286 7.67937C9.46858 9.72375 7.08828 12.2783 5.24501 15.178C3.39895 18.0741 2.09482 21.3146 1.42003 24.6853C1.07739 26.3685 0.908166 28.0868 0.885789 29.8036C0.864811 31.5225 0.996973 33.2421 1.28507 34.9352C1.85987 38.3219 3.0647 41.6044 4.83804 44.5482C5.01845 44.4649 5.20865 44.4187 5.39605 44.4054C5.58626 44.39 5.77785 44.4054 5.95826 44.4523C6.32048 44.544 6.63585 44.7567 6.84633 45.0787C7.08548 45.4146 7.15611 45.8206 7.08548 46.2167C7.04772 46.4148 6.97989 46.6065 6.8785 46.7829C6.77571 46.96 6.63865 47.1209 6.46383 47.2525C6.28972 47.3862 6.09742 47.4765 5.89463 47.5262C5.69184 47.5766 5.48206 47.585 5.28277 47.5472C4.8786 47.4751 4.48981 47.2357 4.22339 46.8585C3.98633 46.4987 3.90592 46.0802 3.96256 45.6995C3.99193 45.5091 4.05416 45.3271 4.15136 45.1634C4.25136 44.9968 4.38142 44.8498 4.54155 44.7287C2.74654 41.7493 1.52562 38.4248 0.943828 34.9968C0.652234 33.282 0.519374 31.54 0.540352 29.8022C0.562029 28.0637 0.734049 26.3244 1.08158 24.6195C1.76407 21.2082 3.08568 17.9272 4.95482 14.9946C6.82186 12.0593 9.23083 9.47389 12.0251 7.40432C11.8251 7.05997 11.7734 6.66383 11.865 6.28589C11.958 5.91215 12.1845 5.54541 12.5523 5.31934C12.9425 5.07158 13.3852 4.9883 13.7914 5.08418C14.1984 5.18147 14.5522 5.43413 14.7711 5.81347L14.769 5.80927ZM4.86321 44.9261C4.28073 45.2788 4.1164 46.0606 4.50939 46.6625C4.92405 47.2483 5.70723 47.389 6.25126 46.9761C6.79529 46.5638 6.93374 45.7996 6.55824 45.2718C6.20511 44.7287 5.4492 44.5719 4.86321 44.9261ZM14.469 5.98284C14.2956 5.69169 14.0124 5.48872 13.6998 5.42223C13.3894 5.35504 13.0418 5.41243 12.7411 5.6056C12.437 5.79317 12.2538 6.09832 12.1943 6.41677C12.1342 6.73452 12.2013 7.06697 12.4006 7.34343C12.6006 7.61988 12.8936 7.79205 13.1992 7.84875C13.504 7.90544 13.8208 7.84595 14.0984 7.67517C14.3732 7.4988 14.5466 7.22234 14.6131 6.91369C14.6788 6.60574 14.6438 6.27749 14.4676 5.98144L14.469 5.98284Z" fill="#ECF1FC"/>
</g>
<mask id="mask1_3054_6569" style="mask-type:luminance" maskUnits="userSpaceOnUse" x="25" y="0" width="34" height="31">
<path d="M25.0693 0.516602H58.518V30.3424H25.0693V0.516602Z" fill="white"/>
</mask>
<g mask="url(#mask1_3054_6569)">
<path d="M56.9593 30.1886C56.5223 30.1886 56.1223 30.0123 55.8279 29.7414C55.5314 29.4706 55.3531 29.1024 55.3314 28.6916C55.302 28.308 55.43 27.9469 55.6615 27.6536C55.8992 27.3604 56.2167 27.1399 56.6069 27.0524C56.2391 23.6349 55.2062 20.2943 53.6161 17.2505C52.0253 14.2053 49.8701 11.4575 47.2927 9.18776C44.7166 6.91662 41.7244 5.1179 38.5001 3.93019C35.2779 2.74247 31.834 2.16996 28.402 2.22036C28.3642 2.61719 28.1838 2.97554 27.9244 3.2359C27.7943 3.36608 27.6426 3.47176 27.4762 3.54665C27.3097 3.62853 27.1293 3.68313 26.9377 3.69642C26.7321 3.71182 26.5328 3.68313 26.3468 3.61594C26.2538 3.58304 26.1636 3.53965 26.0776 3.48996C25.9909 3.44376 25.9105 3.38847 25.8343 3.32618C25.5308 3.07562 25.3056 2.70328 25.2504 2.27005C25.1944 1.83682 25.3238 1.41968 25.5888 1.09773C25.6553 1.01725 25.7287 0.942358 25.8105 0.873769C25.893 0.808679 25.9832 0.754788 26.079 0.705796C26.2699 0.609911 26.4853 0.54902 26.7161 0.532223C26.9307 0.516825 27.1377 0.537822 27.3293 0.595913C27.5209 0.661703 27.6957 0.758987 27.8468 0.882168C28.1481 1.12853 28.3481 1.47707 28.3978 1.87251C31.8717 1.82142 35.3583 2.40233 38.6211 3.60404C41.8838 4.80505 44.9151 6.62616 47.5213 8.9267C50.1296 11.2258 52.3127 14.0072 53.9224 17.0895C55.5328 20.1718 56.5789 23.553 56.9509 27.0132C57.3481 27.0132 57.732 27.1658 58.0026 27.4353C58.2774 27.7033 58.462 28.0855 58.4942 28.5152C58.5208 28.9764 58.3432 29.4027 58.0669 29.7057C57.7879 30.0095 57.395 30.1886 56.9593 30.1886ZM28.0621 2.05448C28.0537 1.71294 27.9048 1.40778 27.665 1.18942C27.5454 1.08234 27.4027 0.989251 27.2461 0.938159C27.0888 0.886367 26.9167 0.86467 26.7391 0.877968C26.3839 0.904564 26.0734 1.06834 25.8664 1.3091C25.6595 1.56176 25.5553 1.88651 25.5944 2.22596C25.6329 2.5647 25.8056 2.85516 26.0427 3.05113C26.2825 3.25759 26.5881 3.37447 26.9125 3.34928C27.0755 3.33668 27.2279 3.29119 27.3664 3.2177C27.5055 3.14421 27.6293 3.05532 27.7328 2.93844C27.9412 2.70888 28.0705 2.39533 28.0607 2.05448H28.0621ZM56.9495 29.8415C57.2908 29.8373 57.5963 29.6945 57.8145 29.4566C58.0292 29.2207 58.1697 28.891 58.146 28.5341C58.0914 27.8174 57.4949 27.2953 56.816 27.3674C56.1377 27.4409 55.6258 28.026 55.6741 28.672C55.6964 28.9967 55.8321 29.2872 56.0642 29.5C56.2929 29.7106 56.6069 29.8443 56.9481 29.8415H56.9495Z" fill="#ECF1FC"/>
</g>
<path d="M28.8307 54.3773C15.5055 54.3773 4.66339 43.5269 4.66339 30.1884C4.66339 16.8499 15.5055 5.99951 28.8307 5.99951C42.1559 5.99951 52.9981 16.8499 52.9981 30.1884C52.9981 43.5269 42.1573 54.3773 28.8307 54.3773ZM28.8307 6.34806C15.6957 6.34806 5.01093 17.0431 5.01093 30.1898C5.01093 43.3365 15.6957 54.0315 28.8307 54.0315C41.9657 54.0315 52.6512 43.3365 52.6512 30.1898C52.6512 17.0431 41.9657 6.34666 28.8307 6.34666V6.34806Z" fill="#ECF1FC"/>
<path d="M34.4042 18.3467H21.758C18.2642 18.3467 15.422 21.1937 15.422 24.6933V36.282C15.422 39.7816 18.2642 42.6286 21.758 42.6286H34.4042C37.898 42.6286 40.7402 39.7816 40.7402 36.282V24.6933C40.7402 21.1937 37.898 18.3467 34.4042 18.3467ZM17.6571 24.6933C17.6571 22.4286 19.497 20.5855 21.758 20.5855H34.4042C36.6651 20.5855 38.5051 22.4286 38.5051 24.6933V36.282C38.5051 38.5467 36.6651 40.3897 34.4042 40.3897H21.758C19.497 40.3897 17.6571 38.5467 17.6571 36.282V24.6933Z" fill="#ECF1FC"/>
<path d="M28.0811 36.3898C31.33 36.3898 33.9746 33.7422 33.9746 30.4864C33.9746 27.2306 31.3314 24.583 28.0811 24.583C24.8307 24.583 22.1875 27.2306 22.1875 30.4864C22.1875 33.7422 24.8307 36.3898 28.0811 36.3898ZM28.0811 26.8233C30.0986 26.8233 31.7395 28.467 31.7395 30.4878C31.7395 32.5087 30.0986 34.1524 28.0811 34.1524C26.0636 34.1524 24.4226 32.5087 24.4226 30.4878C24.4226 28.467 26.0636 26.8233 28.0811 26.8233Z" fill="#ECF1FC"/>
<path d="M34.5201 25.5366C35.395 25.5366 36.1081 24.8238 36.1081 23.9461C36.1081 23.0683 35.3964 22.3555 34.5201 22.3555C33.6438 22.3555 32.9322 23.0683 32.9322 23.9461C32.9322 24.8238 33.6438 25.5366 34.5201 25.5366Z" fill="#ECF1FC"/>
</svg>
