<svg width="58" height="59" viewBox="0 0 58 59" fill="none" xmlns="http://www.w3.org/2000/svg">
<path d="M28.3344 51.9234H28.2377C16.1414 51.9234 6.30005 42.0732 6.30005 29.9662V29.8693C6.30005 17.7622 16.1414 7.91211 28.2377 7.91211H28.3344C40.4307 7.91211 50.2721 17.7622 50.2721 29.8693V29.9662C50.2721 42.0732 40.4307 51.9234 28.3344 51.9234ZM28.2377 9.40185C16.9615 9.40185 7.78846 18.5831 7.78846 29.8693V29.9662C7.78846 41.2524 16.9615 50.4336 28.2377 50.4336H28.3344C39.6106 50.4336 48.7837 41.2524 48.7837 29.9662V29.8693C48.7837 18.5831 39.6106 9.40185 28.3344 9.40185H28.2377Z" fill="#F8A207"/>
<path d="M14.2511 54.6618C14.47 54.2839 14.8196 54.0284 15.1986 53.9143C15.5734 53.8094 15.9937 53.8115 16.3587 54.0018C16.5314 54.0893 16.6755 54.2104 16.7978 54.3483C16.9209 54.4812 17.0195 54.638 17.0887 54.8095C17.2279 55.151 17.2559 55.5507 17.1363 55.9314C20.2823 57.3067 23.6842 58.085 27.1148 58.2334C28.8308 58.3124 30.5531 58.2236 32.2516 57.9821C33.9508 57.7399 35.6284 57.3417 37.2535 56.793C40.5072 55.6956 43.5518 53.9885 46.1915 51.7895C48.834 49.5946 51.0605 46.9007 52.7317 43.9003C52.5688 43.7848 52.4345 43.6435 52.3289 43.4881C52.2248 43.332 52.1471 43.1598 52.0947 42.9793C51.9933 42.6195 52.015 42.2374 52.1898 41.8958C52.3695 41.5249 52.6758 41.2568 53.0548 41.1211C53.2436 41.0525 53.4464 41.0182 53.6527 41.0196C53.8582 41.021 54.0652 41.0595 54.2666 41.1442C54.468 41.2288 54.6442 41.3513 54.7869 41.5011C54.9267 41.6502 55.0351 41.8265 55.105 42.0211C55.2421 42.4068 55.2379 42.868 55.0379 43.2837C54.8421 43.6687 54.5246 43.9493 54.168 44.0893C53.9918 44.16 53.7988 44.195 53.6044 44.1908C53.4114 44.188 53.2184 44.1474 53.0338 44.0697C51.3423 47.1079 49.0885 49.8347 46.4125 52.0575C43.7406 54.2825 40.6582 56.0119 37.3633 57.1233C35.7172 57.679 34.0187 58.0822 32.2992 58.3278C30.5783 58.5735 28.835 58.6624 27.0987 58.5819C23.6262 58.4321 20.1816 57.644 16.9957 56.2513C16.7978 56.597 16.4797 56.8399 16.1063 56.9498C15.9203 57.005 15.7203 57.026 15.5182 57.012C15.3182 56.9945 15.1182 56.9316 14.9266 56.8343C14.5175 56.6222 14.2217 56.2814 14.1064 55.8747C13.9868 55.4744 14.0287 55.0412 14.2483 54.6632L14.2511 54.6618ZM53.052 43.6904C53.6485 44.0214 54.4023 43.7694 54.7288 43.1304C54.8855 42.8099 54.8869 42.4529 54.7785 42.1513C54.6687 41.8489 54.4428 41.597 54.1303 41.4626C53.8184 41.3275 53.4764 41.3289 53.1827 41.4346C52.887 41.5403 52.6464 41.7545 52.5024 42.0456C52.2066 42.6223 52.4541 43.36 53.0506 43.6904H53.052ZM14.5518 54.8354C14.384 55.1328 14.3546 55.473 14.4476 55.7858C14.5434 56.0917 14.7686 56.3598 15.086 56.5235C15.2448 56.604 15.4112 56.6509 15.5762 56.6649C15.7412 56.6761 15.9077 56.6481 16.0608 56.5956C16.3657 56.4871 16.6216 56.2639 16.7615 55.9524C16.9013 55.641 16.9027 55.3022 16.8006 55.009C16.7489 54.862 16.6699 54.7297 16.5699 54.6107C16.4713 54.4896 16.3482 54.3868 16.2035 54.3133C15.9133 54.1635 15.586 54.1551 15.286 54.2496C14.9902 54.3385 14.7196 54.5393 14.5532 54.8368L14.5518 54.8354Z" fill="#F8A207"/>
<mask id="mask0_3089_9412" style="mask-type:luminance" maskUnits="userSpaceOnUse" x="0" y="4" width="15" height="44">
<path d="M0 4.99414H14.5266V47.8162H0V4.99414Z" fill="white"/>
</mask>
<g mask="url(#mask0_3089_9412)">
<path d="M14.2511 5.90253C14.4685 6.28187 14.5161 6.7123 14.4245 7.09584C14.3329 7.47938 14.1189 7.84052 13.7707 8.06029C13.4427 8.26046 13.0763 8.34654 12.7085 8.29335C12.3421 8.24226 11.9813 8.06589 11.7106 7.77263C8.95064 9.81701 6.57033 12.3716 4.72707 15.2713C2.88101 18.1674 1.57688 21.4079 0.902084 24.7786C0.559444 26.4618 0.390221 28.18 0.367845 29.8968C0.346867 31.6158 0.479028 33.3354 0.767126 35.0284C1.34192 38.4152 2.54676 41.6977 4.3201 44.6414C4.50051 44.5581 4.69071 44.5119 4.87811 44.4986C5.06831 44.4832 5.25991 44.4986 5.44032 44.5455C5.80254 44.6372 6.11791 44.85 6.32839 45.1719C6.56754 45.5079 6.63816 45.9138 6.56754 46.31C6.52978 46.508 6.46195 46.6998 6.36055 46.8762C6.25776 47.0532 6.12071 47.2142 5.94589 47.3458C5.77177 47.4795 5.57947 47.5698 5.37669 47.6194C5.1739 47.6698 4.96412 47.6782 4.76483 47.6404C4.36065 47.5684 3.97186 47.329 3.70544 46.9518C3.46839 46.592 3.38797 46.1735 3.44462 45.7927C3.47398 45.6024 3.53622 45.4204 3.63342 45.2566C3.73341 45.09 3.86348 44.9431 4.02361 44.822C2.22859 41.8426 1.00767 38.5181 0.425884 35.09C0.13429 33.3753 0.00142969 31.6333 0.0224076 29.8954C0.0440849 28.1569 0.216104 26.4177 0.563639 24.7128C1.24612 21.3015 2.56774 18.0204 4.43687 15.0879C6.30391 12.1525 8.71289 9.56715 11.5072 7.49758C11.3072 7.15323 11.2554 6.75709 11.347 6.37915C11.44 6.00541 11.6666 5.63867 12.0344 5.41261C12.4246 5.16485 12.8672 5.08156 13.2735 5.17744C13.6805 5.27473 14.0343 5.52739 14.2532 5.90673L14.2511 5.90253ZM4.34527 45.0194C3.76278 45.3721 3.59845 46.1539 3.99144 46.7558C4.40611 47.3416 5.18928 47.4823 5.73331 47.0693C6.27734 46.6571 6.4158 45.8928 6.04029 45.3651C5.68716 44.822 4.93125 44.6652 4.34527 45.0194ZM13.9511 6.0761C13.7777 5.78495 13.4945 5.58198 13.1819 5.51549C12.8714 5.4483 12.5239 5.50569 12.2232 5.69886C11.919 5.88643 11.7358 6.19158 11.6764 6.51003C11.6162 6.82778 11.6834 7.16023 11.8827 7.43669C12.0826 7.71314 12.3756 7.88532 12.6812 7.94201C12.9861 7.9987 13.3029 7.93921 13.5805 7.76843C13.8553 7.59206 14.0287 7.31561 14.0951 7.00695C14.1609 6.699 14.1259 6.37075 13.9497 6.0747L13.9511 6.0761Z" fill="#F8A207"/>
</g>
<mask id="mask1_3089_9412" style="mask-type:luminance" maskUnits="userSpaceOnUse" x="24" y="0" width="34" height="31">
<path d="M24.5513 0.611328H58V30.4371H24.5513V0.611328Z" fill="white"/>
</mask>
<g mask="url(#mask1_3089_9412)">
<path d="M56.4412 30.2824C56.0042 30.2824 55.6042 30.106 55.3098 29.8352C55.0133 29.5643 54.835 29.1962 54.8133 28.7853C54.784 28.4018 54.9119 28.0406 55.1434 27.7474C55.3812 27.4541 55.6986 27.2337 56.0888 27.1462C55.721 23.7286 54.6882 20.3881 53.098 17.3442C51.5072 14.299 49.3521 11.5512 46.7746 9.28151C44.1985 7.01037 41.2063 5.21165 37.982 4.02394C34.7598 2.83622 31.3159 2.26371 27.8839 2.31411C27.8462 2.71094 27.6657 3.06929 27.4063 3.32965C27.2763 3.45983 27.1245 3.56551 26.9581 3.6404C26.7917 3.72228 26.6113 3.77688 26.4197 3.79017C26.2141 3.80557 26.0148 3.77688 25.8288 3.70969C25.7358 3.67679 25.6456 3.6334 25.5596 3.58371C25.4728 3.53751 25.3924 3.48222 25.3162 3.41993C25.0127 3.16937 24.7876 2.79703 24.7323 2.3638C24.6764 1.93057 24.8057 1.51343 25.0708 1.19148C25.1372 1.111 25.2106 1.03611 25.2924 0.967519C25.3749 0.902429 25.4652 0.848538 25.561 0.799546C25.7519 0.703661 25.9672 0.64277 26.198 0.625973C26.4127 0.610575 26.6196 0.631572 26.8112 0.689663C27.0028 0.755453 27.1777 0.852737 27.3287 0.975918C27.6301 1.22228 27.8301 1.57082 27.8797 1.96626C31.3537 1.91517 34.8402 2.49608 38.103 3.69779C41.3658 4.8988 44.3971 6.71991 47.0032 9.02045C49.6115 11.3196 51.7946 14.1009 53.4043 17.1833C55.0147 20.2656 56.0608 23.6467 56.4328 27.107C56.83 27.107 57.2139 27.2596 57.4845 27.529C57.7594 27.7971 57.944 28.1792 57.9761 28.609C58.0027 29.0702 57.8251 29.4964 57.5489 29.7995C57.2699 30.1032 56.8769 30.2824 56.4412 30.2824ZM27.5441 2.14823C27.5357 1.80669 27.3867 1.50153 27.1469 1.28317C27.0273 1.17609 26.8847 1.083 26.728 1.03191C26.5707 0.980117 26.3987 0.95842 26.2211 0.971718C25.8658 0.998314 25.5554 1.16209 25.3484 1.40285C25.1414 1.65551 25.0372 1.98026 25.0764 2.31971C25.1148 2.65845 25.2875 2.94891 25.5246 3.14488C25.7644 3.35134 26.07 3.46822 26.3945 3.44303C26.5574 3.43043 26.7098 3.38494 26.8483 3.31145C26.9875 3.23796 27.1112 3.14907 27.2147 3.03219C27.4231 2.80263 27.5525 2.48908 27.5427 2.14823H27.5441ZM56.4315 29.9352C56.7727 29.931 57.0783 29.7883 57.2964 29.5503C57.5111 29.3144 57.6517 28.9848 57.6279 28.6279C57.5734 27.9112 56.9769 27.389 56.2979 27.4611C55.6196 27.5346 55.1077 28.1197 55.156 28.7657C55.1784 29.0905 55.314 29.3809 55.5462 29.5937C55.7748 29.8044 56.0888 29.938 56.4301 29.9352H56.4315Z" fill="#F8A207"/>
</g>
<path d="M28.3127 54.4715C14.9875 54.4715 4.14539 43.6211 4.14539 30.2826C4.14539 16.9441 14.9875 6.09375 28.3127 6.09375C41.6379 6.09375 52.4801 16.9441 52.4801 30.2826C52.4801 43.6211 41.6393 54.4715 28.3127 54.4715ZM28.3127 6.44229C15.1777 6.44229 4.49292 17.1373 4.49292 30.284C4.49292 43.4308 15.1777 54.1258 28.3127 54.1258C41.4477 54.1258 52.1332 43.4308 52.1332 30.284C52.1332 17.1373 41.4477 6.4409 28.3127 6.4409V6.44229Z" fill="#F8A207"/>
<path d="M33.8862 18.4414H21.2399C17.7462 18.4414 14.9039 21.2884 14.9039 24.788V36.3767C14.9039 39.8763 17.7462 42.7233 21.2399 42.7233H33.8862C37.38 42.7233 40.2222 39.8763 40.2222 36.3767V24.788C40.2222 21.2884 37.38 18.4414 33.8862 18.4414ZM17.1391 24.788C17.1391 22.5233 18.979 20.6803 21.2399 20.6803H33.8862C36.1471 20.6803 37.9871 22.5233 37.9871 24.788V36.3767C37.9871 38.6414 36.1471 40.4845 33.8862 40.4845H21.2399C18.979 40.4845 17.1391 38.6414 17.1391 36.3767V24.788Z" fill="#F8A207"/>
<path d="M27.563 36.4845C30.8119 36.4845 33.4566 33.8369 33.4566 30.5811C33.4566 27.3254 30.8133 24.6777 27.563 24.6777C24.3127 24.6777 21.6694 27.3254 21.6694 30.5811C21.6694 33.8369 24.3127 36.4845 27.563 36.4845ZM27.563 26.918C29.5805 26.918 31.2214 28.5617 31.2214 30.5826C31.2214 32.6034 29.5805 34.2471 27.563 34.2471C25.5455 34.2471 23.9046 32.6034 23.9046 30.5826C23.9046 28.5617 25.5455 26.918 27.563 26.918Z" fill="#F8A207"/>
<path d="M34.0021 25.6304C34.877 25.6304 35.5901 24.9176 35.5901 24.0398C35.5901 23.1621 34.8784 22.4492 34.0021 22.4492C33.1258 22.4492 32.4142 23.1621 32.4142 24.0398C32.4142 24.9176 33.1258 25.6304 34.0021 25.6304Z" fill="#F8A207"/>
</svg>
