<svg width="59" height="59" viewBox="0 0 59 59" fill="none" xmlns="http://www.w3.org/2000/svg">
<path d="M28.8525 51.3277H28.7558C16.6595 51.3277 6.81812 41.4775 6.81812 29.3705V29.2736C6.81812 17.1665 16.6595 7.31641 28.7558 7.31641H28.8525C40.9488 7.31641 50.7902 17.1665 50.7902 29.2736V29.3705C50.7902 41.4775 40.9488 51.3277 28.8525 51.3277ZM28.7558 8.80614C17.4796 8.80614 8.30652 17.9874 8.30652 29.2736V29.3705C8.30652 40.6567 17.4796 49.8379 28.7558 49.8379H28.8525C40.1287 49.8379 49.3017 40.6567 49.3017 29.3705V29.2736C49.3017 17.9874 40.1287 8.80614 28.8525 8.80614H28.7558Z" fill="#4176DE"/>
<path d="M14.7692 54.0676C14.988 53.6896 15.3377 53.4342 15.7167 53.3201C16.0915 53.2151 16.5118 53.2172 16.8768 53.4076C17.0495 53.4951 17.1935 53.6162 17.3159 53.754C17.439 53.887 17.5376 54.0438 17.6068 54.2153C17.746 54.5568 17.7739 54.9564 17.6544 55.3372C20.8003 56.7125 24.2023 57.4907 27.6329 57.6391C29.3489 57.7182 31.0712 57.6293 32.7697 57.3879C34.4689 57.1457 36.1464 56.7475 37.7715 56.1987C41.0252 55.1013 44.0698 53.3943 46.7096 51.1952C49.3521 49.0004 51.5785 46.3065 53.2498 43.3061C53.0869 43.1906 52.9526 43.0492 52.847 42.8938C52.7428 42.7378 52.6652 42.5656 52.6128 42.385C52.5114 42.0253 52.533 41.6431 52.7079 41.3016C52.8876 40.9307 53.1938 40.6626 53.5728 40.5268C53.7617 40.4582 53.9644 40.4239 54.1707 40.4253C54.3763 40.4267 54.5833 40.4652 54.7847 40.5499C54.9861 40.6346 55.1623 40.7571 55.3049 40.9069C55.4448 41.0559 55.5532 41.2323 55.6231 41.4269C55.7602 41.8125 55.756 42.2737 55.556 42.6895C55.3602 43.0744 55.0427 43.3551 54.6861 43.495C54.5099 43.5657 54.3169 43.6007 54.1225 43.5965C53.9295 43.5937 53.7365 43.5531 53.5519 43.4755C51.8603 46.5137 49.6066 49.2404 46.9305 51.4633C44.2586 53.6882 41.1763 55.4177 37.8813 56.5291C36.2352 57.0848 34.5367 57.4879 32.8172 57.7336C31.0963 57.9793 29.3531 58.0681 27.6168 57.9877C24.1442 57.8379 20.6997 57.0498 17.5138 55.657C17.3159 56.0028 16.9977 56.2456 16.6243 56.3555C16.4383 56.4108 16.2383 56.4318 16.0362 56.4178C15.8363 56.4003 15.6363 56.3373 15.4447 56.24C15.0356 56.028 14.7398 55.6871 14.6244 55.2805C14.5049 54.8802 14.5468 54.4469 14.7664 54.069L14.7692 54.0676ZM53.57 43.0961C54.1665 43.4272 54.9203 43.1752 55.2469 42.5362C55.4035 42.2157 55.4049 41.8587 55.2965 41.5571C55.1868 41.2547 54.9609 41.0027 54.6483 40.8684C54.3364 40.7333 53.9945 40.7347 53.7008 40.8404C53.405 40.9461 53.1645 41.1602 53.0204 41.4514C52.7246 42.0281 52.9722 42.7658 53.5687 43.0961H53.57ZM15.0699 54.2412C14.902 54.5386 14.8727 54.8788 14.9657 55.1916C15.0615 55.4975 15.2866 55.7655 15.6041 55.9293C15.7628 56.0098 15.9293 56.0567 16.0943 56.0707C16.2593 56.0819 16.4257 56.0539 16.5789 56.0014C16.8838 55.8929 17.1397 55.6696 17.2795 55.3582C17.4194 55.0467 17.4208 54.708 17.3187 54.4147C17.267 54.2677 17.1879 54.1355 17.0879 54.0165C16.9893 53.8954 16.8663 53.7925 16.7215 53.719C16.4313 53.5693 16.1041 53.5609 15.8041 53.6553C15.5083 53.7442 15.2377 53.9451 15.0713 54.2426L15.0699 54.2412Z" fill="#4176DE"/>
<mask id="mask0_3054_6419" style="mask-type:luminance" maskUnits="userSpaceOnUse" x="0" y="4" width="16" height="44">
<path d="M0.518066 4.3999H15.0446V47.2219H0.518066V4.3999Z" fill="white"/>
</mask>
<g mask="url(#mask0_3054_6419)">
<path d="M14.7691 5.30927C14.9866 5.68861 15.0342 6.11904 14.9426 6.50258C14.851 6.88612 14.637 7.24726 14.2887 7.46703C13.9608 7.6672 13.5944 7.75328 13.2266 7.70009C12.8601 7.649 12.4993 7.47263 12.2287 7.17937C9.4687 9.22375 7.0884 11.7783 5.24514 14.678C3.39907 17.5741 2.09494 20.8146 1.42015 24.1853C1.07751 25.8685 0.908288 27.5868 0.885911 29.3036C0.864933 31.0225 0.997095 32.7421 1.28519 34.4352C1.85999 37.8219 3.06482 41.1044 4.83816 44.0482C5.01857 43.9649 5.20877 43.9187 5.39618 43.9054C5.58638 43.89 5.77798 43.9054 5.95839 43.9523C6.32061 44.044 6.63598 44.2567 6.84646 44.5787C7.0856 44.9146 7.15623 45.3206 7.0856 45.7167C7.04784 45.9148 6.98001 46.1065 6.87862 46.2829C6.77583 46.46 6.63877 46.6209 6.46396 46.7525C6.28984 46.8862 6.09754 46.9765 5.89475 47.0262C5.69197 47.0766 5.48219 47.085 5.2829 47.0472C4.87872 46.9751 4.48993 46.7357 4.22351 46.3585C3.98646 45.9987 3.90604 45.5802 3.96268 45.1995C3.99205 45.0091 4.05429 44.8271 4.15148 44.6634C4.25148 44.4968 4.38154 44.3498 4.54167 44.2287C2.74666 41.2493 1.52574 37.9248 0.94395 34.4968C0.652356 32.782 0.519496 31.04 0.540474 29.3022C0.562151 27.5637 0.734171 25.8244 1.08171 24.1195C1.76419 20.7082 3.0858 17.4272 4.95494 14.4946C6.82198 11.5593 9.23095 8.97389 12.0252 6.90432C11.8252 6.55997 11.7735 6.16383 11.8651 5.78589C11.9581 5.41215 12.1847 5.04541 12.5525 4.81934C12.9427 4.57158 13.3853 4.4883 13.7916 4.58418C14.1985 4.68147 14.5524 4.93413 14.7712 5.31347L14.7691 5.30927ZM4.86334 44.4261C4.28085 44.7788 4.11652 45.5606 4.50951 46.1625C4.92417 46.7483 5.70735 46.889 6.25138 46.4761C6.79541 46.0638 6.93386 45.2996 6.55836 44.7718C6.20523 44.2287 5.44932 44.0719 4.86334 44.4261ZM14.4692 5.48284C14.2957 5.19169 14.0125 4.98872 13.7 4.92223C13.3895 4.85504 13.042 4.91243 12.7413 5.1056C12.4371 5.29317 12.2539 5.59832 12.1944 5.91677C12.1343 6.23452 12.2014 6.56697 12.4007 6.84343C12.6007 7.11988 12.8937 7.29205 13.1993 7.34875C13.5042 7.40544 13.8209 7.34595 14.0985 7.17517C14.3734 6.9988 14.5468 6.72234 14.6132 6.41369C14.6789 6.10574 14.644 5.77749 14.4678 5.48144L14.4692 5.48284Z" fill="#4176DE"/>
</g>
<mask id="mask1_3054_6419" style="mask-type:luminance" maskUnits="userSpaceOnUse" x="25" y="0" width="34" height="30">
<path d="M25.0693 0.0166016H58.518V29.8424H25.0693V0.0166016Z" fill="white"/>
</mask>
<g mask="url(#mask1_3054_6419)">
<path d="M56.9593 29.6886C56.5223 29.6886 56.1223 29.5123 55.8279 29.2414C55.5314 28.9706 55.3531 28.6024 55.3314 28.1916C55.302 27.808 55.43 27.4469 55.6615 27.1536C55.8992 26.8604 56.2167 26.6399 56.6069 26.5524C56.2391 23.1349 55.2062 19.7943 53.6161 16.7505C52.0253 13.7053 49.8701 10.9575 47.2927 8.68776C44.7166 6.41662 41.7244 4.6179 38.5001 3.43019C35.2779 2.24247 31.834 1.66996 28.402 1.72036C28.3642 2.11719 28.1838 2.47554 27.9244 2.7359C27.7943 2.86608 27.6426 2.97176 27.4762 3.04665C27.3097 3.12853 27.1293 3.18313 26.9377 3.19642C26.7321 3.21182 26.5328 3.18313 26.3468 3.11594C26.2538 3.08304 26.1636 3.03965 26.0776 2.98996C25.9909 2.94376 25.9105 2.88847 25.8343 2.82618C25.5308 2.57562 25.3056 2.20328 25.2504 1.77005C25.1944 1.33682 25.3238 0.919683 25.5888 0.597734C25.6553 0.517246 25.7287 0.442358 25.8105 0.373769C25.893 0.308679 25.9832 0.254788 26.079 0.205796C26.2699 0.109911 26.4853 0.0490203 26.7161 0.0322229C26.9307 0.0168253 27.1377 0.0378222 27.3293 0.0959129C27.5209 0.161703 27.6957 0.258987 27.8468 0.382168C28.1481 0.628529 28.3481 0.977074 28.3978 1.37251C31.8717 1.32142 35.3583 1.90233 38.6211 3.10404C41.8838 4.30505 44.9151 6.12616 47.5213 8.4267C50.1296 10.7258 52.3127 13.5072 53.9224 16.5895C55.5328 19.6718 56.5789 23.053 56.9509 26.5132C57.3481 26.5132 57.732 26.6658 58.0026 26.9353C58.2774 27.2033 58.462 27.5855 58.4942 28.0152C58.5208 28.4764 58.3432 28.9027 58.0669 29.2057C57.7879 29.5095 57.395 29.6886 56.9593 29.6886ZM28.0621 1.55448C28.0537 1.21294 27.9048 0.907785 27.665 0.689419C27.5454 0.582336 27.4027 0.489251 27.2461 0.438159C27.0888 0.386367 26.9167 0.36467 26.7391 0.377968C26.3839 0.404564 26.0734 0.568338 25.8664 0.8091C25.6595 1.06176 25.5553 1.38651 25.5944 1.72596C25.6329 2.0647 25.8056 2.35516 26.0427 2.55113C26.2825 2.75759 26.5881 2.87447 26.9125 2.84928C27.0755 2.83668 27.2279 2.79119 27.3664 2.7177C27.5055 2.64421 27.6293 2.55532 27.7328 2.43844C27.9412 2.20888 28.0705 1.89533 28.0607 1.55448H28.0621ZM56.9495 29.3415C57.2908 29.3373 57.5963 29.1945 57.8145 28.9566C58.0292 28.7207 58.1697 28.391 58.146 28.0341C58.0914 27.3174 57.4949 26.7953 56.816 26.8674C56.1377 26.9409 55.6258 27.526 55.6741 28.172C55.6964 28.4967 55.8321 28.7872 56.0642 29C56.2929 29.2106 56.6069 29.3443 56.9481 29.3415H56.9495Z" fill="#4176DE"/>
</g>
<path d="M28.8309 53.8773C15.5057 53.8773 4.66357 43.0269 4.66357 29.6884C4.66357 16.3499 15.5057 5.49951 28.8309 5.49951C42.1561 5.49951 52.9982 16.3499 52.9982 29.6884C52.9982 43.0269 42.1575 53.8773 28.8309 53.8773ZM28.8309 5.84806C15.6959 5.84806 5.01111 16.5431 5.01111 29.6898C5.01111 42.8365 15.6959 53.5315 28.8309 53.5315C41.9659 53.5315 52.6514 42.8365 52.6514 29.6898C52.6514 16.5431 41.9659 5.84666 28.8309 5.84666V5.84806Z" fill="#4176DE"/>
<path d="M34.4041 17.8467H21.7579C18.2641 17.8467 15.4219 20.6937 15.4219 24.1933V35.782C15.4219 39.2816 18.2641 42.1286 21.7579 42.1286H34.4041C37.8979 42.1286 40.7402 39.2816 40.7402 35.782V24.1933C40.7402 20.6937 37.8979 17.8467 34.4041 17.8467ZM17.657 24.1933C17.657 21.9286 19.497 20.0855 21.7579 20.0855H34.4041C36.6651 20.0855 38.505 21.9286 38.505 24.1933V35.782C38.505 38.0467 36.6651 39.8897 34.4041 39.8897H21.7579C19.497 39.8897 17.657 38.0467 17.657 35.782V24.1933Z" fill="#4176DE"/>
<path d="M28.0811 35.8898C31.33 35.8898 33.9746 33.2422 33.9746 29.9864C33.9746 26.7306 31.3314 24.083 28.0811 24.083C24.8307 24.083 22.1875 26.7306 22.1875 29.9864C22.1875 33.2422 24.8307 35.8898 28.0811 35.8898ZM28.0811 26.3233C30.0986 26.3233 31.7395 27.967 31.7395 29.9878C31.7395 32.0087 30.0986 33.6524 28.0811 33.6524C26.0636 33.6524 24.4226 32.0087 24.4226 29.9878C24.4226 27.967 26.0636 26.3233 28.0811 26.3233Z" fill="#4176DE"/>
<path d="M34.5201 25.0366C35.3949 25.0366 36.108 24.3238 36.108 23.4461C36.108 22.5683 35.3964 21.8555 34.5201 21.8555C33.6438 21.8555 32.9321 22.5683 32.9321 23.4461C32.9321 24.3238 33.6438 25.0366 34.5201 25.0366Z" fill="#4176DE"/>
</svg>
