<svg width="59" height="58" viewBox="0 0 59 58" fill="none" xmlns="http://www.w3.org/2000/svg">
<path d="M28.7493 51.3441H28.6524C16.5363 51.3441 6.67871 41.4866 6.67871 29.3704V29.2735C6.67871 17.1573 16.5363 7.2998 28.6524 7.2998H28.7493C40.8655 7.2998 50.723 17.1573 50.723 29.2735V29.3704C50.723 41.4866 40.8655 51.3441 28.7493 51.3441ZM28.6524 8.79066C17.3577 8.79066 8.16956 17.9788 8.16956 29.2735V29.3704C8.16956 40.6651 17.3577 49.8533 28.6524 49.8533H28.7493C40.044 49.8533 49.2322 40.6651 49.2322 29.3704V29.2735C49.2322 17.9788 40.044 8.79066 28.7493 8.79066H28.6524Z" fill="#4176DE"/>
<path d="M14.6298 54.051C14.8486 53.673 15.1983 53.4176 15.5773 53.3035C15.9521 53.1985 16.3723 53.2006 16.7374 53.391C16.9101 53.4785 17.0541 53.5995 17.1765 53.7374C17.2996 53.8704 17.3982 54.0272 17.4674 54.1986C17.6065 54.5402 17.6345 54.9398 17.5149 55.3206C20.6609 56.6959 24.0629 57.4741 27.4935 57.6225C29.2095 57.7016 30.9318 57.6127 32.6303 57.3712C34.3295 57.1291 36.007 56.7308 37.6321 56.1821C40.8858 55.0847 43.9304 53.3777 46.5701 51.1786C49.2127 48.9838 51.4391 46.2899 53.1104 43.2895C52.9474 43.174 52.8132 43.0326 52.7076 42.8772C52.6034 42.7212 52.5258 42.549 52.4733 42.3684C52.372 42.0087 52.3936 41.6265 52.5684 41.285C52.7482 40.9141 53.0544 40.646 53.4334 40.5102C53.6222 40.4416 53.825 40.4073 54.0313 40.4087C54.2369 40.4101 54.4439 40.4486 54.6453 40.5333C54.8467 40.618 55.0229 40.7405 55.1655 40.8903C55.3054 41.0393 55.4138 41.2157 55.4837 41.4103C55.6207 41.7959 55.6165 42.2571 55.4166 42.6729C55.2208 43.0578 54.9033 43.3385 54.5467 43.4784C54.3705 43.5491 54.1775 43.5841 53.9831 43.5799C53.7901 43.5771 53.5971 43.5365 53.4125 43.4588C51.7209 46.4971 49.4672 49.2238 46.7911 51.4467C44.1192 53.6716 41.0369 55.4011 37.7419 56.5125C36.0958 57.0682 34.3973 57.4713 32.6778 57.717C30.9569 57.9627 29.2137 58.0515 27.4774 57.9711C24.0048 57.8213 20.5602 57.0332 17.3744 55.6404C17.1765 55.9862 16.8583 56.229 16.4849 56.3389C16.2989 56.3942 16.0989 56.4152 15.8968 56.4012C15.6969 56.3837 15.4969 56.3207 15.3053 56.2234C14.8962 56.0114 14.6004 55.6705 14.485 55.2639C14.3655 54.8635 14.4074 54.4303 14.627 54.0524L14.6298 54.051ZM53.4306 43.0795C54.0271 43.4106 54.7809 43.1586 55.1075 42.5196C55.2641 42.199 55.2655 41.8421 55.1571 41.5405C55.0473 41.2381 54.8215 40.9861 54.5089 40.8518C54.197 40.7167 53.8551 40.7181 53.5614 40.8238C53.2656 40.9295 53.0251 41.1436 52.881 41.4348C52.5852 42.0115 52.8328 42.7492 53.4292 43.0795H53.4306ZM14.9305 54.2245C14.7626 54.522 14.7333 54.8621 14.8263 55.175C14.9221 55.4808 15.1472 55.7489 15.4647 55.9127C15.6234 55.9932 15.7899 56.0401 15.9549 56.0541C16.1199 56.0653 16.2863 56.0373 16.4395 55.9848C16.7444 55.8763 17.0003 55.653 17.1401 55.3416C17.28 55.0301 17.2814 54.6914 17.1793 54.3981C17.1276 54.2511 17.0485 54.1189 16.9485 53.9999C16.8499 53.8788 16.7269 53.7759 16.5821 53.7024C16.2919 53.5527 15.9647 53.5443 15.6647 53.6387C15.3689 53.7276 15.0983 53.9285 14.9319 54.2259L14.9305 54.2245Z" fill="#4176DE"/>
<mask id="mask0_3054_6422" style="mask-type:luminance" maskUnits="userSpaceOnUse" x="0" y="4" width="15" height="44">
<path d="M0.378662 4.3833H14.9052V47.2053H0.378662V4.3833Z" fill="white"/>
</mask>
<g mask="url(#mask0_3054_6422)">
<path d="M14.6297 5.29267C14.8472 5.67201 14.8948 6.10244 14.8032 6.48598C14.7115 6.86952 14.4976 7.23066 14.1493 7.45042C13.8214 7.65059 13.455 7.73668 13.0872 7.68349C12.7207 7.6324 12.3599 7.45602 12.0893 7.16277C9.3293 9.20715 6.949 11.7617 5.10573 14.6614C3.25967 17.5575 1.95554 20.798 1.28075 24.1687C0.938106 25.8519 0.768884 27.5701 0.746507 29.287C0.725529 31.0059 0.85769 32.7255 1.14579 34.4186C1.72058 37.8053 2.92542 41.0878 4.69876 44.0315C4.87917 43.9482 5.06937 43.9021 5.25677 43.8888C5.44697 43.8734 5.63857 43.8888 5.81898 43.9356C6.1812 44.0273 6.49657 44.2401 6.70705 44.562C6.9462 44.898 7.01683 45.3039 6.9462 45.7001C6.90844 45.8981 6.84061 46.0899 6.73922 46.2663C6.63643 46.4434 6.49937 46.6043 6.32455 46.7359C6.15043 46.8696 5.95814 46.9599 5.75535 47.0096C5.55256 47.06 5.34278 47.0684 5.14349 47.0306C4.73932 46.9585 4.35052 46.7191 4.0841 46.3419C3.84705 45.9821 3.76664 45.5636 3.82328 45.1829C3.85265 44.9925 3.91488 44.8105 4.01208 44.6467C4.11207 44.4802 4.24214 44.3332 4.40227 44.2121C2.60725 41.2327 1.38634 37.9082 0.804546 34.4801C0.512952 32.7654 0.380092 31.0234 0.40107 29.2856C0.422747 27.547 0.594766 25.8078 0.942302 24.1029C1.62479 20.6916 2.9464 17.4105 4.81554 14.478C6.68258 11.5427 9.09155 8.95729 11.8858 6.88771C11.6858 6.54337 11.6341 6.14723 11.7257 5.76929C11.8187 5.39555 12.0452 5.02881 12.4131 4.80274C12.8033 4.55498 13.2459 4.4717 13.6522 4.56758C14.0591 4.66486 14.413 4.91752 14.6318 5.29686L14.6297 5.29267ZM4.72393 44.4095C4.14144 44.7622 3.97712 45.544 4.3701 46.1459C4.78477 46.7317 5.56795 46.8724 6.11197 46.4594C6.656 46.0472 6.79446 45.2829 6.41895 44.7552C6.06582 44.2121 5.30992 44.0553 4.72393 44.4095ZM14.3297 5.46624C14.1563 5.17508 13.8731 4.97212 13.5606 4.90563C13.2501 4.83844 12.9025 4.89583 12.6019 5.089C12.2977 5.27657 12.1145 5.58172 12.055 5.90017C11.9949 6.21792 12.062 6.55037 12.2613 6.82682C12.4613 7.10328 12.7543 7.27545 13.0599 7.33214C13.3648 7.38883 13.6815 7.32934 13.9591 7.15857C14.2339 6.9822 14.4074 6.70574 14.4738 6.39709C14.5395 6.08914 14.5046 5.76089 14.3284 5.46484L14.3297 5.46624Z" fill="#4176DE"/>
</g>
<mask id="mask1_3054_6422" style="mask-type:luminance" maskUnits="userSpaceOnUse" x="24" y="0" width="35" height="30">
<path d="M24.9299 0H58.3786V29.8258H24.9299V0Z" fill="white"/>
</mask>
<g mask="url(#mask1_3054_6422)">
<path d="M56.8199 29.672C56.3829 29.672 55.9829 29.4957 55.6885 29.2248C55.392 28.9539 55.2137 28.5858 55.192 28.175C55.1626 27.7914 55.2906 27.4303 55.5221 27.137C55.7598 26.8438 56.0773 26.6233 56.4675 26.5358C56.0997 23.1183 55.0668 19.7777 53.4767 16.7339C51.8859 13.6887 49.7307 10.9409 47.1532 8.67115C44.5772 6.40001 41.585 4.60129 38.3607 3.41358C35.1385 2.22587 31.6946 1.65336 28.2626 1.70375C28.2248 2.10059 28.0444 2.45893 27.785 2.71929C27.6549 2.84947 27.5032 2.95516 27.3368 3.03004C27.1703 3.11193 26.9899 3.16652 26.7983 3.17982C26.5927 3.19522 26.3934 3.16652 26.2074 3.09933C26.1144 3.06644 26.0242 3.02305 25.9382 2.97335C25.8515 2.92716 25.7711 2.87187 25.6949 2.80958C25.3914 2.55902 25.1662 2.18668 25.111 1.75345C25.055 1.32021 25.1844 0.903081 25.4494 0.581132C25.5159 0.500645 25.5893 0.425756 25.6711 0.357167C25.7536 0.292077 25.8438 0.238186 25.9396 0.189194C26.1305 0.0933091 26.3459 0.0324187 26.5766 0.0156214C26.7913 0.000223718 26.9983 0.0212206 27.1899 0.0793113C27.3815 0.145101 27.5563 0.242385 27.7074 0.365566C28.0087 0.611927 28.2087 0.960472 28.2584 1.35591C31.7323 1.30482 35.2189 1.88573 38.4817 3.08743C41.7444 4.28844 44.7757 6.10956 47.3819 8.41009C49.9902 10.7092 52.1733 13.4906 53.783 16.5729C55.3934 19.6552 56.4395 23.0364 56.8115 26.4966C57.2087 26.4966 57.5926 26.6492 57.8632 26.9187C58.138 27.1867 58.3226 27.5689 58.3548 27.9986C58.3814 28.4598 58.2037 28.886 57.9275 29.1891C57.6485 29.4929 57.2555 29.672 56.8199 29.672ZM27.9227 1.53788C27.9143 1.19633 27.7654 0.891183 27.5256 0.672817C27.406 0.565734 27.2633 0.472649 27.1067 0.421557C26.9494 0.369765 26.7773 0.348069 26.5997 0.361367C26.2445 0.387962 25.934 0.551736 25.727 0.792498C25.5201 1.04516 25.4159 1.36991 25.455 1.70935C25.4935 2.0481 25.6662 2.33855 25.9033 2.53452C26.1431 2.74099 26.4487 2.85787 26.7731 2.83268C26.9361 2.82008 27.0885 2.77458 27.227 2.7011C27.3661 2.62761 27.4899 2.53872 27.5934 2.42184C27.8018 2.19228 27.9311 1.87873 27.9213 1.53788H27.9227ZM56.8101 29.3249C57.1513 29.3207 57.4569 29.1779 57.6751 28.9399C57.8898 28.7041 58.0303 28.3744 58.0066 28.0175C57.952 27.3008 57.3555 26.7787 56.6765 26.8508C55.9983 26.9243 55.4864 27.5094 55.5346 28.1554C55.557 28.4801 55.6927 28.7706 55.9248 28.9833C56.1535 29.194 56.4675 29.3277 56.8087 29.3249H56.8101Z" fill="#4176DE"/>
</g>
<path d="M28.6913 53.8607C15.366 53.8607 4.52393 43.0103 4.52393 29.6718C4.52393 16.3333 15.366 5.48291 28.6913 5.48291C42.0165 5.48291 52.8586 16.3333 52.8586 29.6718C52.8586 43.0103 42.0179 53.8607 28.6913 53.8607ZM28.6913 5.83146C15.5562 5.83146 4.87146 16.5265 4.87146 29.6732C4.87146 42.8199 15.5562 53.5149 28.6913 53.5149C41.8263 53.5149 52.5117 42.8199 52.5117 29.6732C52.5117 16.5265 41.8263 5.83006 28.6913 5.83006V5.83146Z" fill="#4176DE"/>
<path d="M17.2954 23.1346C16.7554 22.6333 16.4868 22.0129 16.4868 21.2746C16.4868 20.5364 16.7568 19.8886 17.2954 19.3859C17.8355 18.8846 18.5306 18.6333 19.3823 18.6333C20.234 18.6333 20.9019 18.8846 21.4405 19.3859C21.9805 19.8872 22.2491 20.5177 22.2491 21.2746C22.2491 22.0315 21.9791 22.6333 21.4405 23.1346C20.9005 23.6358 20.2154 23.8872 19.3823 23.8872C18.5493 23.8872 17.8355 23.6358 17.2954 23.1346ZM21.7953 26.01V41.3781H16.9392V26.01H21.7953Z" fill="#4176DE"/>
<path d="M37.9605 27.5282C39.019 28.6772 39.5476 30.2543 39.5476 32.2622V41.1067H34.9358V32.8855C34.9358 31.8729 34.6729 31.0859 34.1487 30.5257C33.6244 29.9656 32.9178 29.6841 32.0331 29.6841C31.1483 29.6841 30.4416 29.9641 29.9174 30.5257C29.3932 31.0859 29.1303 31.8729 29.1303 32.8855V41.1067H24.4912V25.967H29.1303V27.9749C29.6 27.3056 30.2334 26.777 31.0291 26.3878C31.8248 25.9986 32.7196 25.8047 33.7149 25.8047C35.4873 25.8047 36.9034 26.3792 37.9605 27.5282Z" fill="#4176DE"/>
</svg>
