<svg width="59" height="59" viewBox="0 0 59 59" fill="none" xmlns="http://www.w3.org/2000/svg">
<path d="M28.7493 51.8441H28.6524C16.5362 51.8441 6.67869 41.9866 6.67869 29.8704V29.7735C6.67869 17.6573 16.5362 7.7998 28.6524 7.7998H28.7493C40.8654 7.7998 50.723 17.6573 50.723 29.7735V29.8704C50.723 41.9866 40.8654 51.8441 28.7493 51.8441ZM28.6524 9.29066C17.3577 9.29066 8.16954 18.4788 8.16954 29.7735V29.8704C8.16954 41.1651 17.3577 50.3533 28.6524 50.3533H28.7493C40.044 50.3533 49.2321 41.1651 49.2321 29.8704V29.7735C49.2321 18.4788 40.044 9.29066 28.7493 9.29066H28.6524Z" fill="#ECF1FC"/>
<path d="M14.6299 54.551C14.8487 54.173 15.1984 53.9176 15.5774 53.8035C15.9522 53.6985 16.3724 53.7006 16.7375 53.891C16.9102 53.9785 17.0542 54.0995 17.1766 54.2374C17.2997 54.3704 17.3983 54.5272 17.4675 54.6986C17.6066 55.0402 17.6346 55.4398 17.515 55.8206C20.661 57.1959 24.063 57.9741 27.4936 58.1225C29.2096 58.2016 30.9319 58.1127 32.6304 57.8712C34.3296 57.6291 36.0071 57.2308 37.6322 56.6821C40.8859 55.5847 43.9305 53.8777 46.5702 51.6786C49.2128 49.4838 51.4392 46.7899 53.1105 43.7895C52.9475 43.674 52.8133 43.5326 52.7077 43.3772C52.6035 43.2212 52.5259 43.049 52.4734 42.8684C52.372 42.5087 52.3937 42.1265 52.5685 41.785C52.7483 41.4141 53.0545 41.146 53.4335 41.0102C53.6223 40.9416 53.8251 40.9073 54.0314 40.9087C54.237 40.9101 54.444 40.9486 54.6454 41.0333C54.8467 41.118 55.023 41.2405 55.1656 41.3903C55.3055 41.5393 55.4139 41.7157 55.4838 41.9103C55.6208 42.2959 55.6166 42.7571 55.4166 43.1729C55.2209 43.5578 54.9034 43.8385 54.5468 43.9784C54.3705 44.0491 54.1776 44.0841 53.9832 44.0799C53.7902 44.0771 53.5972 44.0365 53.4126 43.9588C51.721 46.9971 49.4673 49.7238 46.7912 51.9467C44.1193 54.1716 41.0369 55.9011 37.742 57.0125C36.0959 57.5682 34.3974 57.9713 32.6779 58.217C30.957 58.4627 29.2138 58.5515 27.4775 58.4711C24.0049 58.3213 20.5603 57.5332 17.3745 56.1404C17.1766 56.4862 16.8584 56.729 16.485 56.8389C16.299 56.8942 16.099 56.9152 15.8969 56.9012C15.6969 56.8837 15.497 56.8207 15.3054 56.7234C14.8963 56.5114 14.6005 56.1705 14.4851 55.7639C14.3655 55.3635 14.4075 54.9303 14.6271 54.5524L14.6299 54.551ZM53.4307 43.5795C54.0272 43.9106 54.781 43.6586 55.1076 43.0196C55.2642 42.699 55.2656 42.3421 55.1572 42.0405C55.0474 41.7381 54.8216 41.4861 54.509 41.3518C54.1971 41.2167 53.8552 41.2181 53.5615 41.3238C53.2657 41.4295 53.0252 41.6436 52.8811 41.9348C52.5853 42.5115 52.8329 43.2492 53.4293 43.5795H53.4307ZM14.9306 54.7245C14.7627 55.022 14.7334 55.3621 14.8264 55.675C14.9222 55.9808 15.1473 56.2489 15.4648 56.4127C15.6235 56.4932 15.7899 56.5401 15.955 56.5541C16.12 56.5653 16.2864 56.5373 16.4396 56.4848C16.7444 56.3763 17.0004 56.153 17.1402 55.8416C17.2801 55.5301 17.2815 55.1914 17.1794 54.8981C17.1276 54.7511 17.0486 54.6189 16.9486 54.4999C16.85 54.3788 16.727 54.2759 16.5822 54.2024C16.292 54.0527 15.9648 54.0443 15.6648 54.1387C15.369 54.2276 15.0984 54.4285 14.9319 54.7259L14.9306 54.7245Z" fill="#ECF1FC"/>
<mask id="mask0_3054_6572" style="mask-type:luminance" maskUnits="userSpaceOnUse" x="0" y="4" width="15" height="44">
<path d="M0.378754 4.8833H14.9053V47.7053H0.378754V4.8833Z" fill="white"/>
</mask>
<g mask="url(#mask0_3054_6572)">
<path d="M14.6298 5.79267C14.8473 6.17201 14.8948 6.60244 14.8032 6.98598C14.7116 7.36952 14.4977 7.73066 14.1494 7.95042C13.8215 8.15059 13.4551 8.23668 13.0872 8.18349C12.7208 8.1324 12.36 7.95602 12.0894 7.66277C9.32939 9.70715 6.94909 12.2617 5.10582 15.1614C3.25976 18.0575 1.95563 21.298 1.28084 24.6687C0.938197 26.3519 0.768975 28.0701 0.746599 29.787C0.725621 31.5059 0.857782 33.2255 1.14588 34.9186C1.72068 38.3053 2.92551 41.5878 4.69885 44.5315C4.87926 44.4482 5.06946 44.4021 5.25686 44.3888C5.44706 44.3734 5.63866 44.3888 5.81907 44.4356C6.18129 44.5273 6.49666 44.7401 6.70714 45.062C6.94629 45.398 7.01692 45.8039 6.94629 46.2001C6.90853 46.3981 6.8407 46.5899 6.73931 46.7663C6.63652 46.9434 6.49946 47.1043 6.32464 47.2359C6.15053 47.3696 5.95823 47.4599 5.75544 47.5096C5.55265 47.56 5.34287 47.5684 5.14358 47.5306C4.73941 47.4585 4.35062 47.2191 4.0842 46.8419C3.84714 46.4821 3.76673 46.0636 3.82337 45.6829C3.85274 45.4925 3.91497 45.3105 4.01217 45.1467C4.11217 44.9802 4.24223 44.8332 4.40236 44.7121C2.60735 41.7327 1.38643 38.4082 0.804638 34.9801C0.513044 33.2654 0.380183 31.5234 0.401161 29.7856C0.422839 28.047 0.594858 26.3078 0.942393 24.6029C1.62488 21.1916 2.94649 17.9105 4.81563 14.978C6.68267 12.0427 9.09164 9.45729 11.8859 7.38771C11.6859 7.04337 11.6342 6.64723 11.7258 6.26929C11.8188 5.89555 12.0453 5.52881 12.4132 5.30274C12.8033 5.05498 13.246 4.9717 13.6523 5.06758C14.0592 5.16486 14.4131 5.41752 14.6319 5.79686L14.6298 5.79267ZM4.72402 44.9095C4.14154 45.2622 3.97721 46.044 4.37019 46.6459C4.78486 47.2317 5.56804 47.3724 6.11207 46.9594C6.6561 46.5472 6.79455 45.7829 6.41904 45.2552C6.06592 44.7121 5.31001 44.5553 4.72402 44.9095ZM14.3298 5.96624C14.1564 5.67508 13.8732 5.47212 13.5606 5.40563C13.2502 5.33844 12.9026 5.39583 12.602 5.589C12.2978 5.77657 12.1146 6.08172 12.0551 6.40017C11.995 6.71792 12.0621 7.05037 12.2614 7.32682C12.4614 7.60328 12.7544 7.77545 13.06 7.83214C13.3649 7.88883 13.6816 7.82934 13.9592 7.65857C14.234 7.4822 14.4075 7.20574 14.4739 6.89709C14.5396 6.58914 14.5047 6.26089 14.3284 5.96484L14.3298 5.96624Z" fill="#ECF1FC"/>
</g>
<mask id="mask1_3054_6572" style="mask-type:luminance" maskUnits="userSpaceOnUse" x="24" y="0" width="35" height="31">
<path d="M24.93 0.5H58.3787V30.3258H24.93V0.5Z" fill="white"/>
</mask>
<g mask="url(#mask1_3054_6572)">
<path d="M56.8201 30.172C56.383 30.172 55.983 29.9957 55.6886 29.7248C55.3921 29.4539 55.2138 29.0858 55.1922 28.675C55.1628 28.2914 55.2908 27.9303 55.5222 27.637C55.76 27.3438 56.0774 27.1233 56.4676 27.0358C56.0998 23.6183 55.067 20.2777 53.4769 17.2339C51.886 14.1887 49.7309 11.4409 47.1534 9.17115C44.5773 6.90001 41.5851 5.10129 38.3608 3.91358C35.1386 2.72587 31.6947 2.15336 28.2627 2.20375C28.225 2.60059 28.0446 2.95893 27.7851 3.21929C27.6551 3.34947 27.5033 3.45516 27.3369 3.53004C27.1705 3.61193 26.9901 3.66652 26.7985 3.67982C26.5929 3.69522 26.3936 3.66652 26.2076 3.59933C26.1146 3.56644 26.0244 3.52305 25.9384 3.47335C25.8517 3.42716 25.7712 3.37187 25.695 3.30958C25.3915 3.05902 25.1664 2.68668 25.1111 2.25345C25.0552 1.82021 25.1846 1.40308 25.4496 1.08113C25.516 1.00064 25.5894 0.925756 25.6713 0.857167C25.7538 0.792077 25.844 0.738186 25.9398 0.689194C26.1307 0.593309 26.346 0.532419 26.5768 0.515621C26.7915 0.500224 26.9985 0.521221 27.1901 0.579311C27.3817 0.645101 27.5565 0.742385 27.7075 0.865566C28.0089 1.11193 28.2089 1.46047 28.2585 1.85591C31.7325 1.80482 35.219 2.38573 38.4818 3.58743C41.7446 4.78844 44.7759 6.60956 47.3821 8.91009C49.9903 11.2092 52.1734 13.9906 53.7831 17.0729C55.3935 20.1552 56.4396 23.5364 56.8117 26.9966C57.2088 26.9966 57.5927 27.1492 57.8634 27.4187C58.1382 27.6867 58.3228 28.0689 58.3549 28.4986C58.3815 28.9598 58.2039 29.386 57.9277 29.6891C57.6487 29.9929 57.2557 30.172 56.8201 30.172ZM27.9229 2.03788C27.9145 1.69633 27.7656 1.39118 27.5257 1.17282C27.4061 1.06573 27.2635 0.972649 27.1068 0.921557C26.9495 0.869765 26.7775 0.848069 26.5999 0.861367C26.2446 0.887962 25.9342 1.05174 25.7272 1.2925C25.5202 1.54516 25.416 1.86991 25.4552 2.20935C25.4936 2.5481 25.6664 2.83855 25.9034 3.03452C26.1433 3.24099 26.4488 3.35787 26.7733 3.33268C26.9362 3.32008 27.0887 3.27458 27.2271 3.2011C27.3663 3.12761 27.49 3.03872 27.5935 2.92184C27.8019 2.69228 27.9313 2.37873 27.9215 2.03788H27.9229ZM56.8103 29.8249C57.1515 29.8207 57.4571 29.6779 57.6753 29.4399C57.8899 29.2041 58.0305 28.8744 58.0067 28.5175C57.9522 27.8008 57.3557 27.2787 56.6767 27.3508C55.9984 27.4243 55.4865 28.0094 55.5348 28.6554C55.5572 28.9801 55.6928 29.2706 55.925 29.4833C56.1537 29.694 56.4676 29.8277 56.8089 29.8249H56.8103Z" fill="#ECF1FC"/>
</g>
<path d="M28.6913 54.3607C15.3661 54.3607 4.52402 43.5103 4.52402 30.1718C4.52402 16.8333 15.3661 5.98291 28.6913 5.98291C42.0166 5.98291 52.8587 16.8333 52.8587 30.1718C52.8587 43.5103 42.018 54.3607 28.6913 54.3607ZM28.6913 6.33146C15.5563 6.33146 4.87155 17.0265 4.87155 30.1732C4.87155 43.3199 15.5563 54.0149 28.6913 54.0149C41.8264 54.0149 52.5118 43.3199 52.5118 30.1732C52.5118 17.0265 41.8264 6.33006 28.6913 6.33006V6.33146Z" fill="#ECF1FC"/>
<path d="M17.2954 23.6346C16.7554 23.1333 16.4868 22.5129 16.4868 21.7746C16.4868 21.0364 16.7568 20.3886 17.2954 19.8859C17.8355 19.3846 18.5306 19.1333 19.3824 19.1333C20.2341 19.1333 20.9019 19.3846 21.4405 19.8859C21.9806 20.3872 22.2491 21.0177 22.2491 21.7746C22.2491 22.5315 21.9791 23.1333 21.4405 23.6346C20.9005 24.1358 20.2154 24.3872 19.3824 24.3872C18.5493 24.3872 17.8355 24.1358 17.2954 23.6346ZM21.7953 26.51V41.8781H16.9393V26.51H21.7953Z" fill="#ECF1FC"/>
<path d="M37.9605 28.0282C39.019 29.1772 39.5476 30.7543 39.5476 32.7622V41.6067H34.9357V33.3855C34.9357 32.3729 34.6729 31.5859 34.1486 31.0257C33.6244 30.4656 32.9178 30.1841 32.033 30.1841C31.1483 30.1841 30.4416 30.4641 29.9174 31.0257C29.3931 31.5859 29.1303 32.3729 29.1303 33.3855V41.6067H24.4912V26.467H29.1303V28.4749C29.6 27.8056 30.2334 27.277 31.0291 26.8878C31.8248 26.4986 32.7196 26.3047 33.7149 26.3047C35.4872 26.3047 36.9034 26.8792 37.9605 28.0282Z" fill="#ECF1FC"/>
</svg>
