<svg width="58" height="59" viewBox="0 0 58 59" fill="none" xmlns="http://www.w3.org/2000/svg">
<path d="M28.3706 51.9896H28.2738C16.1576 51.9896 6.30005 42.1321 6.30005 30.0159V29.919C6.30005 17.8029 16.1576 7.94531 28.2738 7.94531H28.3706C40.4868 7.94531 50.3443 17.8029 50.3443 29.919V30.0159C50.3443 42.1321 40.4868 51.9896 28.3706 51.9896ZM28.2738 9.43617C16.979 9.43617 7.7909 18.6243 7.7909 29.919V30.0159C7.7909 41.3106 16.979 50.4988 28.2738 50.4988H28.3706C39.6653 50.4988 48.8535 41.3106 48.8535 30.0159V29.919C48.8535 18.6243 39.6653 9.43617 28.3706 9.43617H28.2738Z" fill="#F8A207"/>
<path d="M14.2511 54.695C14.47 54.3171 14.8196 54.0616 15.1986 53.9475C15.5734 53.8426 15.9937 53.8447 16.3587 54.035C16.5314 54.1225 16.6755 54.2436 16.7978 54.3815C16.9209 54.5144 17.0195 54.6712 17.0887 54.8427C17.2279 55.1842 17.2559 55.5839 17.1363 55.9646C20.2823 57.3399 23.6842 58.1182 27.1148 58.2666C28.8308 58.3456 30.5531 58.2568 32.2516 58.0153C33.9508 57.7731 35.6284 57.3749 37.2535 56.8262C40.5072 55.7288 43.5518 54.0217 46.1915 51.8227C48.834 49.6278 51.0605 46.9339 52.7317 43.9335C52.5688 43.818 52.4345 43.6767 52.3289 43.5213C52.2248 43.3652 52.1471 43.193 52.0947 43.0125C51.9933 42.6527 52.015 42.2706 52.1898 41.929C52.3695 41.5581 52.6758 41.29 53.0548 41.1543C53.2436 41.0857 53.4464 41.0514 53.6526 41.0528C53.8582 41.0542 54.0652 41.0927 54.2666 41.1774C54.468 41.262 54.6442 41.3845 54.7869 41.5343C54.9267 41.6834 55.0351 41.8597 55.105 42.0543C55.2421 42.44 55.2379 42.9012 55.0379 43.3169C54.8421 43.7019 54.5246 43.9825 54.168 44.1225C53.9918 44.1932 53.7988 44.2282 53.6044 44.224C53.4114 44.2212 53.2184 44.1806 53.0338 44.1029C51.3423 47.1411 49.0885 49.8679 46.4125 52.0907C43.7406 54.3157 40.6582 56.0451 37.3633 57.1565C35.7172 57.7122 34.0187 58.1154 32.2992 58.361C30.5783 58.6067 28.835 58.6956 27.0987 58.6151C23.6262 58.4653 20.1816 57.6772 16.9957 56.2845C16.7978 56.6302 16.4797 56.8731 16.1063 56.983C15.9203 57.0382 15.7203 57.0592 15.5182 57.0452C15.3182 57.0277 15.1182 56.9648 14.9266 56.8675C14.5175 56.6554 14.2217 56.3146 14.1064 55.9079C13.9868 55.5076 14.0287 55.0744 14.2483 54.6964L14.2511 54.695ZM53.052 43.7236C53.6485 44.0546 54.4023 43.8026 54.7288 43.1636C54.8855 42.8431 54.8869 42.4861 54.7785 42.1845C54.6687 41.8821 54.4428 41.6302 54.1302 41.4958C53.8184 41.3607 53.4764 41.3621 53.1827 41.4678C52.887 41.5735 52.6464 41.7877 52.5024 42.0788C52.2066 42.6555 52.4541 43.3932 53.0506 43.7236H53.052ZM14.5518 54.8686C14.384 55.166 14.3546 55.5062 14.4476 55.819C14.5434 56.1249 14.7686 56.3929 15.086 56.5567C15.2448 56.6372 15.4112 56.6841 15.5762 56.6981C15.7412 56.7093 15.9077 56.6813 16.0608 56.6288C16.3657 56.5203 16.6216 56.2971 16.7615 55.9856C16.9013 55.6742 16.9027 55.3354 16.8006 55.0422C16.7489 54.8952 16.6699 54.7629 16.5699 54.6439C16.4713 54.5228 16.3482 54.42 16.2035 54.3465C15.9133 54.1967 15.586 54.1883 15.286 54.2828C14.9902 54.3717 14.7196 54.5725 14.5532 54.87L14.5518 54.8686Z" fill="#F8A207"/>
<mask id="mask0_3089_9516" style="mask-type:luminance" maskUnits="userSpaceOnUse" x="0" y="5" width="15" height="43">
<path d="M0 5.02734H14.5266V47.8494H0V5.02734Z" fill="white"/>
</mask>
<g mask="url(#mask0_3089_9516)">
<path d="M14.2511 5.93573C14.4685 6.31507 14.5161 6.7455 14.4245 7.12904C14.3329 7.51258 14.1189 7.87372 13.7707 8.09349C13.4427 8.29366 13.0763 8.37975 12.7085 8.32655C12.3421 8.27546 11.9813 8.09909 11.7106 7.80584C8.95064 9.85021 6.57033 12.4048 4.72707 15.3044C2.88101 18.2006 1.57688 21.4411 0.902084 24.8117C0.559444 26.495 0.390221 28.2132 0.367845 29.93C0.346867 31.649 0.479028 33.3686 0.767126 35.0616C1.34192 38.4484 2.54676 41.7309 4.3201 44.6746C4.50051 44.5913 4.69071 44.5451 4.87811 44.5318C5.06831 44.5164 5.25991 44.5318 5.44032 44.5787C5.80254 44.6704 6.11791 44.8832 6.32839 45.2051C6.56754 45.5411 6.63816 45.947 6.56754 46.3431C6.52978 46.5412 6.46195 46.733 6.36055 46.9093C6.25776 47.0864 6.12071 47.2474 5.94589 47.379C5.77177 47.5127 5.57947 47.6029 5.37669 47.6526C5.1739 47.703 4.96412 47.7114 4.76483 47.6736C4.36065 47.6015 3.97186 47.3622 3.70544 46.9849C3.46839 46.6252 3.38797 46.2067 3.44462 45.8259C3.47398 45.6355 3.53622 45.4536 3.63342 45.2898C3.73341 45.1232 3.86348 44.9763 4.02361 44.8552C2.22859 41.8757 1.00767 38.5513 0.425884 35.1232C0.13429 33.4085 0.00142969 31.6665 0.0224076 29.9286C0.0440849 28.1901 0.216104 26.4509 0.563639 24.746C1.24612 21.3347 2.56774 18.0536 4.43687 15.1211C6.30391 12.1857 8.71289 9.60035 11.5072 7.53078C11.3072 7.18643 11.2554 6.7903 11.347 6.41236C11.44 6.03862 11.6666 5.67187 12.0344 5.44581C12.4246 5.19805 12.8672 5.11476 13.2735 5.21065C13.6805 5.30793 14.0343 5.56059 14.2532 5.93993L14.2511 5.93573ZM4.34527 45.0525C3.76278 45.4053 3.59845 46.1871 3.99144 46.789C4.40611 47.3748 5.18928 47.5155 5.73331 47.1025C6.27734 46.6903 6.4158 45.926 6.04029 45.3983C5.68716 44.8552 4.93125 44.6984 4.34527 45.0525ZM13.9511 6.1093C13.7777 5.81815 13.4945 5.61518 13.1819 5.54869C12.8714 5.4815 12.5239 5.53889 12.2232 5.73206C11.919 5.91963 11.7358 6.22479 11.6764 6.54324C11.6162 6.86099 11.6834 7.19343 11.8827 7.46989C12.0826 7.74635 12.3756 7.91852 12.6812 7.97521C12.9861 8.0319 13.3029 7.97241 13.5805 7.80164C13.8553 7.62526 14.0287 7.34881 14.0951 7.04016C14.1609 6.73221 14.1259 6.40396 13.9497 6.1079L13.9511 6.1093Z" fill="#F8A207"/>
</g>
<mask id="mask1_3089_9516" style="mask-type:luminance" maskUnits="userSpaceOnUse" x="24" y="0" width="34" height="31">
<path d="M24.5513 0.644531H58V30.4703H24.5513V0.644531Z" fill="white"/>
</mask>
<g mask="url(#mask1_3089_9516)">
<path d="M56.4412 30.3156C56.0042 30.3156 55.6042 30.1392 55.3098 29.8684C55.0133 29.5975 54.835 29.2294 54.8133 28.8185C54.784 28.435 54.9119 28.0738 55.1434 27.7806C55.3811 27.4873 55.6986 27.2669 56.0888 27.1794C55.721 23.7618 54.6882 20.4212 53.098 17.3774C51.5072 14.3322 49.3521 11.5844 46.7746 9.3147C44.1985 7.04356 41.2063 5.24485 37.982 4.05714C34.7598 2.86943 31.3159 2.29692 27.8839 2.34731C27.8462 2.74415 27.6657 3.10249 27.4063 3.36285C27.2763 3.49303 27.1245 3.59871 26.9581 3.6736C26.7917 3.75549 26.6113 3.81008 26.4197 3.82337C26.2141 3.83877 26.0148 3.81008 25.8288 3.74289C25.7358 3.70999 25.6456 3.6666 25.5596 3.61691C25.4728 3.57071 25.3924 3.51542 25.3162 3.45313C25.0127 3.20257 24.7876 2.83023 24.7323 2.397C24.6764 1.96377 24.8057 1.54664 25.0708 1.22469C25.1372 1.1442 25.2106 1.06931 25.2924 1.00072C25.3749 0.935632 25.4652 0.881741 25.561 0.832749C25.7519 0.736864 25.9672 0.675973 26.198 0.659176C26.4127 0.643778 26.6196 0.664775 26.8112 0.722866C27.0028 0.788656 27.1777 0.88594 27.3287 1.00912C27.6301 1.25548 27.8301 1.60403 27.8797 1.99946C31.3537 1.94837 34.8402 2.52928 38.103 3.73099C41.3658 4.932 44.3971 6.75311 47.0032 9.05365C49.6115 11.3528 51.7946 14.1341 53.4043 17.2165C55.0147 20.2988 56.0608 23.6799 56.4328 27.1402C56.83 27.1402 57.2139 27.2928 57.4845 27.5622C57.7594 27.8303 57.944 28.2124 57.9761 28.6421C58.0027 29.1034 57.8251 29.5296 57.5489 29.8327C57.2699 30.1364 56.8769 30.3156 56.4412 30.3156ZM27.5441 2.18143C27.5357 1.83989 27.3867 1.53474 27.1469 1.31637C27.0273 1.20929 26.8847 1.1162 26.728 1.06511C26.5707 1.01332 26.3987 0.991623 26.2211 1.00492C25.8658 1.03152 25.5554 1.19529 25.3484 1.43605C25.1414 1.68871 25.0372 2.01346 25.0764 2.35291C25.1148 2.69165 25.2875 2.98211 25.5246 3.17808C25.7644 3.38454 26.07 3.50143 26.3945 3.47623C26.5574 3.46363 26.7098 3.41814 26.8483 3.34465C26.9875 3.27116 27.1112 3.18228 27.2147 3.06539C27.4231 2.83583 27.5525 2.52228 27.5427 2.18143H27.5441ZM56.4314 29.9684C56.7727 29.9642 57.0783 29.8215 57.2964 29.5835C57.5111 29.3476 57.6517 29.018 57.6279 28.661C57.5733 27.9444 56.9769 27.4222 56.2979 27.4943C55.6196 27.5678 55.1077 28.1529 55.156 28.7989C55.1784 29.1237 55.314 29.4141 55.5462 29.6269C55.7748 29.8376 56.0888 29.9712 56.43 29.9684H56.4314Z" fill="#F8A207"/>
</g>
<path d="M28.3126 54.5047C14.9874 54.5047 4.14526 43.6543 4.14526 30.3158C4.14526 16.9773 14.9874 6.12695 28.3126 6.12695C41.6378 6.12695 52.4799 16.9773 52.4799 30.3158C52.4799 43.6543 41.6392 54.5047 28.3126 54.5047ZM28.3126 6.4755C15.1776 6.4755 4.4928 17.1705 4.4928 30.3172C4.4928 43.4639 15.1776 54.159 28.3126 54.159C41.4476 54.159 52.1331 43.4639 52.1331 30.3172C52.1331 17.1705 41.4476 6.4741 28.3126 6.4741V6.4755Z" fill="#F8A207"/>
<path d="M16.9168 23.7786C16.3767 23.2774 16.1082 22.6569 16.1082 21.9187C16.1082 21.1804 16.3782 20.5326 16.9168 20.0299C17.4568 19.5287 18.152 19.2773 19.0037 19.2773C19.8554 19.2773 20.5232 19.5287 21.0618 20.0299C21.6019 20.5312 21.8704 21.1617 21.8704 21.9187C21.8704 22.6756 21.6004 23.2774 21.0618 23.7786C20.5218 24.2799 19.8367 24.5312 19.0037 24.5312C18.1706 24.5312 17.4568 24.2799 16.9168 23.7786ZM21.4166 26.654V42.0221H16.5606V26.654H21.4166Z" fill="#F8A207"/>
<path d="M37.5817 28.1727C38.6403 29.3218 39.1688 30.8988 39.1688 32.9067V41.7512H34.557V33.53C34.557 32.5175 34.2941 31.7304 33.7699 31.1703C33.2457 30.6101 32.539 30.3286 31.6543 30.3286C30.7695 30.3286 30.0629 30.6087 29.5386 31.1703C29.0144 31.7304 28.7515 32.5175 28.7515 33.53V41.7512H24.1124V26.6115H28.7515V28.6194C29.2212 27.9501 29.8546 27.4216 30.6503 27.0324C31.446 26.6431 32.3408 26.4492 33.3361 26.4492C35.1085 26.4492 36.5246 27.0237 37.5817 28.1727Z" fill="#F8A207"/>
</svg>
