<svg width="133" height="24" viewBox="0 0 133 24" fill="none" xmlns="http://www.w3.org/2000/svg">
<path d="M81.6005 0H74.5425V23.9975H81.6005V0Z" fill="black"/>
<path d="M133 0H125.942V23.9975H133V0Z" fill="black"/>
<path d="M66.7766 18.4945C66.5366 21.352 65.797 23.7308 64.7758 23.7308H37.3567C36.7396 22.2468 38.351 19.0862 39.8645 18.4945C40.0261 18.432 40.1853 18.3983 40.3421 18.3983H59.0745V14.6653H39.2547C37.1657 14.6653 36.3624 10.4032 36.8106 8.79883H63.6884C66.3554 8.79883 67.1341 14.1915 66.7741 18.4945H66.7766Z" fill="black"/>
<path d="M28.9763 23.9976H2.64217C1.09685 23.9976 0.303379 21.8665 0.168684 20.5629C0.122153 20.1203 0.0682724 19.3819 0.0364353 18.4943C-0.0811167 15.1342 0.156433 9.59961 2.64217 9.59961H23.5469C24.1714 11.1294 21.9134 14.3981 20.5591 14.3981H6.71486L6.79078 17.792L7.50834 18.4943L7.6063 18.5905L26.4195 18.7782C28.391 19.7258 29.0547 21.9916 28.9763 24V23.9976Z" fill="black"/>
<path d="M28.1609 0C30.1274 0.574862 27.8768 5.86648 25.4449 5.86648H0.195706C-0.607567 3.99998 1.1949 0 3.18104 0H28.1584H28.1609Z" fill="black"/>
<mask id="mask0_3659_3073" style="mask-type:luminance" maskUnits="userSpaceOnUse" x="74" y="0" width="8" height="24">
<path d="M81.6005 0H74.5425V23.9975H81.6005V0Z" fill="white"/>
</mask>
<g mask="url(#mask0_3659_3073)">
<path opacity="0.11" d="M81.6005 17.7939H74.5425V23.9972H81.6005V17.7939Z" fill="white"/>
<path opacity="0.5" d="M80.1555 9.70286V9.29877C80.1555 9.04862 79.9571 8.84898 79.7049 8.84177L79.6976 7.70888C79.7343 6.73474 79.6314 5.51767 79.6314 5.51767C79.5286 4.49061 78.8086 3.59344 78.8086 3.59344C78.6371 3.27354 77.6967 2.55436 77.6967 2.55436C76.7588 1.6596 76.7832 0.589248 76.7832 0.589248L76.749 -1.06558H76.7171C76.9914 -1.06558 77.2118 -1.28687 77.2118 -1.55626V-1.95313C77.2118 -2.22253 76.989 -2.44141 76.7122 -2.44141H76.482C76.2077 -2.44141 75.9849 -2.22253 75.9849 -1.95313V-1.55626C75.9849 -1.29649 76.1906 -1.08242 76.4526 -1.06799L76.482 0.358342C76.509 1.31324 76.7539 1.7053 76.7539 1.7053C77.2192 2.73235 78.0322 3.20619 78.0322 3.20619C78.6445 3.68244 78.9776 4.41846 78.9776 4.41846C79.3278 5.03661 79.3792 5.98429 79.3792 5.98429L79.4135 8.84417C79.1588 8.85139 78.958 9.05343 78.958 9.30118V9.70526C78.958 9.96022 79.1661 10.1623 79.4233 10.1623H79.6829C79.9425 10.1623 80.1482 9.95782 80.1482 9.70526L80.1555 9.70286Z" fill="#A4C3FF"/>
</g>
<mask id="mask1_3659_3073" style="mask-type:luminance" maskUnits="userSpaceOnUse" x="125" y="0" width="8" height="24">
<path d="M133 0H125.942V23.9975H133V0Z" fill="white"/>
</mask>
<g mask="url(#mask1_3659_3073)">
<path opacity="0.11" d="M133 17.7939H125.942V23.9972H133V17.7939Z" fill="white"/>
<path opacity="0.5" d="M132.077 24.9953V24.6201C132.077 24.3892 131.891 24.2016 131.658 24.1944L131.651 23.1409C131.685 22.2341 131.59 21.1012 131.59 21.1012C131.494 20.1463 130.823 19.3092 130.823 19.3092C130.664 19.0134 129.79 18.3423 129.79 18.3423C128.918 17.5101 128.94 16.5143 128.94 16.5143L128.908 14.9749H128.879C129.133 14.9749 129.339 14.7681 129.339 14.5203V14.1499C129.339 13.8998 129.133 13.6953 128.876 13.6953H128.661C128.406 13.6953 128.198 13.8974 128.198 14.1499V14.5203C128.198 14.7633 128.389 14.9605 128.634 14.9749L128.661 16.3026C128.685 17.1902 128.913 17.5558 128.913 17.5558C129.346 18.5107 130.103 18.9509 130.103 18.9509C130.674 19.3934 130.982 20.0789 130.982 20.0789C131.308 20.6538 131.357 21.5365 131.357 21.5365L131.389 24.1968C131.154 24.204 130.965 24.3916 130.965 24.6225V24.9977C130.965 25.2334 131.159 25.4235 131.399 25.4235H131.641C131.881 25.4235 132.075 25.2334 132.075 24.9977L132.077 24.9953Z" fill="#A4C3FF"/>
</g>
<mask id="mask2_3659_3073" style="mask-type:luminance" maskUnits="userSpaceOnUse" x="36" y="8" width="31" height="16">
<path d="M66.7766 18.4945C66.5366 21.352 65.797 23.7308 64.7758 23.7308H37.3567C36.7396 22.2468 38.351 19.0862 39.8645 18.4945C40.0261 18.432 40.1853 18.3983 40.3421 18.3983H59.0745V14.6653H39.2547C37.1657 14.6653 36.3624 10.4032 36.8106 8.79883H63.6884C66.3554 8.79883 67.1341 14.1915 66.7741 18.4945H66.7766Z" fill="white"/>
</mask>
<g mask="url(#mask2_3659_3073)">
<path opacity="0.11" d="M39.5904 17.7822H67.1613C66.9164 21.0294 66.1572 23.7329 65.1115 23.7329H37.019C36.3847 22.0492 38.0378 18.4581 39.5904 17.7822Z" fill="white"/>
<path opacity="0.5" d="M52.9248 10.9105H52.4987C52.2146 10.9105 51.9869 11.1342 51.9869 11.4108V11.3266H40.479C40.266 11.3411 39.9868 11.2905 39.9868 11.2905C39.6096 11.2448 39.2961 10.9923 39.2961 10.9923C39.2202 10.9827 38.5296 10.2683 38.5296 10.2683L37.6627 9.41443C36.9084 8.82273 36.3157 8.85399 36.3157 8.85399H32.3165V8.89729C32.3165 8.63752 32.1034 8.43066 31.8438 8.43066H31.3442C31.0822 8.43066 30.8716 8.63992 30.8716 8.89729V9.38556C30.8716 9.64533 31.0846 9.85219 31.3442 9.85219H31.8438C32.1059 9.85219 32.3165 9.64293 32.3165 9.38556H36.3157V9.38075L36.8031 9.50342C37.1778 9.62609 37.6945 10.1961 37.8757 10.3838C38.0569 10.5738 38.5296 11.0356 38.5296 11.0356C38.9043 11.4926 39.5459 11.7283 39.5459 11.7283C39.9549 11.8726 40.4741 11.863 40.4741 11.863H51.982V11.8269C51.982 12.1035 52.2097 12.3272 52.4938 12.3272H52.9199C53.2016 12.3272 53.4318 12.1035 53.4318 11.8269V11.406C53.4318 11.1294 53.2016 10.9057 52.9199 10.9057L52.9248 10.9105Z" fill="#A4C3FF"/>
<path opacity="0.5" d="M67.7978 20.8174H67.2786C66.9309 20.8174 66.6468 21.0964 66.6468 21.4404V21.4596H60.5732C60.5732 21.1036 60.2794 20.8174 59.9194 20.8174H59.3365C58.974 20.8174 58.6826 21.106 58.6826 21.4596V21.931C58.6826 22.287 58.9765 22.5732 59.3365 22.5732H59.9194C60.2818 22.5732 60.5732 22.2846 60.5732 21.931V21.9671H66.6468C66.6566 22.3038 66.9357 22.5732 67.2786 22.5732H67.7978C68.1505 22.5732 68.4321 22.2942 68.4321 21.9527V21.4428C68.4321 21.0964 68.148 20.8198 67.7978 20.8198V20.8174Z" fill="#A4C3FF"/>
</g>
<path d="M65.5889 0.266602C66.0812 1.82041 64.9914 5.59911 63.1448 5.59911H36.8107C36.2719 4.30988 37.3054 0.266602 38.7111 0.266602H65.5889Z" fill="black"/>
<mask id="mask3_3659_3073" style="mask-type:luminance" maskUnits="userSpaceOnUse" x="0" y="9" width="29" height="15">
<path d="M28.9763 23.9976H2.64217C1.09685 23.9976 0.303379 21.8665 0.168684 20.5629C0.122153 20.1203 0.0682724 19.3819 0.0364353 18.4943C-0.0811167 15.1342 0.156433 9.59961 2.64217 9.59961H23.5469C24.1714 11.1294 21.9134 14.3981 20.5591 14.3981H6.71486L6.79078 17.792L7.50834 18.4943L7.6063 18.5905L26.4195 18.7782C28.391 19.7258 29.0547 21.9916 28.9763 24V23.9976Z" fill="white"/>
</mask>
<g mask="url(#mask3_3659_3073)">
<path opacity="0.11" d="M30.4996 23.9982H2.38265C0.732021 23.9982 -0.115333 21.6098 -0.257375 20.1473C-0.306355 19.6519 -0.365128 18.8244 -0.399414 17.8311H7.57943L7.68229 17.9369L27.7715 18.1461C29.8752 19.2093 30.5854 21.7493 30.4996 23.9982Z" fill="white"/>
</g>
<mask id="mask4_3659_3073" style="mask-type:luminance" maskUnits="userSpaceOnUse" x="0" y="0" width="29" height="6">
<path d="M28.1609 0C30.1274 0.574862 27.8768 5.86648 25.4449 5.86648H0.195706C-0.607567 3.99998 1.1949 0 3.18104 0H28.1584H28.1609Z" fill="white"/>
</mask>
<g mask="url(#mask4_3659_3073)">
<path opacity="0.5" d="M31.0431 3.10031H30.7101C30.4897 3.10031 30.3109 3.2759 30.3109 3.48997V3.42503H21.3279C21.1614 3.43705 20.9459 3.39857 20.9459 3.39857C20.652 3.36249 20.4071 3.16526 20.4071 3.16526C20.3483 3.15804 19.8096 2.60002 19.8096 2.60002L19.1336 1.93375C18.5459 1.47194 18.083 1.49599 18.083 1.49599H14.9605V1.52966C14.9605 1.32762 14.794 1.16406 14.5907 1.16406H14.2013C13.9981 1.16406 13.8315 1.32762 13.8315 1.52966V1.91211C13.8315 2.11415 13.9981 2.27771 14.2013 2.27771H14.5907C14.794 2.27771 14.9605 2.11415 14.9605 1.91211H18.083L18.4626 2.00351C18.7565 2.09972 19.1581 2.54469 19.3002 2.69142C19.4422 2.84054 19.8096 3.19893 19.8096 3.19893C20.1034 3.55732 20.603 3.74012 20.603 3.74012C20.9214 3.85317 21.3279 3.84355 21.3279 3.84355H30.3109V3.81709C30.3109 4.03356 30.4897 4.20674 30.7101 4.20674H31.0431C31.2635 4.20674 31.4423 4.03116 31.4423 3.81709V3.48756C31.4423 3.27109 31.2635 3.09791 31.0431 3.09791V3.10031Z" fill="#A4C3FF"/>
<path opacity="0.5" d="M5.75727 3.21094H5.34584C5.06911 3.21094 4.8438 3.43222 4.8438 3.70642V3.72086H0.0290616C0.0290616 3.43944 -0.203592 3.21094 -0.490126 3.21094H-0.950539C-1.23707 3.21094 -1.46973 3.43944 -1.46973 3.72086V4.09368C-1.46973 4.37509 -1.23707 4.6036 -0.950539 4.6036H-0.490126C-0.203592 4.6036 0.0290616 4.37509 0.0290616 4.09368V4.12254H4.8438C4.85115 4.38953 5.074 4.6036 5.34584 4.6036H5.75727C6.03646 4.6036 6.26177 4.38231 6.26177 4.11051V3.70642C6.26177 3.43222 6.03646 3.21094 5.75727 3.21094Z" fill="#A4C3FF"/>
</g>
<path d="M108.515 16.5676L90.5123 16.7095C89.8069 16.7143 89.2584 16.1996 89.2877 15.5598L89.9539 1.13051C89.9833 0.478677 90.5857 -0.0240262 91.2935 0.00724248L109.401 0.800984C109.712 0.815416 109.987 0.947706 110.18 1.15215C110.374 1.3566 110.494 1.64524 110.474 1.95311L109.708 15.4684C109.673 16.0697 109.139 16.5604 108.515 16.5652V16.5676Z" fill="#F8A207"/>
<path d="M117.52 22.9291L98.9908 23.9393C98.2243 23.9802 97.3476 23.8696 97.039 23.6916L89.9418 19.5689C89.6136 19.3789 90.0275 19.2057 90.8553 19.1841L110.81 18.6597C111.464 18.6429 112.201 18.7656 112.463 18.9315L118.169 22.5804C118.419 22.7391 118.13 22.8955 117.52 22.9291Z" fill="#F8A207"/>
</svg>
