<svg width="48" height="49" viewBox="0 0 48 49" fill="none" xmlns="http://www.w3.org/2000/svg">
<path d="M19.98 46.1064C18.78 46.1064 17.64 45.5064 16.86 44.4464L14.46 41.2464C14.46 41.2664 14.36 41.2064 14.32 41.2064H13.58C6.74002 41.2064 2.5 39.3464 2.5 30.1264V22.1264C2.5 13.7064 7.64002 11.5064 11.96 11.1264C12.44 11.0664 13 11.0464 13.58 11.0464H26.38C33.62 11.0464 37.46 14.8864 37.46 22.1264V30.1264C37.46 30.7064 37.44 31.2664 37.36 31.8064C37 36.0664 34.8 41.2064 26.38 41.2064H25.58L23.1 44.4464C22.32 45.5064 21.18 46.1064 19.98 46.1064ZM13.58 14.0464C13.12 14.0464 12.68 14.0664 12.26 14.1064C7.62001 14.5064 5.5 17.0464 5.5 22.1264V30.1264C5.5 36.9864 7.62002 38.2064 13.58 38.2064H14.38C15.28 38.2064 16.3 38.7064 16.86 39.4264L19.26 42.6464C19.7 43.2464 20.26 43.2464 20.7 42.6464L23.1 39.4464C23.68 38.6664 24.6 38.2064 25.58 38.2064H26.38C31.46 38.2064 34 36.0664 34.38 31.5064C34.44 31.0264 34.46 30.5864 34.46 30.1264V22.1264C34.46 16.5464 31.96 14.0464 26.38 14.0464H13.58Z" fill="#1D3564"/>
<path d="M19.9805 28.9268C18.8605 28.9268 17.9805 28.0268 17.9805 26.9268C17.9805 25.8268 18.8805 24.9268 19.9805 24.9268C21.0805 24.9268 21.9805 25.8268 21.9805 26.9268C21.9805 28.0268 21.1005 28.9268 19.9805 28.9268Z" fill="#1D3564"/>
<path d="M26.3799 28.9268C25.2599 28.9268 24.3799 28.0268 24.3799 26.9268C24.3799 25.8268 25.2799 24.9268 26.3799 24.9268C27.4799 24.9268 28.3799 25.8268 28.3799 26.9268C28.3799 28.0268 27.4799 28.9268 26.3799 28.9268Z" fill="#1D3564"/>
<path d="M13.5996 28.9268C12.4796 28.9268 11.5996 28.0268 11.5996 26.9268C11.5996 25.8268 12.4996 24.9268 13.5996 24.9268C14.6996 24.9268 15.5996 25.8268 15.5996 26.9268C15.5996 28.0268 14.6996 28.9268 13.5996 28.9268Z" fill="#1D3564"/>
<path d="M35.8803 33.1266C35.4803 33.1266 35.0803 32.9666 34.8003 32.6666C34.4803 32.3466 34.3403 31.8867 34.4003 31.4467C34.4603 31.0267 34.4802 30.5866 34.4802 30.1266V22.1266C34.4802 16.5466 31.9803 14.0466 26.4003 14.0466H13.6002C13.1402 14.0466 12.7003 14.0666 12.2803 14.1066C11.8403 14.1666 11.3803 14.0066 11.0603 13.7066C10.7403 13.3866 10.5602 12.9467 10.6002 12.5067C10.9602 8.18665 13.1802 3.04663 21.6002 3.04663H34.4003C41.6403 3.04663 45.4803 6.88665 45.4803 14.1266V22.1266C45.4803 30.5466 40.3403 32.7466 36.0203 33.1266C35.9603 33.1266 35.9203 33.1266 35.8803 33.1266ZM13.8403 11.0466H26.3803C33.6203 11.0466 37.4603 14.8866 37.4603 22.1266V29.8666C40.8603 29.0266 42.4603 26.5266 42.4603 22.1266V14.1266C42.4603 8.54665 39.9603 6.04663 34.3803 6.04663H21.5803C17.1803 6.04663 14.7003 7.64663 13.8403 11.0466Z" fill="#1D3564"/>
</svg>
