<svg width="35" height="32" viewBox="0 0 35 32" fill="none" xmlns="http://www.w3.org/2000/svg">
<path d="M16.0416 20.1718C16.2495 20.1718 16.4216 20.342 16.384 20.5468C16.3086 20.9574 16.1105 21.3388 15.8115 21.6381C15.4232 22.027 14.8964 22.2455 14.3472 22.2455C13.7979 22.2455 13.2294 22.027 12.8411 21.6381C12.5423 21.3389 12.3689 20.9578 12.3049 20.5474C12.2727 20.3416 12.4448 20.1718 12.6528 20.1718H16.0416Z" fill="#F8FAFB"/>
<path fill-rule="evenodd" clip-rule="evenodd" d="M14.8492 6.72393C10.561 7.03813 1.99703 9.37579 2.04723 16.2128C1.25233 16.548 -0.262154 17.9724 0.0390689 20.9887C0.415598 24.7591 1.29417 25.0105 2.61202 25.9531C2.61202 27.8383 5.5615 31.6842 17.3594 31.9858C29.1573 32.2874 31.6048 27.7126 31.3537 25.3875C32.6298 25.8274 35.1441 25.2744 34.9935 19.5434C34.9935 15.8986 33.1109 15.0817 32.2323 15.0189C31.3537 14.956 32.2951 6.72393 16.6691 6.72393L16.5436 5.34144H15.2257L14.8492 6.72393ZM7.44414 25.5132C8.79965 24.91 11.2956 24.946 13.7824 24.822C17.8992 24.6167 21.2126 25.4755 24.3252 25.3247C27.4378 25.1739 28.0905 19.5224 28.0277 16.7156C28.1281 12.3419 25.9568 10.6829 25.0155 10.0545C24.4507 9.67743 22.0535 8.64685 15.2257 8.79767C8.39802 8.94849 5.51966 11.3951 4.87119 12.4424C4.18089 13.8458 2.77518 17.2309 3.17681 20.8002C3.67885 25.2619 5.74976 25.7646 7.44414 25.5132Z" fill="#F8FAFB"/>
<path d="M10.7702 16.7784C10.7702 18.0278 9.7109 19.1035 8.63649 19.1035C7.56207 19.1035 6.62833 18.0906 6.62833 16.8412C6.62833 15.5918 7.56207 14.3276 8.63649 14.3276C9.7109 14.3276 10.7702 15.529 10.7702 16.7784Z" fill="#F8FAFB"/>
<path d="M22.3798 16.527C22.3798 17.7764 21.2578 18.9778 20.1834 18.9778C19.109 18.9778 18.1752 17.965 18.1752 16.7156C18.1752 15.4661 19.0462 14.2648 20.1206 14.2648C21.1875 14.2648 22.3798 15.2776 22.3798 16.527Z" fill="#F8FAFB"/>
<path d="M18.6773 2.76498C18.6773 4.29204 17.441 5.52996 15.916 5.52996C14.3911 5.52996 13.1548 4.29204 13.1548 2.76498C13.1548 1.23792 14.3911 0 15.916 0C17.441 0 18.6773 1.23792 18.6773 2.76498Z" fill="#F8FAFB"/>
</svg>
