<svg width="58" height="48" viewBox="0 0 58 48" fill="none" xmlns="http://www.w3.org/2000/svg">
<rect x="0.104492" width="57.8954" height="47.9997" rx="23.9998" fill="#F8FAFB"/>
<path d="M28.3604 26.4628C28.5288 26.4628 28.6682 26.6011 28.6378 26.7674C28.5767 27.101 28.4162 27.4108 28.174 27.654C27.8593 27.9699 27.4326 28.1474 26.9876 28.1474C26.5426 28.1474 26.082 27.9699 25.7673 27.654C25.5253 27.4109 25.3848 27.1013 25.3329 26.7679C25.3069 26.6008 25.4463 26.4628 25.6148 26.4628H28.3604Z" fill="#4176DE"/>
<path fill-rule="evenodd" clip-rule="evenodd" d="M27.3943 15.539C23.92 15.7943 16.9815 17.6932 17.0222 23.247C16.3782 23.5192 15.1511 24.6762 15.3952 27.1264C15.7002 30.1892 16.4121 30.3934 17.4798 31.1591C17.4798 32.6904 19.8694 35.8144 29.4281 36.0594C38.9867 36.3045 40.9696 32.5883 40.7663 30.6996C41.8001 31.057 43.8372 30.6078 43.7152 25.9524C43.7152 22.9917 42.1899 22.3281 41.4781 22.2771C40.7663 22.226 41.5289 15.539 28.8688 15.539L28.7671 14.416H27.6994L27.3943 15.539ZM21.3948 30.8017C22.493 30.3117 24.5152 30.3409 26.53 30.2402C29.8654 30.0735 32.5499 30.7711 35.0718 30.6486C37.5936 30.5261 38.1224 25.9354 38.0715 23.6553C38.1529 20.1025 36.3937 18.7549 35.631 18.2445C35.1734 17.9382 33.2312 17.1011 27.6994 17.2236C22.1676 17.3461 19.8355 19.3334 19.3102 20.1842C18.7509 21.3242 17.612 24.0739 17.9374 26.9733C18.3441 30.5976 20.022 31.0059 21.3948 30.8017Z" fill="#4176DE"/>
<path d="M24.0895 23.7064C24.0895 24.7213 23.2313 25.5951 22.3608 25.5951C21.4903 25.5951 20.7338 24.7723 20.7338 23.7574C20.7338 22.7425 21.4903 21.7156 22.3608 21.7156C23.2313 21.7156 24.0895 22.6915 24.0895 23.7064Z" fill="#4176DE"/>
<path d="M33.4956 23.5022C33.4956 24.5171 32.5865 25.493 31.7161 25.493C30.8456 25.493 30.0891 24.6702 30.0891 23.6553C30.0891 22.6404 30.7947 21.6645 31.6652 21.6645C32.5296 21.6645 33.4956 22.4873 33.4956 23.5022Z" fill="#4176DE"/>
<path d="M30.4958 12.3232C30.4958 13.5636 29.4942 14.5692 28.2587 14.5692C27.0231 14.5692 26.0215 13.5636 26.0215 12.3232C26.0215 11.0827 27.0231 10.0771 28.2587 10.0771C29.4942 10.0771 30.4958 11.0827 30.4958 12.3232Z" fill="#4176DE"/>
</svg>
