<svg width="70" height="57" viewBox="0 0 70 57" fill="none" xmlns="http://www.w3.org/2000/svg">
<path d="M33.3768 32.1718C33.5847 32.1718 33.7568 32.342 33.7192 32.5468C33.6438 32.9574 33.4457 33.3388 33.1467 33.6381C32.7584 34.027 32.2316 34.2455 31.6824 34.2455C31.1331 34.2455 30.5646 34.027 30.1763 33.6381C29.8775 33.3389 29.7041 32.9578 29.6401 32.5474C29.6079 32.3416 29.78 32.1718 29.988 32.1718H33.3768Z" fill="#4176DE"/>
<path fill-rule="evenodd" clip-rule="evenodd" d="M32.1844 18.7239C27.8962 19.0381 19.3322 21.3758 19.3824 28.2128C18.5875 28.548 17.0731 29.9724 17.3743 32.9887C17.7508 36.7591 18.6294 37.0105 19.9472 37.9531C19.9472 39.8383 22.8967 43.6842 34.6946 43.9858C46.4925 44.2874 48.94 39.7126 48.6889 37.3875C49.965 37.8274 52.4793 37.2744 52.3287 31.5434C52.3287 27.8986 50.4461 27.0817 49.5675 27.0189C48.6889 26.956 49.6303 18.7239 34.0043 18.7239L33.8788 17.3414H32.5609L32.1844 18.7239ZM24.7793 37.5132C26.1349 36.91 28.6308 36.946 31.1176 36.822C35.2344 36.6167 38.5478 37.4755 41.6604 37.3247C44.773 37.1739 45.4257 31.5224 45.3629 28.7156C45.4633 24.3419 43.292 22.6829 42.3507 22.0545C41.7859 21.6774 39.3887 20.6469 32.5609 20.7977C25.7332 20.9485 22.8549 23.3951 22.2064 24.4424C21.5161 25.8458 20.1104 29.2309 20.512 32.8002C21.0141 37.2619 23.085 37.7646 24.7793 37.5132Z" fill="#4176DE"/>
<path d="M28.1054 28.7784C28.1054 30.0278 27.0461 31.1035 25.9717 31.1035C24.8973 31.1035 23.9635 30.0906 23.9635 28.8412C23.9635 27.5918 24.8973 26.3276 25.9717 26.3276C27.0461 26.3276 28.1054 27.529 28.1054 28.7784Z" fill="#4176DE"/>
<path d="M39.715 28.527C39.715 29.7764 38.593 30.9778 37.5186 30.9778C36.4442 30.9778 35.5104 29.965 35.5104 28.7156C35.5104 27.4661 36.3814 26.2648 37.4558 26.2648C38.5227 26.2648 39.715 27.2776 39.715 28.527Z" fill="#4176DE"/>
<path d="M36.0125 14.765C36.0125 16.292 34.7762 17.53 33.2513 17.53C31.7263 17.53 30.49 16.292 30.49 14.765C30.49 13.2379 31.7263 12 33.2513 12C34.7762 12 36.0125 13.2379 36.0125 14.765Z" fill="#4176DE"/>
<path d="M17.2278 53.119C17.4873 52.7476 17.9017 52.4965 18.351 52.3844C18.7953 52.2813 19.2934 52.2833 19.7261 52.4704C19.9308 52.5564 20.1016 52.6754 20.2466 52.8109C20.3925 52.9416 20.5094 53.0956 20.5915 53.2642C20.7564 53.5998 20.7896 53.9926 20.6478 54.3667C24.377 55.7183 28.4095 56.4832 32.476 56.629C34.5101 56.7067 36.5516 56.6194 38.565 56.3821C40.5791 56.1441 42.5676 55.7527 44.494 55.2135C48.3507 54.1349 51.9597 52.4573 55.0887 50.2962C58.2211 48.1392 60.8602 45.4917 62.8413 42.543C62.6482 42.4295 62.489 42.2906 62.3638 42.1379C62.2403 41.9845 62.1483 41.8153 62.0862 41.6379C61.966 41.2843 61.9917 40.9088 62.1989 40.5731C62.4119 40.2086 62.775 39.9451 63.2242 39.8117C63.448 39.7443 63.6884 39.7106 63.9329 39.712C64.1766 39.7133 64.422 39.7512 64.6607 39.8344C64.8994 39.9176 65.1083 40.038 65.2774 40.1852C65.4431 40.3317 65.5716 40.505 65.6545 40.6962C65.817 41.0752 65.812 41.5285 65.5749 41.9371C65.3428 42.3154 64.9665 42.5912 64.5438 42.7288C64.3349 42.7982 64.1062 42.8326 63.8757 42.8285C63.647 42.8257 63.4182 42.7858 63.1994 42.7095C61.1943 45.6953 58.5228 48.3751 55.3507 50.5596C52.1835 52.7462 48.5298 54.4458 44.6241 55.5381C42.6729 56.0842 40.6595 56.4804 38.6213 56.7219C36.5814 56.9633 34.515 57.0506 32.4569 56.9715C28.3407 56.8243 24.2576 56.0498 20.4812 54.6811C20.2466 55.0209 19.8695 55.2595 19.4269 55.3675C19.2064 55.4219 18.9693 55.4425 18.7298 55.4287C18.4927 55.4115 18.2557 55.3496 18.0285 55.254C17.5437 55.0456 17.193 54.7107 17.0563 54.311C16.9145 53.9176 16.9643 53.4918 17.2245 53.1204L17.2278 53.119ZM63.2209 42.3367C63.9279 42.662 64.8215 42.4144 65.2086 41.7864C65.3942 41.4714 65.3959 41.1206 65.2674 40.8242C65.1373 40.527 64.8696 40.2794 64.499 40.1473C64.1294 40.0146 63.724 40.016 63.3759 40.1198C63.0253 40.2237 62.7402 40.4342 62.5694 40.7203C62.2188 41.2871 62.5122 42.012 63.2192 42.3367H63.2209ZM17.5843 53.2896C17.3853 53.5819 17.3505 53.9162 17.4608 54.2237C17.5743 54.5243 17.8412 54.7877 18.2175 54.9486C18.4057 55.0277 18.603 55.0738 18.7986 55.0876C18.9942 55.0986 19.1915 55.0711 19.373 55.0195C19.7344 54.9129 20.0378 54.6935 20.2035 54.3874C20.3693 54.0813 20.371 53.7484 20.25 53.4602C20.1886 53.3157 20.095 53.1857 19.9764 53.0688C19.8595 52.9498 19.7137 52.8487 19.5421 52.7765C19.1981 52.6293 18.8102 52.621 18.4546 52.7139C18.104 52.8013 17.7832 52.9987 17.5859 53.291L17.5843 53.2896Z" fill="#4176DE"/>
<mask id="mask0_3659_715" style="mask-type:luminance" maskUnits="userSpaceOnUse" x="0" y="4" width="18" height="43">
<path d="M0.335205 4.30786H17.5544V46.3917H0.335205V4.30786Z" fill="white"/>
</mask>
<g mask="url(#mask0_3659_715)">
<path d="M17.2275 5.20186C17.4853 5.57466 17.5417 5.99767 17.4331 6.3746C17.3245 6.75153 17.0709 7.10645 16.6581 7.32242C16.2694 7.51914 15.835 7.60374 15.399 7.55147C14.9647 7.50126 14.537 7.32793 14.2162 7.03973C10.9446 9.04886 8.12309 11.5594 5.93815 14.4091C3.7499 17.2553 2.20403 20.4399 1.40416 23.7525C0.99801 25.4067 0.79742 27.0953 0.770896 28.7825C0.74603 30.4718 0.902689 32.1618 1.24419 33.8257C1.92553 37.1541 3.3537 40.38 5.45574 43.2729C5.66959 43.1911 5.89505 43.1457 6.11719 43.1326C6.34265 43.1175 6.56976 43.1326 6.78361 43.1787C7.21297 43.2688 7.5868 43.4779 7.8363 43.7943C8.11977 44.1245 8.20349 44.5234 8.11977 44.9127C8.07501 45.1074 7.99461 45.2958 7.87442 45.4692C7.75258 45.6432 7.59012 45.8014 7.3829 45.9307C7.1765 46.0621 6.94856 46.1508 6.70818 46.1996C6.46781 46.2492 6.21914 46.2574 5.98291 46.2203C5.50382 46.1494 5.04296 45.9142 4.72715 45.5434C4.44616 45.1899 4.35084 44.7786 4.41798 44.4044C4.45279 44.2173 4.52657 44.0385 4.64178 43.8775C4.76031 43.7138 4.91448 43.5694 5.1043 43.4504C2.97655 40.5223 1.52932 37.2552 0.839693 33.8862C0.494049 32.201 0.336562 30.489 0.361428 28.7812C0.387123 27.0726 0.591029 25.3634 1.00298 23.6878C1.81197 20.3354 3.37856 17.1109 5.59417 14.2289C7.80728 11.3441 10.6628 8.80331 13.975 6.76941C13.7379 6.431 13.6766 6.04169 13.7852 5.67027C13.8954 5.30297 14.164 4.94255 14.6 4.72038C15.0625 4.47689 15.5872 4.39504 16.0688 4.48927C16.5512 4.58488 16.9706 4.83319 17.23 5.20599L17.2275 5.20186ZM5.48558 43.6444C4.79512 43.991 4.60034 44.7593 5.06617 45.3509C5.5577 45.9266 6.48604 46.0648 7.13092 45.659C7.77579 45.2539 7.93991 44.5028 7.4948 43.9841C7.07621 43.4504 6.18019 43.2963 5.48558 43.6444ZM16.8719 5.37244C16.6664 5.08631 16.3307 4.88684 15.9602 4.82149C15.5922 4.75546 15.1802 4.81186 14.8238 5.0017C14.4632 5.18604 14.246 5.48593 14.1756 5.79889C14.1043 6.11116 14.1839 6.43788 14.4201 6.70957C14.6572 6.98126 15.0045 7.15047 15.3667 7.20618C15.7281 7.2619 16.1036 7.20343 16.4326 7.0356C16.7584 6.86227 16.964 6.59058 17.0427 6.28725C17.1206 5.98461 17.0792 5.66202 16.8703 5.37107L16.8719 5.37244Z" fill="#4176DE"/>
</g>
<mask id="mask1_3659_715" style="mask-type:luminance" maskUnits="userSpaceOnUse" x="29" y="0" width="41" height="30">
<path d="M29.4375 0H69.0863V29.3116H29.4375V0Z" fill="white"/>
</mask>
<g mask="url(#mask1_3659_715)">
<path d="M67.239 29.1602C66.7209 29.1602 66.2468 28.9869 65.8978 28.7207C65.5464 28.4545 65.335 28.0927 65.3093 27.689C65.2745 27.312 65.4262 26.9571 65.7006 26.6689C65.9824 26.3807 66.3587 26.1641 66.8212 26.0781C66.3852 22.7194 65.1609 19.4365 63.2761 16.4451C61.3904 13.4524 58.8357 10.752 55.7805 8.52137C52.7269 6.28938 49.1801 4.52167 45.3581 3.35444C41.5386 2.1872 37.4564 1.62456 33.3882 1.67408C33.3434 2.06408 33.1296 2.41624 32.8221 2.67211C32.6679 2.80005 32.488 2.90391 32.2908 2.97751C32.0935 3.05798 31.8796 3.11163 31.6525 3.1247C31.4088 3.13984 31.1726 3.11163 30.9521 3.0456C30.8419 3.01328 30.735 2.97063 30.633 2.92179C30.5302 2.8764 30.4349 2.82206 30.3445 2.76084C29.9848 2.5146 29.7179 2.14868 29.6524 1.72292C29.5861 1.29715 29.7395 0.88721 30.0536 0.570811C30.1324 0.491711 30.2194 0.418114 30.3164 0.350707C30.4142 0.286739 30.5211 0.233777 30.6347 0.185629C30.8609 0.0913975 31.1162 0.0315568 31.3898 0.015049C31.6442 -8.32453e-05 31.8896 0.0205517 32.1167 0.077641C32.3438 0.142297 32.551 0.237904 32.7301 0.358961C33.0873 0.601075 33.3244 0.943612 33.3832 1.33223C37.5011 1.28202 41.6339 1.85292 45.5015 3.03391C49.3691 4.21422 52.9623 6.00394 56.0515 8.26482C59.1433 10.5243 61.731 13.2577 63.6391 16.2869C65.548 19.3161 66.788 22.639 67.229 26.0396C67.6998 26.0396 68.1549 26.1895 68.4756 26.4543C68.8014 26.7178 69.0202 27.0933 69.0584 27.5156C69.0899 27.9689 68.8793 28.3878 68.5519 28.6856C68.2212 28.9841 67.7553 29.1602 67.239 29.1602ZM32.9854 1.51107C32.9754 1.17541 32.7989 0.875517 32.5146 0.660916C32.3728 0.555679 32.2037 0.464198 32.0181 0.413987C31.8316 0.363088 31.6277 0.341766 31.4171 0.354834C30.996 0.380972 30.628 0.541922 30.3827 0.778534C30.1373 1.02684 30.0138 1.34599 30.0602 1.67958C30.1058 2.01249 30.3106 2.29794 30.5916 2.49053C30.8759 2.69344 31.2381 2.8083 31.6227 2.78354C31.8158 2.77116 31.9965 2.72645 32.1606 2.65423C32.3256 2.58201 32.4723 2.49466 32.595 2.37979C32.842 2.15418 32.9953 1.84604 32.9837 1.51107H32.9854ZM67.2274 28.8191C67.6318 28.8149 67.9941 28.6746 68.2527 28.4408C68.5071 28.209 68.6738 27.885 68.6456 27.5342C68.5809 26.8299 67.8739 26.3168 67.069 26.3876C66.265 26.4598 65.6583 27.0349 65.7155 27.6697C65.742 27.9889 65.9028 28.2743 66.178 28.4834C66.449 28.6904 66.8212 28.8218 67.2257 28.8191H67.2274Z" fill="#4176DE"/>
</g>
<path d="M33.8958 52.9317C18.1006 52.9317 5.24878 42.2684 5.24878 29.1598C5.24878 16.0513 18.1006 5.38794 33.8958 5.38794C49.691 5.38794 62.5428 16.0513 62.5428 29.1598C62.5428 42.2684 49.6927 52.9317 33.8958 52.9317ZM33.8958 5.73048C18.3261 5.73048 5.66073 16.2411 5.66073 29.1612C5.66073 42.0813 18.3261 52.592 33.8958 52.592C49.4655 52.592 62.1317 42.0813 62.1317 29.1612C62.1317 16.2411 49.4655 5.7291 33.8958 5.7291V5.73048Z" fill="#4176DE"/>
</svg>
