<svg width="29" height="30" viewBox="0 0 29 30" fill="none" xmlns="http://www.w3.org/2000/svg">
<path d="M13.3604 19.4628C13.5288 19.4628 13.6682 19.6011 13.6378 19.7674C13.5767 20.101 13.4162 20.4108 13.174 20.654C12.8593 20.9699 12.4326 21.1474 11.9876 21.1474C11.5426 21.1474 11.082 20.9699 10.7673 20.654C10.5253 20.4109 10.3848 20.1013 10.3329 19.7679C10.3069 19.6008 10.4463 19.4628 10.6148 19.4628H13.3604Z" fill="#4176DE"/>
<path fill-rule="evenodd" clip-rule="evenodd" d="M12.3943 8.53905C8.92 8.79428 1.98151 10.6932 2.02219 16.247C1.37816 16.5192 0.151128 17.6762 0.395179 20.1264C0.700242 23.1892 1.41206 23.3934 2.47978 24.1591C2.47978 25.6904 4.86944 28.8144 14.4281 29.0594C23.9867 29.3045 25.9696 25.5883 25.7663 23.6996C26.8001 24.057 28.8372 23.6078 28.7152 18.9524C28.7152 15.9917 27.1899 15.3281 26.4781 15.2771C25.7663 15.226 26.5289 8.53905 13.8688 8.53905L13.7671 7.41604H12.6994L12.3943 8.53905ZM6.39476 23.8017C7.49298 23.3117 9.51519 23.3409 11.53 23.2402C14.8654 23.0735 17.5499 23.7711 20.0718 23.6486C22.5936 23.5261 23.1224 18.9354 23.0715 16.6553C23.1529 13.1025 21.3937 11.7549 20.631 11.2445C20.1734 10.9382 18.2312 10.1011 12.6994 10.2236C7.16758 10.3461 4.83554 12.3334 4.31016 13.1842C3.75087 14.3242 2.61197 17.0739 2.93737 19.9733C3.34412 23.5976 5.02197 24.0059 6.39476 23.8017Z" fill="#4176DE"/>
<path d="M9.08948 16.7064C9.08948 17.7213 8.23128 18.5951 7.36079 18.5951C6.4903 18.5951 5.73378 17.7723 5.73378 16.7574C5.73378 15.7425 6.4903 14.7156 7.36079 14.7156C8.23128 14.7156 9.08948 15.6915 9.08948 16.7064Z" fill="#4176DE"/>
<path d="M18.4956 16.5022C18.4956 17.5171 17.5865 18.493 16.7161 18.493C15.8456 18.493 15.0891 17.6702 15.0891 16.6553C15.0891 15.6404 15.7947 14.6645 16.6652 14.6645C17.5296 14.6645 18.4956 15.4873 18.4956 16.5022Z" fill="#4176DE"/>
<path d="M15.4958 5.32316C15.4958 6.5636 14.4942 7.56918 13.2587 7.56918C12.0231 7.56918 11.0215 6.5636 11.0215 5.32316C11.0215 4.08272 12.0231 3.07715 13.2587 3.07715C14.4942 3.07715 15.4958 4.08272 15.4958 5.32316Z" fill="#4176DE"/>
</svg>
