<svg width="58" height="59" viewBox="0 0 58 59" fill="none" xmlns="http://www.w3.org/2000/svg">
<path d="M28.3004 51.1517H28.2043C16.1941 51.1517 6.42285 41.3804 6.42285 29.3702V29.2741C6.42285 17.264 16.1941 7.49268 28.2043 7.49268H28.3004C40.3106 7.49268 50.0818 17.264 50.0818 29.2741V29.3702C50.0818 41.3804 40.3106 51.1517 28.3004 51.1517ZM28.2043 8.97049C17.0084 8.97049 7.90066 18.0782 7.90066 29.2741V29.3702C7.90066 40.5661 17.0084 49.6739 28.2043 49.6739H28.3004C39.4963 49.6739 48.604 40.5661 48.604 29.3702V29.2741C48.604 18.0782 39.4963 8.97049 28.3004 8.97049H28.2043Z" fill="#4176DE"/>
<path d="M14.2741 54.2438C14.4929 53.8659 14.8426 53.6104 15.2216 53.4964C15.5964 53.3914 16.0166 53.3935 16.3816 53.5838C16.5544 53.6713 16.6984 53.7924 16.8208 53.9303C16.9439 54.0633 17.0425 54.22 17.1117 54.3915C17.2508 54.7331 17.2788 55.1327 17.1592 55.5134C20.3052 56.8887 23.7072 57.667 27.1378 57.8154C28.8538 57.8945 30.576 57.8056 32.2746 57.5641C33.9738 57.322 35.6513 56.9237 37.2764 56.375C40.5301 55.2776 43.5747 53.5706 46.2144 51.3715C48.857 49.1766 51.0834 46.4828 52.7547 43.4823C52.5917 43.3669 52.4575 43.2255 52.3519 43.0701C52.2477 42.914 52.1701 42.7419 52.1176 42.5613C52.0162 42.2016 52.0379 41.8194 52.2127 41.4779C52.3924 41.1069 52.6987 40.8389 53.0777 40.7031C53.2665 40.6345 53.4693 40.6002 53.6756 40.6016C53.8812 40.603 54.0882 40.6415 54.2896 40.7262C54.4909 40.8109 54.6672 40.9334 54.8098 41.0831C54.9497 41.2322 55.058 41.4086 55.128 41.6031C55.265 41.9888 55.2608 42.45 55.0608 42.8657C54.8651 43.2507 54.5476 43.5313 54.191 43.6713C54.0147 43.742 53.8217 43.777 53.6273 43.7728C53.4344 43.77 53.2414 43.7294 53.0568 43.6517C51.3652 46.6899 49.1115 49.4167 46.4354 51.6396C43.7635 53.8645 40.6811 55.5939 37.3862 56.7054C35.7401 57.2611 34.0416 57.6642 32.3221 57.9099C30.6012 58.1555 28.858 58.2444 27.1217 58.1639C23.6491 58.0141 20.2045 57.2261 17.0187 55.8333C16.8208 56.179 16.5026 56.4219 16.1292 56.5318C15.9432 56.5871 15.7432 56.6081 15.5411 56.5941C15.3411 56.5766 15.1412 56.5136 14.9496 56.4163C14.5405 56.2042 14.2447 55.8634 14.1293 55.4568C14.0097 55.0564 14.0517 54.6232 14.2713 54.2452L14.2741 54.2438ZM53.0749 43.2724C53.6714 43.6034 54.4252 43.3515 54.7518 42.7125C54.9084 42.3919 54.9098 42.035 54.8014 41.7333C54.6916 41.431 54.4658 41.179 54.1532 41.0446C53.8413 40.9096 53.4994 40.911 53.2057 41.0166C52.9099 41.1223 52.6694 41.3365 52.5253 41.6276C52.2295 42.2043 52.4771 42.942 53.0735 43.2724H53.0749ZM14.5747 54.4174C14.4069 54.7149 14.3776 55.055 14.4706 55.3679C14.5664 55.6737 14.7915 55.9418 15.109 56.1055C15.2677 56.186 15.4341 56.2329 15.5992 56.2469C15.7642 56.2581 15.9306 56.2301 16.0838 56.1776C16.3886 56.0692 16.6446 55.8459 16.7844 55.5344C16.9243 55.223 16.9257 54.8842 16.8236 54.591C16.7718 54.444 16.6928 54.3117 16.5928 54.1928C16.4942 54.0717 16.3712 53.9688 16.2264 53.8953C15.9362 53.7455 15.609 53.7371 15.309 53.8316C15.0132 53.9205 14.7426 54.1214 14.5761 54.4188L14.5747 54.4174Z" fill="#4176DE"/>
<mask id="mask0_3054_6423" style="mask-type:luminance" maskUnits="userSpaceOnUse" x="0" y="4" width="15" height="44">
<path d="M0.0229492 4.57617H14.5495V47.3982H0.0229492V4.57617Z" fill="white"/>
</mask>
<g mask="url(#mask0_3054_6423)">
<path d="M14.274 5.48505C14.4915 5.86439 14.539 6.29482 14.4474 6.67836C14.3558 7.0619 14.1419 7.42304 13.7936 7.64281C13.4657 7.84297 13.0993 7.92906 12.7314 7.87587C12.365 7.82478 12.0042 7.64841 11.7336 7.35515C8.97359 9.39953 6.59328 11.9541 4.75002 14.8538C2.90396 17.7499 1.59983 20.9904 0.925033 24.3611C0.582393 26.0443 0.413171 27.7625 0.390794 29.4794C0.369816 31.1983 0.501977 32.9179 0.790075 34.6109C1.36487 37.9977 2.56971 41.2802 4.34305 44.2239C4.52346 44.1406 4.71366 44.0944 4.90106 44.0811C5.09126 44.0657 5.28286 44.0811 5.46327 44.128C5.82549 44.2197 6.14086 44.4325 6.35134 44.7544C6.59049 45.0904 6.66111 45.4963 6.59049 45.8925C6.55273 46.0905 6.4849 46.2823 6.3835 46.4587C6.28071 46.6357 6.14366 46.7967 5.96884 46.9283C5.79472 47.062 5.60242 47.1523 5.39964 47.2019C5.19685 47.2523 4.98707 47.2607 4.78778 47.2229C4.3836 47.1509 3.99481 46.9115 3.72839 46.5343C3.49134 46.1745 3.41092 45.756 3.46756 45.3752C3.49693 45.1849 3.55917 45.0029 3.65637 44.8391C3.75636 44.6725 3.88642 44.5256 4.04656 44.4045C2.25154 41.4251 1.03062 38.1006 0.448833 34.6725C0.157239 32.9578 0.0243789 31.2158 0.0453568 29.478C0.0670341 27.7394 0.239054 26.0002 0.586589 24.2953C1.26907 20.884 2.59068 17.6029 4.45982 14.6704C6.32686 11.7351 8.73584 9.14967 11.5301 7.0801C11.3301 6.73575 11.2784 6.33961 11.37 5.96167C11.463 5.58793 11.6895 5.22119 12.0573 4.99513C12.4475 4.74736 12.8902 4.66408 13.2964 4.75996C13.7034 4.85725 14.0572 5.10991 14.2761 5.48925L14.274 5.48505ZM4.36822 44.6019C3.78573 44.9546 3.6214 45.7364 4.01439 46.3383C4.42906 46.9241 5.21223 47.0648 5.75626 46.6518C6.30029 46.2396 6.43875 45.4753 6.06324 44.9476C5.71011 44.4045 4.9542 44.2477 4.36822 44.6019ZM13.974 5.65862C13.8006 5.36747 13.5174 5.1645 13.2048 5.09801C12.8944 5.03082 12.5468 5.08821 12.2462 5.28138C11.942 5.46895 11.7588 5.7741 11.6993 6.09255C11.6392 6.4103 11.7063 6.74275 11.9056 7.01921C12.1056 7.29566 12.3986 7.46783 12.7042 7.52453C13.009 7.58122 13.3258 7.52173 13.6034 7.35095C13.8782 7.17458 14.0517 6.89812 14.1181 6.58947C14.1838 6.28152 14.1489 5.95327 13.9726 5.65722L13.974 5.65862Z" fill="#4176DE"/>
</g>
<mask id="mask1_3054_6423" style="mask-type:luminance" maskUnits="userSpaceOnUse" x="24" y="0" width="35" height="31">
<path d="M24.5742 0.192871H58.0229V30.0186H24.5742V0.192871Z" fill="white"/>
</mask>
<g mask="url(#mask1_3054_6423)">
<path d="M56.4644 29.8649C56.0274 29.8649 55.6274 29.6885 55.333 29.4177C55.0365 29.1468 54.8582 28.7787 54.8365 28.3678C54.8072 27.9843 54.9351 27.6232 55.1666 27.3299C55.4043 27.0366 55.7218 26.8162 56.112 26.7287C55.7442 23.3111 54.7114 19.9706 53.1212 16.9267C51.5304 13.8815 49.3753 11.1338 46.7978 8.86402C44.2217 6.59288 41.2295 4.79417 38.0052 3.60645C34.783 2.41874 31.3391 1.84623 27.9071 1.89663C27.8693 2.29346 27.6889 2.65181 27.4295 2.91216C27.2994 3.04234 27.1477 3.14803 26.9813 3.22291C26.8149 3.3048 26.6344 3.35939 26.4428 3.37269C26.2373 3.38809 26.038 3.35939 25.852 3.2922C25.759 3.25931 25.6688 3.21592 25.5827 3.16622C25.496 3.12003 25.4156 3.06474 25.3394 3.00245C25.0359 2.75189 24.8108 2.37955 24.7555 1.94632C24.6996 1.51309 24.8289 1.09595 25.094 0.774003C25.1604 0.693516 25.2338 0.618627 25.3156 0.550038C25.3981 0.484949 25.4883 0.431057 25.5841 0.382065C25.775 0.28618 25.9904 0.22529 26.2212 0.208492C26.4359 0.193095 26.6428 0.214092 26.8344 0.272182C27.026 0.337972 27.2009 0.435257 27.3519 0.558437C27.6533 0.804798 27.8533 1.15334 27.9029 1.54878C31.3769 1.49769 34.8634 2.0786 38.1262 3.28031C41.389 4.48132 44.4203 6.30243 47.0264 8.60296C49.6347 10.9021 51.8178 13.6835 53.4275 16.7658C55.0379 19.8481 56.084 23.2292 56.456 26.6895C56.8532 26.6895 57.2371 26.8421 57.5077 27.1115C57.7825 27.3796 57.9672 27.7617 57.9993 28.1915C58.0259 28.6527 57.8483 29.0789 57.5721 29.382C57.2931 29.6857 56.9001 29.8649 56.4644 29.8649ZM27.5673 1.73075C27.5589 1.38921 27.4099 1.08405 27.1701 0.865688C27.0505 0.758605 26.9079 0.66552 26.7512 0.614428C26.5939 0.562636 26.4219 0.54094 26.2443 0.554238C25.889 0.580834 25.5786 0.744608 25.3716 0.985369C25.1646 1.23803 25.0604 1.56278 25.0996 1.90222C25.138 2.24097 25.3107 2.53142 25.5478 2.72739C25.7876 2.93386 26.0932 3.05074 26.4177 3.02555C26.5806 3.01295 26.733 2.96746 26.8715 2.89397C27.0107 2.82048 27.1344 2.73159 27.2379 2.61471C27.4463 2.38515 27.5757 2.0716 27.5659 1.73075H27.5673ZM56.4546 29.5178C56.7959 29.5136 57.1015 29.3708 57.3196 29.1328C57.5343 28.8969 57.6749 28.5673 57.6511 28.2104C57.5965 27.4937 57.0001 26.9716 56.3211 27.0436C55.6428 27.1171 55.1309 27.7022 55.1792 28.3482C55.2016 28.673 55.3372 28.9634 55.5694 29.1762C55.798 29.3869 56.112 29.5206 56.4532 29.5178H56.4546Z" fill="#4176DE"/>
</g>
<path d="M28.3355 54.0535C15.0103 54.0535 4.16821 43.2031 4.16821 29.8647C4.16821 16.5262 15.0103 5.67578 28.3355 5.67578C41.6608 5.67578 52.5029 16.5262 52.5029 29.8647C52.5029 43.2031 41.6621 54.0535 28.3355 54.0535ZM28.3355 6.02433C15.2005 6.02433 4.51575 16.7193 4.51575 29.8661C4.51575 43.0128 15.2005 53.7078 28.3355 53.7078C41.4706 53.7078 52.156 43.0128 52.156 29.8661C52.156 16.7193 41.4706 6.02293 28.3355 6.02293V6.02433Z" fill="#4176DE"/>
<path d="M15.4943 18.9019L25.2009 31.3351L15.4338 41.4443H17.6327L26.1846 32.594L33.0936 41.4443H40.5749L30.3226 28.3116L39.4143 18.9019H37.2154L29.3404 27.0528L22.977 18.9019H15.4958H15.4943ZM18.7269 20.4532H22.163L37.3393 39.8929H33.9032L18.7269 20.4532Z" fill="#4176DE"/>
</svg>
