<svg width="58" height="59" viewBox="0 0 58 59" fill="none" xmlns="http://www.w3.org/2000/svg">
<path d="M28.3005 51.6517H28.2045C16.1943 51.6517 6.42298 41.8804 6.42298 29.8702V29.7741C6.42298 17.764 16.1943 7.99268 28.2045 7.99268H28.3005C40.3107 7.99268 50.082 17.764 50.082 29.7741V29.8702C50.082 41.8804 40.3107 51.6517 28.3005 51.6517ZM28.2045 9.47049C17.0086 9.47049 7.90079 18.5782 7.90079 29.7741V29.8702C7.90079 41.0661 17.0086 50.1739 28.2045 50.1739H28.3005C39.4964 50.1739 48.6042 41.0661 48.6042 29.8702V29.7741C48.6042 18.5782 39.4964 9.47049 28.3005 9.47049H28.2045Z" fill="#ECF1FC"/>
<path d="M14.2741 54.7438C14.493 54.3659 14.8426 54.1104 15.2216 53.9964C15.5964 53.8914 16.0167 53.8935 16.3817 54.0838C16.5544 54.1713 16.6984 54.2924 16.8208 54.4303C16.9439 54.5633 17.0425 54.72 17.1117 54.8915C17.2509 55.2331 17.2788 55.6327 17.1593 56.0134C20.3053 57.3887 23.7072 58.167 27.1378 58.3154C28.8538 58.3945 30.5761 58.3056 32.2746 58.0641C33.9738 57.822 35.6514 57.4237 37.2764 56.875C40.5301 55.7776 43.5747 54.0706 46.2145 51.8715C48.857 49.6766 51.0835 46.9828 52.7547 43.9823C52.5918 43.8669 52.4575 43.7255 52.3519 43.5701C52.2477 43.414 52.1701 43.2419 52.1177 43.0613C52.0163 42.7016 52.0379 42.3194 52.2128 41.9779C52.3925 41.6069 52.6988 41.3389 53.0778 41.2031C53.2666 41.1345 53.4693 41.1002 53.6756 41.1016C53.8812 41.103 54.0882 41.1415 54.2896 41.2262C54.491 41.3109 54.6672 41.4334 54.8098 41.5831C54.9497 41.7322 55.0581 41.9086 55.128 42.1031C55.2651 42.4888 55.2609 42.95 55.0609 43.3657C54.8651 43.7507 54.5476 44.0313 54.191 44.1713C54.0148 44.242 53.8218 44.277 53.6274 44.2728C53.4344 44.27 53.2414 44.2294 53.0568 44.1517C51.3653 47.1899 49.1115 49.9167 46.4354 52.1396C43.7635 54.3645 40.6812 56.0939 37.3862 57.2054C35.7402 57.7611 34.0416 58.1642 32.3221 58.4099C30.6013 58.6555 28.858 58.7444 27.1217 58.6639C23.6492 58.5141 20.2046 57.7261 17.0187 56.3333C16.8208 56.679 16.5027 56.9219 16.1292 57.0318C15.9432 57.0871 15.7433 57.1081 15.5412 57.0941C15.3412 57.0766 15.1412 57.0136 14.9496 56.9163C14.5405 56.7042 14.2447 56.3634 14.1293 55.9568C14.0098 55.5564 14.0517 55.1232 14.2713 54.7452L14.2741 54.7438ZM53.075 43.7724C53.6714 44.1034 54.4252 43.8515 54.7518 43.2125C54.9084 42.8919 54.9098 42.535 54.8014 42.2333C54.6917 41.931 54.4658 41.679 54.1532 41.5446C53.8414 41.4096 53.4994 41.411 53.2057 41.5166C52.9099 41.6223 52.6694 41.8365 52.5253 42.1276C52.2295 42.7043 52.4771 43.442 53.0736 43.7724H53.075ZM14.5748 54.9174C14.407 55.2149 14.3776 55.555 14.4706 55.8679C14.5664 56.1737 14.7915 56.4418 15.109 56.6055C15.2677 56.686 15.4342 56.7329 15.5992 56.7469C15.7642 56.7581 15.9307 56.7301 16.0838 56.6776C16.3887 56.5692 16.6446 56.3459 16.7845 56.0344C16.9243 55.723 16.9257 55.3842 16.8236 55.091C16.7719 54.944 16.6929 54.8117 16.5929 54.6928C16.4943 54.5717 16.3712 54.4688 16.2264 54.3953C15.9362 54.2455 15.609 54.2371 15.309 54.3316C15.0132 54.4205 14.7426 54.6214 14.5762 54.9188L14.5748 54.9174Z" fill="#ECF1FC"/>
<mask id="mask0_3054_6573" style="mask-type:luminance" maskUnits="userSpaceOnUse" x="0" y="5" width="15" height="43">
<path d="M0.0230408 5.07617H14.5496V47.8982H0.0230408V5.07617Z" fill="white"/>
</mask>
<g mask="url(#mask0_3054_6573)">
<path d="M14.2741 5.98505C14.4916 6.36439 14.5391 6.79482 14.4475 7.17836C14.3559 7.5619 14.142 7.92304 13.7937 8.14281C13.4658 8.34297 13.0993 8.42906 12.7315 8.37587C12.3651 8.32478 12.0043 8.14841 11.7337 7.85515C8.97368 9.89953 6.59338 12.4541 4.75011 15.3538C2.90405 18.2499 1.59992 21.4904 0.925125 24.8611C0.582485 26.5443 0.413262 28.2625 0.390886 29.9794C0.369908 31.6983 0.502069 33.4179 0.790167 35.1109C1.36496 38.4977 2.5698 41.7802 4.34314 44.7239C4.52355 44.6406 4.71375 44.5944 4.90115 44.5811C5.09135 44.5657 5.28295 44.5811 5.46336 44.628C5.82558 44.7197 6.14095 44.9325 6.35143 45.2544C6.59058 45.5904 6.6612 45.9963 6.59058 46.3925C6.55282 46.5905 6.48499 46.7823 6.3836 46.9587C6.2808 47.1357 6.14375 47.2967 5.96893 47.4283C5.79481 47.562 5.60251 47.6523 5.39973 47.7019C5.19694 47.7523 4.98716 47.7607 4.78787 47.7229C4.38369 47.6509 3.9949 47.4115 3.72848 47.0343C3.49143 46.6745 3.41102 46.256 3.46766 45.8752C3.49703 45.6849 3.55926 45.5029 3.65646 45.3391C3.75645 45.1725 3.88652 45.0256 4.04665 44.9045C2.25163 41.9251 1.03071 38.6006 0.448925 35.1725C0.157331 33.4578 0.0244705 31.7158 0.0454484 29.978C0.0671256 28.2394 0.239145 26.5002 0.58668 24.7953C1.26916 21.384 2.59078 18.1029 4.45991 15.1704C6.32695 12.2351 8.73593 9.64967 11.5302 7.5801C11.3302 7.23575 11.2785 6.83961 11.3701 6.46167C11.4631 6.08793 11.6896 5.72119 12.0574 5.49513C12.4476 5.24736 12.8903 5.16408 13.2965 5.25996C13.7035 5.35725 14.0573 5.60991 14.2762 5.98925L14.2741 5.98505ZM4.36831 45.1019C3.78582 45.4546 3.62149 46.2364 4.01448 46.8383C4.42915 47.4241 5.21232 47.5648 5.75635 47.1518C6.30038 46.7396 6.43884 45.9753 6.06333 45.4476C5.7102 44.9045 4.9543 44.7477 4.36831 45.1019ZM13.9741 6.15862C13.8007 5.86747 13.5175 5.6645 13.2049 5.59801C12.8945 5.53082 12.5469 5.58821 12.2462 5.78138C11.9421 5.96895 11.7589 6.2741 11.6994 6.59255C11.6393 6.9103 11.7064 7.24275 11.9057 7.51921C12.1057 7.79566 12.3987 7.96783 12.7043 8.02453C13.0091 8.08122 13.3259 8.02173 13.6035 7.85095C13.8783 7.67458 14.0517 7.39812 14.1182 7.08947C14.1839 6.78152 14.1489 6.45327 13.9727 6.15722L13.9741 6.15862Z" fill="#ECF1FC"/>
</g>
<mask id="mask1_3054_6573" style="mask-type:luminance" maskUnits="userSpaceOnUse" x="24" y="0" width="35" height="31">
<path d="M24.5743 0.692871H58.023V30.5186H24.5743V0.692871Z" fill="white"/>
</mask>
<g mask="url(#mask1_3054_6573)">
<path d="M56.4644 30.3649C56.0274 30.3649 55.6274 30.1885 55.333 29.9177C55.0365 29.6468 54.8582 29.2787 54.8365 28.8678C54.8071 28.4843 54.9351 28.1232 55.1666 27.8299C55.4043 27.5366 55.7218 27.3162 56.112 27.2287C55.7442 23.8111 54.7113 20.4706 53.1212 17.4267C51.5304 14.3815 49.3752 11.6338 46.7977 9.36402C44.2217 7.09288 41.2295 5.29417 38.0052 4.10645C34.783 2.91874 31.3391 2.34623 27.9071 2.39663C27.8693 2.79346 27.6889 3.15181 27.4295 3.41216C27.2994 3.54234 27.1477 3.64803 26.9813 3.72291C26.8148 3.8048 26.6344 3.85939 26.4428 3.87269C26.2372 3.88809 26.0379 3.85939 25.8519 3.7922C25.7589 3.75931 25.6687 3.71592 25.5827 3.66622C25.496 3.62003 25.4156 3.56474 25.3394 3.50245C25.0359 3.25189 24.8107 2.87955 24.7555 2.44632C24.6995 2.01309 24.8289 1.59595 25.0939 1.274C25.1604 1.19352 25.2338 1.11863 25.3156 1.05004C25.3981 0.984949 25.4883 0.931057 25.5841 0.882065C25.775 0.78618 25.9904 0.72529 26.2211 0.708492C26.4358 0.693095 26.6428 0.714092 26.8344 0.772182C27.026 0.837972 27.2008 0.935257 27.3519 1.05844C27.6532 1.3048 27.8532 1.65334 27.9029 2.04878C31.3768 1.99769 34.8634 2.5786 38.1262 3.78031C41.3889 4.98132 44.4202 6.80243 47.0264 9.10296C49.6347 11.4021 51.8178 14.1835 53.4275 17.2658C55.0379 20.3481 56.084 23.7292 56.456 27.1895C56.8532 27.1895 57.2371 27.3421 57.5077 27.6115C57.7825 27.8796 57.9671 28.2617 57.9993 28.6915C58.0259 29.1527 57.8482 29.5789 57.572 29.882C57.293 30.1857 56.9 30.3649 56.4644 30.3649ZM27.5672 2.23075C27.5588 1.88921 27.4099 1.58405 27.1701 1.36569C27.0505 1.25861 26.9078 1.16552 26.7512 1.11443C26.5939 1.06264 26.4218 1.04094 26.2442 1.05424C25.889 1.08083 25.5785 1.24461 25.3715 1.48537C25.1646 1.73803 25.0604 2.06278 25.0995 2.40222C25.138 2.74097 25.3107 3.03142 25.5478 3.22739C25.7876 3.43386 26.0932 3.55074 26.4176 3.52555C26.5806 3.51295 26.733 3.46746 26.8715 3.39397C27.0106 3.32048 27.1344 3.23159 27.2379 3.11471C27.4463 2.88515 27.5756 2.5716 27.5658 2.23075H27.5672ZM56.4546 30.0178C56.7958 30.0136 57.1014 29.8708 57.3196 29.6328C57.5343 29.3969 57.6748 29.0673 57.6511 28.7104C57.5965 27.9937 57 27.4716 56.321 27.5436C55.6428 27.6171 55.1309 28.2022 55.1791 28.8482C55.2015 29.173 55.3372 29.4634 55.5693 29.6762C55.798 29.8869 56.112 30.0206 56.4532 30.0178H56.4546Z" fill="#ECF1FC"/>
</g>
<path d="M28.3356 54.5535C15.0104 54.5535 4.1683 43.7031 4.1683 30.3647C4.1683 17.0262 15.0104 6.17578 28.3356 6.17578C41.6608 6.17578 52.503 17.0262 52.503 30.3647C52.503 43.7031 41.6622 54.5535 28.3356 54.5535ZM28.3356 6.52433C15.2006 6.52433 4.51584 17.2193 4.51584 30.3661C4.51584 43.5128 15.2006 54.2078 28.3356 54.2078C41.4706 54.2078 52.1561 43.5128 52.1561 30.3661C52.1561 17.2193 41.4706 6.52293 28.3356 6.52293V6.52433Z" fill="#ECF1FC"/>
<path d="M15.4942 19.4019L25.2008 31.8351L15.4338 41.9443H17.6326L26.1845 33.094L33.0935 41.9443H40.5748L30.3225 28.8116L39.4142 19.4019H37.2154L29.3404 27.5528L22.977 19.4019H15.4957H15.4942ZM18.7268 20.9532H22.1629L37.3393 40.3929H33.9032L18.7268 20.9532Z" fill="#ECF1FC"/>
</svg>
