<svg width="277" height="321" viewBox="0 0 277 321" fill="none" xmlns="http://www.w3.org/2000/svg">
<path opacity="0.5" d="M-46 21.6667C-40.109 21.6667 -35.3333 16.8911 -35.3333 11C-35.3333 5.109 -40.109 0.333362 -46 0.333362C-51.891 0.333362 -56.6667 5.109 -56.6667 11C-56.6667 16.8911 -51.891 21.6667 -46 21.6667ZM-46 99.2118H-48V99.8505L-47.6298 100.371L-46 99.2118ZM-19.6402 136.276H-17.6402V135.637L-18.0104 135.116L-19.6402 136.276ZM-19.6402 314.923H-21.6402V316.923H-19.6402V314.923ZM116.985 314.923V316.923H117.719L118.279 316.448L116.985 314.923ZM151.513 285.643V283.643H150.779L150.219 284.117L151.513 285.643ZM241.359 296.309C247.25 296.309 252.025 291.534 252.025 285.643C252.025 279.752 247.25 274.976 241.359 274.976C235.468 274.976 230.692 279.752 230.692 285.643C230.692 291.534 235.468 296.309 241.359 296.309ZM-30.4069 76.1505C-24.5159 76.1505 -19.7402 71.3748 -19.7402 65.4838C-19.7402 59.5927 -24.5159 54.8171 -30.4069 54.8171C-36.2979 54.8171 -41.0736 59.5927 -41.0736 65.4838C-41.0736 71.3748 -36.2979 76.1505 -30.4069 76.1505ZM-30.4069 101.436L-28.9281 102.782L-28.4069 102.21V101.436H-30.4069ZM-45.2575 117.744L-46.7362 116.397L-47.2575 116.97V117.744H-45.2575ZM-45.2575 219.669H-47.2575V220.545L-46.6143 221.138L-45.2575 219.669ZM-30.4069 233.383H-28.4069V232.507L-29.05 231.913L-30.4069 233.383ZM-30.4069 291.943H-32.4069V293.943H-30.4069V291.943ZM218.711 319L217.334 320.45L217.913 321H218.711V319ZM203.49 304.545L204.867 303.095L204.288 302.545H203.49V304.545ZM129.608 304.545L128.308 303.026L124.195 306.545H129.608V304.545ZM142.602 293.426L143.903 294.946L145.502 293.577L144.053 292.049L142.602 293.426ZM122.554 272.3L124.005 270.923L123.413 270.3H122.554V272.3ZM32.3368 272.3V270.3H31.5347L30.9549 270.854L32.3368 272.3ZM-2.56207 223.375L-3.97509 221.96L-4.56207 222.546V223.375H-2.56207ZM28.2529 192.613L29.6659 194.028L30.2529 193.442V192.613H28.2529ZM28.2529 114.779H30.2529V113.911L29.6195 113.318L28.2529 114.779ZM-1.44828 86.9808H-3.44828V87.8482L-2.81493 88.441L-1.44828 86.9808ZM-46 11H-48L-48 99.2118H-46H-44L-44 11H-46ZM-46 99.2118L-47.6298 100.371L-21.2701 137.435L-19.6402 136.276L-18.0104 135.116L-44.3702 98.0527L-46 99.2118ZM-19.6402 136.276H-21.6402L-21.6402 314.923H-19.6402H-17.6402L-17.6402 136.276H-19.6402ZM-19.6402 314.923V316.923H116.985V314.923V312.923H-19.6402V314.923ZM116.985 314.923L118.279 316.448L152.806 287.168L151.513 285.643L150.219 284.117L115.692 313.398L116.985 314.923ZM151.513 285.643V287.643H241.359V285.643V283.643H151.513V285.643ZM-30.4069 65.4838H-32.4069L-32.4069 101.436H-30.4069H-28.4069L-28.4069 65.4838H-30.4069ZM-30.4069 101.436L-31.8856 100.089L-46.7362 116.397L-45.2575 117.744L-43.7787 119.09L-28.9281 102.782L-30.4069 101.436ZM-45.2575 117.744H-47.2575L-47.2575 219.669H-45.2575H-43.2575L-43.2575 117.744H-45.2575ZM-45.2575 219.669L-46.6143 221.138L-31.7637 234.852L-30.4069 233.383L-29.05 231.913L-43.9006 218.2L-45.2575 219.669ZM-30.4069 233.383H-32.4069L-32.4069 291.943H-30.4069H-28.4069L-28.4069 233.383H-30.4069ZM-30.4069 291.943V293.943H-19.6402V291.943V289.943H-30.4069V291.943ZM277 319V317H218.711V319V321H277V319ZM218.711 319L220.089 317.55L204.867 303.095L203.49 304.545L202.112 305.995L217.334 320.45L218.711 319ZM203.49 304.545V302.545H129.608V304.545V306.545H203.49V304.545ZM129.608 304.545L130.908 306.065L143.903 294.946L142.602 293.426L141.302 291.906L128.308 303.026L129.608 304.545ZM142.602 293.426L144.053 292.049L124.005 270.923L122.554 272.3L121.103 273.676L141.152 294.803L142.602 293.426ZM122.554 272.3V270.3L32.3368 270.3V272.3V274.3L122.554 274.3V272.3ZM32.3368 272.3L30.9549 270.854L-3.944 304.211L-2.56207 305.657L-1.18015 307.103L33.7187 273.745L32.3368 272.3ZM-2.56207 305.657H-4.56207V314.923H-2.56207H-0.562072V305.657H-2.56207ZM-2.56207 305.657H-0.562072L-0.562072 223.375H-2.56207H-4.56207L-4.56207 305.657H-2.56207ZM-2.56207 223.375L-1.14905 224.791L29.6659 194.028L28.2529 192.613L26.8398 191.197L-3.97509 221.96L-2.56207 223.375ZM28.2529 192.613H30.2529L30.2529 114.779H28.2529H26.2529L26.2529 192.613H28.2529ZM28.2529 114.779L29.6195 113.318L-0.0816258 85.5205L-1.44828 86.9808L-2.81493 88.441L26.8862 116.239L28.2529 114.779ZM-1.44828 86.9808H0.551721L0.551721 22.4898H-1.44828H-3.44828L-3.44828 86.9808H-1.44828Z" fill="#638FE4"/>
</svg>
