<svg width="463" height="59" viewBox="0 0 463 59" fill="none" xmlns="http://www.w3.org/2000/svg">
<path d="M457.023 0C460.048 0 462.5 2.46243 462.5 5.5C462.5 8.53757 460.048 11 457.023 11C455.101 11 453.411 10.0046 452.434 8.5H386.761L338.219 41.5H0V36.5H336.692L385.234 3.5H451.922C452.719 1.45168 454.701 0 457.023 0Z" fill="#4176DE"/>
<path d="M426.154 17C429.179 17 431.631 19.4624 431.631 22.5C431.631 25.5376 429.179 28 426.154 28C424.232 28 422.542 27.0046 421.565 25.5H386.761L338.219 58.5H57.5V53.5H336.692L385.234 20.5H421.052C421.849 18.4517 423.832 17 426.154 17Z" fill="#F8A207"/>
</svg>
