<svg width="42" height="43" viewBox="0 0 42 43" fill="none" xmlns="http://www.w3.org/2000/svg">
<path d="M26.25 40.3589H15.75C6.2475 40.3589 2.1875 36.2989 2.1875 26.7964V16.2964C2.1875 6.79389 6.2475 2.73389 15.75 2.73389H26.25C35.7525 2.73389 39.8125 6.79389 39.8125 16.2964V26.7964C39.8125 36.2989 35.7525 40.3589 26.25 40.3589ZM15.75 5.35889C7.6825 5.35889 4.8125 8.22889 4.8125 16.2964V26.7964C4.8125 34.8639 7.6825 37.7339 15.75 37.7339H26.25C34.3175 37.7339 37.1875 34.8639 37.1875 26.7964V16.2964C37.1875 8.22889 34.3175 5.35889 26.25 5.35889H15.75Z" fill="#1D3564"/>
<path d="M37.5899 14.3013H4.40991C3.69241 14.3013 3.09741 13.7063 3.09741 12.9888C3.09741 12.2713 3.67491 11.6763 4.40991 11.6763H37.5899C38.3074 11.6763 38.9024 12.2713 38.9024 12.9888C38.9024 13.7063 38.3249 14.3013 37.5899 14.3013Z" fill="#1D3564"/>
<path d="M14.9099 14.0563C14.1924 14.0563 13.5974 13.4613 13.5974 12.7438V4.23877C13.5974 3.52127 14.1924 2.92627 14.9099 2.92627C15.6274 2.92627 16.2224 3.52127 16.2224 4.23877V12.7438C16.2224 13.4613 15.6274 14.0563 14.9099 14.0563Z" fill="#1D3564"/>
<path d="M27.0901 13.2688C26.3726 13.2688 25.7776 12.6738 25.7776 11.9563V4.23877C25.7776 3.52127 26.3726 2.92627 27.0901 2.92627C27.8076 2.92627 28.4026 3.52127 28.4026 4.23877V11.9563C28.4026 12.6913 27.8251 13.2688 27.0901 13.2688Z" fill="#1D3564"/>
<path d="M19.4075 32.2563C18.7775 32.2563 18.1825 32.0988 17.64 31.8013C16.45 31.1013 15.75 29.7013 15.75 27.9338V23.7338C15.75 21.9663 16.45 20.5488 17.6575 19.8488C18.865 19.1488 20.44 19.2538 21.9625 20.1463L25.6025 22.2463C27.125 23.1213 28.0175 24.4338 28.0175 25.8338C28.0175 27.2338 27.125 28.5463 25.585 29.4213L21.945 31.5213C21.105 32.0113 20.23 32.2563 19.4075 32.2563ZM19.425 22.0188C19.25 22.0188 19.0925 22.0538 18.97 22.1238C18.6025 22.3338 18.375 22.9288 18.375 23.7338V27.9338C18.375 28.7213 18.6025 29.3163 18.97 29.5438C19.3375 29.7538 19.9675 29.6488 20.65 29.2463L24.29 27.1463C24.9725 26.7438 25.3925 26.2538 25.3925 25.8338C25.3925 25.4138 24.99 24.9238 24.29 24.5213L20.65 22.4213C20.195 22.1588 19.7575 22.0188 19.425 22.0188Z" fill="#1D3564"/>
</svg>
