<svg width="58" height="59" viewBox="0 0 58 59" fill="none" xmlns="http://www.w3.org/2000/svg">
<path d="M28.2775 51.2195H28.1815C16.1713 51.2195 6.40002 41.4483 6.40002 29.4381V29.342C6.40002 17.3318 16.1713 7.56055 28.1815 7.56055H28.2775C40.2877 7.56055 50.059 17.3318 50.059 29.342V29.4381C50.059 41.4483 40.2877 51.2195 28.2775 51.2195ZM28.1815 9.03836C16.9856 9.03836 7.87784 18.1461 7.87784 29.342V29.4381C7.87784 40.634 16.9856 49.7417 28.1815 49.7417H28.2775C39.4734 49.7417 48.5812 40.634 48.5812 29.4381V29.342C48.5812 18.1461 39.4734 9.03836 28.2775 9.03836H28.1815Z" fill="#F8A207"/>
<path d="M14.2511 54.3103C14.47 53.9323 14.8196 53.6769 15.1986 53.5628C15.5734 53.4578 15.9937 53.4599 16.3587 53.6503C16.5314 53.7377 16.6755 53.8588 16.7978 53.9967C16.9209 54.1297 17.0195 54.2865 17.0887 54.4579C17.2279 54.7995 17.2559 55.1991 17.1363 55.5798C20.2823 56.9551 23.6842 57.7334 27.1148 57.8818C28.8308 57.9609 30.5531 57.872 32.2516 57.6305C33.9508 57.3884 35.6284 56.9901 37.2535 56.4414C40.5072 55.344 43.5518 53.637 46.1915 51.4379C48.834 49.2431 51.0605 46.5492 52.7317 43.5488C52.5688 43.4333 52.4345 43.2919 52.3289 43.1365C52.2248 42.9804 52.1471 42.8083 52.0947 42.6277C51.9933 42.268 52.015 41.8858 52.1898 41.5443C52.3695 41.1733 52.6758 40.9053 53.0548 40.7695C53.2436 40.7009 53.4464 40.6666 53.6526 40.668C53.8582 40.6694 54.0652 40.7079 54.2666 40.7926C54.468 40.8773 54.6442 40.9998 54.7869 41.1495C54.9267 41.2986 55.0351 41.475 55.105 41.6696C55.2421 42.0552 55.2379 42.5164 55.0379 42.9322C54.8421 43.3171 54.5246 43.5977 54.168 43.7377C53.9918 43.8084 53.7988 43.8434 53.6044 43.8392C53.4114 43.8364 53.2184 43.7958 53.0338 43.7181C51.3423 46.7563 49.0885 49.4831 46.4125 51.706C43.7406 53.9309 40.6582 55.6603 37.3633 56.7718C35.7172 57.3275 34.0187 57.7306 32.2992 57.9763C30.5783 58.2219 28.835 58.3108 27.0987 58.2303C23.6262 58.0806 20.1816 57.2925 16.9957 55.8997C16.7978 56.2454 16.4797 56.4883 16.1063 56.5982C15.9203 56.6535 15.7203 56.6745 15.5182 56.6605C15.3182 56.643 15.1182 56.58 14.9266 56.4827C14.5175 56.2706 14.2217 55.9298 14.1064 55.5232C13.9868 55.1228 14.0287 54.6896 14.2483 54.3117L14.2511 54.3103ZM53.052 43.3388C53.6485 43.6698 54.4023 43.4179 54.7288 42.7789C54.8855 42.4583 54.8869 42.1014 54.7785 41.7997C54.6687 41.4974 54.4428 41.2454 54.1302 41.111C53.8184 40.976 53.4764 40.9774 53.1827 41.083C52.887 41.1887 52.6464 41.4029 52.5024 41.694C52.2066 42.2708 52.4541 43.0084 53.0506 43.3388H53.052ZM14.5518 54.4838C14.384 54.7813 14.3546 55.1214 14.4476 55.4343C14.5434 55.7401 14.7686 56.0082 15.086 56.172C15.2448 56.2524 15.4112 56.2993 15.5762 56.3133C15.7412 56.3245 15.9077 56.2965 16.0608 56.244C16.3657 56.1356 16.6216 55.9123 16.7615 55.6008C16.9013 55.2894 16.9027 54.9506 16.8006 54.6574C16.7489 54.5104 16.6699 54.3781 16.5699 54.2592C16.4713 54.1381 16.3482 54.0352 16.2035 53.9617C15.9133 53.8119 15.586 53.8035 15.286 53.898C14.9902 53.9869 14.7196 54.1878 14.5532 54.4852L14.5518 54.4838Z" fill="#F8A207"/>
<mask id="mask0_3089_9552" style="mask-type:luminance" maskUnits="userSpaceOnUse" x="0" y="4" width="15" height="44">
<path d="M0 4.64258H14.5266V47.4646H0V4.64258Z" fill="white"/>
</mask>
<g mask="url(#mask0_3089_9552)">
<path d="M14.2511 5.55097C14.4685 5.93031 14.5161 6.36074 14.4245 6.74428C14.3329 7.12782 14.1189 7.48896 13.7707 7.70872C13.4427 7.90889 13.0763 7.99498 12.7085 7.94179C12.3421 7.8907 11.9813 7.71432 11.7106 7.42107C8.95064 9.46545 6.57033 12.02 4.72707 14.9197C2.88101 17.8158 1.57688 21.0563 0.902084 24.427C0.559444 26.1102 0.390221 27.8284 0.367845 29.5453C0.346867 31.2642 0.479028 32.9838 0.767126 34.6769C1.34192 38.0636 2.54676 41.3461 4.3201 44.2898C4.50051 44.2065 4.69071 44.1604 4.87811 44.1471C5.06831 44.1317 5.25991 44.1471 5.44032 44.194C5.80254 44.2856 6.11791 44.4984 6.32839 44.8204C6.56754 45.1563 6.63816 45.5622 6.56754 45.9584C6.52978 46.1564 6.46195 46.3482 6.36055 46.5246C6.25776 46.7017 6.12071 46.8626 5.94589 46.9942C5.77177 47.1279 5.57947 47.2182 5.37669 47.2679C5.1739 47.3183 4.96412 47.3267 4.76483 47.2889C4.36065 47.2168 3.97186 46.9774 3.70544 46.6002C3.46839 46.2404 3.38797 45.8219 3.44462 45.4412C3.47398 45.2508 3.53622 45.0688 3.63342 44.905C3.73341 44.7385 3.86348 44.5915 4.02361 44.4704C2.22859 41.491 1.00767 38.1665 0.425884 34.7384C0.13429 33.0237 0.00142969 31.2817 0.0224076 29.5439C0.0440849 27.8053 0.216104 26.0661 0.563639 24.3612C1.24612 20.9499 2.56774 17.6688 4.43687 14.7363C6.30391 11.801 8.71289 9.21559 11.5072 7.14601C11.3072 6.80167 11.2554 6.40553 11.347 6.02759C11.44 5.65385 11.6666 5.28711 12.0344 5.06104C12.4246 4.81328 12.8672 4.73 13.2735 4.82588C13.6805 4.92317 14.0343 5.17583 14.2532 5.55517L14.2511 5.55097ZM4.34527 44.6678C3.76278 45.0205 3.59845 45.8023 3.99144 46.4042C4.40611 46.99 5.18928 47.1307 5.73331 46.7178C6.27734 46.3055 6.4158 45.5412 6.04029 45.0135C5.68716 44.4704 4.93125 44.3136 4.34527 44.6678ZM13.9511 5.72454C13.7777 5.43338 13.4945 5.23042 13.1819 5.16393C12.8714 5.09674 12.5239 5.15413 12.2232 5.3473C11.919 5.53487 11.7358 5.84002 11.6764 6.15847C11.6162 6.47622 11.6834 6.80867 11.8827 7.08512C12.0826 7.36158 12.3756 7.53375 12.6812 7.59044C12.9861 7.64713 13.3029 7.58764 13.5805 7.41687C13.8553 7.2405 14.0287 6.96404 14.0951 6.65539C14.1609 6.34744 14.1259 6.01919 13.9497 5.72314L13.9511 5.72454Z" fill="#F8A207"/>
</g>
<mask id="mask1_3089_9552" style="mask-type:luminance" maskUnits="userSpaceOnUse" x="24" y="0" width="34" height="31">
<path d="M24.5513 0.259766H58V30.0855H24.5513V0.259766Z" fill="white"/>
</mask>
<g mask="url(#mask1_3089_9552)">
<path d="M56.4414 29.9308C56.0043 29.9308 55.6043 29.7544 55.3099 29.4836C55.0135 29.2127 54.8351 28.8446 54.8135 28.4338C54.7841 28.0502 54.9121 27.6891 55.1435 27.3958C55.3813 27.1026 55.6987 26.8821 56.0889 26.7946C55.7211 23.3771 54.6883 20.0365 53.0982 16.9927C51.5073 13.9474 49.3522 11.1997 46.7747 8.92994C44.1986 6.6588 41.2065 4.86008 37.9821 3.67237C34.7599 2.48466 31.316 1.91215 27.884 1.96254C27.8463 2.35938 27.6659 2.71772 27.4064 2.97808C27.2764 3.10826 27.1246 3.21394 26.9582 3.28883C26.7918 3.37072 26.6114 3.42531 26.4198 3.43861C26.2142 3.45401 26.0149 3.42531 25.8289 3.35812C25.7359 3.32523 25.6457 3.28183 25.5597 3.23214C25.473 3.18595 25.3926 3.13066 25.3163 3.06837C25.0129 2.81781 24.7877 2.44547 24.7324 2.01224C24.6765 1.579 24.8059 1.16187 25.0709 0.839921C25.1373 0.759434 25.2107 0.684545 25.2926 0.615956C25.3751 0.550867 25.4653 0.496975 25.5611 0.447983C25.752 0.352098 25.9674 0.291208 26.1981 0.27441C26.4128 0.259013 26.6198 0.28001 26.8114 0.3381C27.003 0.40389 27.1778 0.501175 27.3288 0.624355C27.6302 0.870716 27.8302 1.21926 27.8798 1.6147C31.3538 1.56361 34.8403 2.14451 38.1031 3.34622C41.3659 4.54723 44.3972 6.36835 47.0034 8.66888C49.6116 10.968 51.7947 13.7494 53.4044 16.8317C55.0149 19.914 56.061 23.2952 56.433 26.7554C56.8302 26.7554 57.214 26.908 57.4847 27.1775C57.7595 27.4455 57.9441 27.8276 57.9762 28.2574C58.0028 28.7186 57.8252 29.1448 57.549 29.4479C57.27 29.7516 56.877 29.9308 56.4414 29.9308ZM27.5442 1.79667C27.5358 1.45512 27.3869 1.14997 27.147 0.931606C27.0274 0.824523 26.8848 0.731438 26.7282 0.680346C26.5708 0.628554 26.3988 0.606858 26.2212 0.620156C25.866 0.646752 25.5555 0.810525 25.3485 1.05129C25.1415 1.30395 25.0373 1.6287 25.0765 1.96814C25.1149 2.30689 25.2877 2.59734 25.5247 2.79331C25.7646 2.99978 26.0701 3.11666 26.3946 3.09146C26.5575 3.07887 26.71 3.03337 26.8484 2.95989C26.9876 2.8864 27.1113 2.79751 27.2148 2.68063C27.4232 2.45107 27.5526 2.13752 27.5428 1.79667H27.5442ZM56.4316 29.5837C56.7728 29.5795 57.0784 29.4367 57.2966 29.1987C57.5112 28.9629 57.6518 28.6332 57.628 28.2763C57.5735 27.5596 56.977 27.0375 56.298 27.1096C55.6197 27.1831 55.1079 27.7682 55.1561 28.4142C55.1785 28.7389 55.3141 29.0294 55.5463 29.2421C55.775 29.4528 56.0889 29.5865 56.4302 29.5837H56.4316Z" fill="#F8A207"/>
</g>
<path d="M28.3126 54.1199C14.9874 54.1199 4.14526 43.2696 4.14526 29.9311C4.14526 16.5926 14.9874 5.74219 28.3126 5.74219C41.6378 5.74219 52.4799 16.5926 52.4799 29.9311C52.4799 43.2696 41.6392 54.1199 28.3126 54.1199ZM28.3126 6.09073C15.1776 6.09073 4.4928 16.7857 4.4928 29.9325C4.4928 43.0792 15.1776 53.7742 28.3126 53.7742C41.4476 53.7742 52.1331 43.0792 52.1331 29.9325C52.1331 16.7857 41.4476 6.08933 28.3126 6.08933V6.09073Z" fill="#F8A207"/>
<path d="M15.4712 18.9688L25.1778 31.402L15.4108 41.5112H17.6096L26.1615 32.6609L33.0705 41.5112H40.5518L30.2995 28.3785L39.3912 18.9688H37.1924L29.3174 27.1196L22.954 18.9688H15.4727H15.4712ZM18.7038 20.5201H22.1399L37.3163 39.9598H33.8802L18.7038 20.5201Z" fill="#F8A207"/>
</svg>
