<svg width="59" height="59" viewBox="0 0 59 59" fill="none" xmlns="http://www.w3.org/2000/svg">
<path d="M29.0566 7.30043C16.9131 7.30043 7.03442 17.1791 7.03442 29.3226C7.03442 41.4661 16.9131 51.3447 29.0566 51.3447C41.2001 51.3447 51.0787 41.4661 51.0787 29.3226C51.0787 17.1791 41.2001 7.30043 29.0566 7.30043ZM29.0566 49.8498C17.7383 49.8498 8.52938 40.6409 8.52938 29.3226C8.52938 18.0043 17.7383 8.79538 29.0566 8.79538C40.3749 8.79538 49.5838 18.0043 49.5838 29.3226C49.5838 40.6409 40.3749 49.8498 29.0566 49.8498Z" fill="#4176DE"/>
<path d="M14.9855 54.1267C15.2044 53.7487 15.554 53.4933 15.933 53.3792C16.3078 53.2742 16.7281 53.2763 17.0931 53.4667C17.2658 53.5542 17.4098 53.6753 17.5322 53.8131C17.6553 53.9461 17.7539 54.1029 17.8231 54.2744C17.9623 54.6159 17.9902 55.0155 17.8707 55.3963C21.0167 56.7716 24.4186 57.5498 27.8492 57.6982C29.5652 57.7773 31.2875 57.6884 32.986 57.447C34.6852 57.2048 36.3627 56.8066 37.9878 56.2579C41.2415 55.1604 44.2861 53.4534 46.9259 51.2543C49.5684 49.0595 51.7948 46.3656 53.4661 43.3652C53.3032 43.2497 53.1689 43.1083 53.0633 42.9529C52.9591 42.7969 52.8815 42.6247 52.8291 42.4441C52.7277 42.0844 52.7493 41.7022 52.9242 41.3607C53.1039 40.9897 53.4102 40.7217 53.7892 40.5859C53.978 40.5173 54.1807 40.483 54.387 40.4844C54.5926 40.4858 54.7996 40.5243 55.001 40.609C55.2024 40.6937 55.3786 40.8162 55.5212 40.9659C55.6611 41.115 55.7695 41.2914 55.8394 41.486C55.9765 41.8716 55.9723 42.3328 55.7723 42.7486C55.5765 43.1335 55.259 43.4142 54.9024 43.5541C54.7262 43.6248 54.5332 43.6598 54.3388 43.6556C54.1458 43.6528 53.9528 43.6122 53.7682 43.5345C52.0767 46.5728 49.8229 49.2995 47.1468 51.5224C44.4749 53.7473 41.3926 55.4768 38.0976 56.5882C36.4516 57.1439 34.753 57.547 33.0335 57.7927C31.3126 58.0384 29.5694 58.1273 27.8331 58.0468C24.3605 57.897 20.916 57.1089 17.7301 55.7161C17.5322 56.0619 17.214 56.3047 16.8406 56.4146C16.6546 56.4699 16.4546 56.4909 16.2526 56.4769C16.0526 56.4594 15.8526 56.3964 15.661 56.2991C15.2519 56.0871 14.9561 55.7462 14.8407 55.3396C14.7212 54.9393 14.7631 54.506 14.9827 54.1281L14.9855 54.1267ZM53.7864 43.1552C54.3828 43.4862 55.1366 43.2343 55.4632 42.5953C55.6198 42.2747 55.6212 41.9178 55.5128 41.6161C55.4031 41.3138 55.1772 41.0618 54.8646 40.9274C54.5528 40.7924 54.2108 40.7938 53.9171 40.8995C53.6213 41.0051 53.3808 41.2193 53.2367 41.5105C52.9409 42.0872 53.1885 42.8249 53.785 43.1552H53.7864ZM15.2862 54.3003C15.1183 54.5977 15.089 54.9379 15.182 55.2507C15.2778 55.5566 15.5029 55.8246 15.8204 55.9884C15.9791 56.0689 16.1456 56.1158 16.3106 56.1298C16.4756 56.141 16.642 56.113 16.7952 56.0605C17.1001 55.952 17.356 55.7287 17.4959 55.4173C17.6357 55.1058 17.6371 54.7671 17.535 54.4738C17.4833 54.3269 17.4042 54.1946 17.3043 54.0756C17.2057 53.9545 17.0826 53.8516 16.9378 53.7781C16.6476 53.6284 16.3204 53.62 16.0204 53.7144C15.7246 53.8033 15.454 54.0042 15.2876 54.3017L15.2862 54.3003Z" fill="#4176DE"/>
<mask id="mask0_3054_6421" style="mask-type:luminance" maskUnits="userSpaceOnUse" x="0" y="4" width="16" height="44">
<path d="M0.734375 4.45898H15.2609V47.2811H0.734375V4.45898Z" fill="white"/>
</mask>
<g mask="url(#mask0_3054_6421)">
<path d="M14.9854 5.36835C15.2029 5.74769 15.2505 6.17812 15.1589 6.56166C15.0673 6.9452 14.8533 7.30635 14.5051 7.52611C14.1771 7.72628 13.8107 7.81237 13.4429 7.75918C13.0765 7.70808 12.7156 7.53171 12.445 7.23846C9.68501 9.28284 7.30471 11.8374 5.46144 14.7371C3.61538 17.6332 2.31125 20.8737 1.63646 24.2444C1.29382 25.9276 1.1246 27.6459 1.10222 29.3627C1.08124 31.0816 1.2134 32.8013 1.5015 34.4943C2.0763 37.8811 3.28113 41.1636 5.05447 44.1073C5.23488 44.024 5.42508 43.9778 5.61249 43.9645C5.80269 43.9491 5.99428 43.9645 6.1747 44.0114C6.53691 44.1031 6.85228 44.3159 7.06276 44.6378C7.30191 44.9738 7.37254 45.3797 7.30191 45.7758C7.26415 45.9739 7.19632 46.1657 7.09493 46.342C6.99214 46.5191 6.85508 46.6801 6.68026 46.8117C6.50615 46.9454 6.31385 47.0356 6.11106 47.0853C5.90828 47.1357 5.6985 47.1441 5.4992 47.1063C5.09503 47.0342 4.70624 46.7949 4.43982 46.4176C4.20277 46.0579 4.12235 45.6394 4.17899 45.2586C4.20836 45.0682 4.27059 44.8863 4.36779 44.7225C4.46779 44.5559 4.59785 44.409 4.75798 44.2879C2.96297 41.3084 1.74205 37.984 1.16026 34.5559C0.868665 32.8412 0.735805 31.0991 0.756783 29.3613C0.77846 27.6228 0.950479 25.8835 1.29801 24.1786C1.9805 20.7673 3.30211 17.4863 5.17125 14.5537C7.03829 11.6184 9.44726 9.03298 12.2415 6.9634C12.0415 6.61906 11.9898 6.22292 12.0814 5.84498C12.1744 5.47123 12.401 5.10449 12.7688 4.87843C13.159 4.63067 13.6016 4.54738 14.0079 4.64326C14.4148 4.74055 14.7687 4.99321 14.9875 5.37255L14.9854 5.36835ZM5.07964 44.4852C4.49716 44.838 4.33283 45.6198 4.72582 46.2217C5.14048 46.8075 5.92366 46.9482 6.46769 46.5352C7.01172 46.123 7.15017 45.3587 6.77467 44.831C6.42154 44.2879 5.66563 44.1311 5.07964 44.4852ZM14.6855 5.54192C14.512 5.25077 14.2288 5.0478 13.9163 4.98131C13.6058 4.91412 13.2583 4.97151 12.9576 5.16468C12.6534 5.35225 12.4702 5.65741 12.4107 5.97586C12.3506 6.29361 12.4177 6.62605 12.617 6.90251C12.817 7.17897 13.11 7.35114 13.4156 7.40783C13.7205 7.46452 14.0372 7.40503 14.3149 7.23426C14.5897 7.05789 14.7631 6.78143 14.8295 6.47278C14.8952 6.16483 14.8603 5.83658 14.6841 5.54052L14.6855 5.54192Z" fill="#4176DE"/>
</g>
<mask id="mask1_3054_6421" style="mask-type:luminance" maskUnits="userSpaceOnUse" x="25" y="0" width="34" height="30">
<path d="M25.2856 0.0756836H58.7343V29.9015H25.2856V0.0756836Z" fill="white"/>
</mask>
<g mask="url(#mask1_3054_6421)">
<path d="M57.1756 29.7478C56.7386 29.7478 56.3386 29.5714 56.0442 29.3005C55.7477 29.0297 55.5694 28.6615 55.5477 28.2507C55.5184 27.8672 55.6463 27.506 55.8778 27.2128C56.1155 26.9195 56.433 26.699 56.8232 26.6116C56.4554 23.194 55.4226 19.8534 53.8324 16.8096C52.2416 13.7644 50.0865 11.0166 47.509 8.74685C44.9329 6.47571 41.9407 4.67699 38.7164 3.48927C35.4942 2.30156 32.0503 1.72905 28.6183 1.77944C28.5805 2.17628 28.4001 2.53462 28.1407 2.79498C28.0106 2.92516 27.8589 3.03085 27.6925 3.10573C27.526 3.18762 27.3456 3.24221 27.154 3.25551C26.9484 3.27091 26.7492 3.24221 26.5631 3.17502C26.4701 3.14213 26.3799 3.09873 26.2939 3.04904C26.2072 3.00285 26.1268 2.94756 26.0506 2.88527C25.7471 2.63471 25.5219 2.26237 25.4667 1.82913C25.4108 1.3959 25.5401 0.978766 25.8051 0.656817C25.8716 0.576329 25.945 0.501441 26.0268 0.432852C26.1093 0.367762 26.1995 0.31387 26.2953 0.264878C26.4862 0.168993 26.7016 0.108102 26.9324 0.091305C27.147 0.0759073 27.354 0.0969042 27.5456 0.154995C27.7372 0.220785 27.912 0.31807 28.0631 0.44125C28.3645 0.687612 28.5644 1.03616 28.6141 1.4316C32.088 1.3805 35.5746 1.96141 38.8374 3.16312C42.1001 4.36414 45.1315 6.18525 47.7376 8.48579C50.3459 10.7849 52.529 13.5663 54.1387 16.6486C55.7491 19.7309 56.7952 23.1121 57.1672 26.5724C57.5644 26.5724 57.9483 26.7249 58.2189 26.9944C58.4937 27.2625 58.6783 27.6446 58.7105 28.0743C58.7371 28.5356 58.5595 28.9618 58.2832 29.2648C58.0042 29.5686 57.6113 29.7478 57.1756 29.7478ZM28.2784 1.61357C28.2701 1.27202 28.1211 0.966868 27.8813 0.748502C27.7617 0.641419 27.619 0.548333 27.4624 0.497242C27.3051 0.44545 27.1331 0.423753 26.9554 0.437051C26.6002 0.463647 26.2897 0.627421 26.0828 0.868183C25.8758 1.12084 25.7716 1.44559 25.8107 1.78504C25.8492 2.12379 26.0219 2.41424 26.259 2.61021C26.4988 2.81668 26.8044 2.93356 27.1289 2.90836C27.2918 2.89577 27.4442 2.85027 27.5827 2.77679C27.7218 2.7033 27.8456 2.61441 27.9491 2.49753C28.1575 2.26796 28.2868 1.95441 28.277 1.61357H28.2784ZM57.1658 29.4006C57.5071 29.3964 57.8126 29.2536 58.0308 29.0157C58.2455 28.7798 58.386 28.4502 58.3623 28.0932C58.3077 27.3765 57.7112 26.8544 57.0323 26.9265C56.354 27 55.8421 27.5851 55.8904 28.2311C55.9127 28.5559 56.0484 28.8463 56.2806 29.0591C56.5092 29.2697 56.8232 29.4034 57.1644 29.4006H57.1658Z" fill="#4176DE"/>
</g>
<path d="M29.047 53.9364C15.7218 53.9364 4.87964 43.086 4.87964 29.7475C4.87964 16.409 15.7218 5.55859 29.047 5.55859C42.3722 5.55859 53.2143 16.409 53.2143 29.7475C53.2143 43.086 42.3736 53.9364 29.047 53.9364ZM29.047 5.90714C15.912 5.90714 5.22717 16.6022 5.22717 29.7489C5.22717 42.8957 15.912 53.5907 29.047 53.5907C42.182 53.5907 52.8675 42.8957 52.8675 29.7489C52.8675 16.6022 42.182 5.90574 29.047 5.90574V5.90714Z" fill="#4176DE"/>
<path d="M41.278 34.2538C41.1167 35.8107 40.7696 37.5317 39.4921 38.4362C38.5027 39.1376 37.2022 39.1635 35.9881 39.1621C33.4216 39.1606 30.8537 39.1577 28.2872 39.1563C25.8187 39.1534 23.3501 39.152 20.8816 39.1491C19.8504 39.1476 18.848 39.2283 17.8903 38.7818C17.0679 38.3987 16.4241 37.67 16.0367 36.8592C15.4995 35.7315 15.3872 34.454 15.3224 33.2067C15.2028 30.9355 15.2158 28.6585 15.3584 26.3887C15.4635 24.7325 15.7299 22.902 17.0103 21.8463C18.1452 20.9116 19.7467 20.8655 21.2186 20.8641C25.8907 20.8598 30.5642 20.8554 35.2377 20.8526C35.8368 20.8511 36.4619 20.8626 37.0725 20.9289C38.2737 21.0585 39.4186 21.4027 40.1906 22.2928C40.9698 23.19 41.17 24.4387 41.2881 25.6211C41.5761 28.49 41.5732 31.3863 41.278 34.2538ZM25.5854 25.9855V34.0291L32.5503 30.008L25.5854 25.9855Z" fill="#4176DE"/>
</svg>
