<svg width="59" height="59" viewBox="0 0 59 59" fill="none" xmlns="http://www.w3.org/2000/svg">
<path d="M29.0566 7.80043C16.9131 7.80043 7.0344 17.6791 7.0344 29.8226C7.0344 41.9661 16.9131 51.8447 29.0566 51.8447C41.2001 51.8447 51.0787 41.9661 51.0787 29.8226C51.0787 17.6791 41.2001 7.80043 29.0566 7.80043ZM29.0566 50.3498C17.7383 50.3498 8.52936 41.1409 8.52936 29.8226C8.52936 18.5043 17.7383 9.29538 29.0566 9.29538C40.3749 9.29538 49.5837 18.5043 49.5837 29.8226C49.5837 41.1409 40.3749 50.3498 29.0566 50.3498Z" fill="#ECF1FC"/>
<path d="M14.9855 54.6267C15.2043 54.2487 15.554 53.9933 15.933 53.8792C16.3078 53.7742 16.728 53.7763 17.093 53.9667C17.2658 54.0542 17.4098 54.1753 17.5322 54.3131C17.6553 54.4461 17.7539 54.6029 17.8231 54.7744C17.9622 55.1159 17.9902 55.5155 17.8706 55.8963C21.0166 57.2716 24.4186 58.0498 27.8492 58.1982C29.5652 58.2773 31.2874 58.1884 32.986 57.947C34.6852 57.7048 36.3627 57.3066 37.9878 56.7579C41.2415 55.6604 44.2861 53.9534 46.9258 51.7543C49.5684 49.5595 51.7948 46.8656 53.4661 43.8652C53.3031 43.7497 53.1689 43.6083 53.0633 43.4529C52.9591 43.2969 52.8815 43.1247 52.829 42.9441C52.7276 42.5844 52.7493 42.2022 52.9241 41.8607C53.1038 41.4897 53.4101 41.2217 53.7891 41.0859C53.9779 41.0173 54.1807 40.983 54.387 40.9844C54.5926 40.9858 54.7996 41.0243 55.0009 41.109C55.2023 41.1937 55.3786 41.3162 55.5212 41.4659C55.6611 41.615 55.7694 41.7914 55.8394 41.986C55.9764 42.3716 55.9722 42.8328 55.7722 43.2486C55.5764 43.6335 55.259 43.9142 54.9024 44.0541C54.7261 44.1248 54.5331 44.1598 54.3387 44.1556C54.1457 44.1528 53.9528 44.1122 53.7681 44.0345C52.0766 47.0728 49.8229 49.7995 47.1468 52.0224C44.4749 54.2473 41.3925 55.9768 38.0976 57.0882C36.4515 57.6439 34.753 58.047 33.0335 58.2927C31.3126 58.5384 29.5693 58.6273 27.8331 58.5468C24.3605 58.397 20.9159 57.6089 17.7301 56.2161C17.5322 56.5619 17.214 56.8047 16.8406 56.9146C16.6546 56.9699 16.4546 56.9909 16.2525 56.9769C16.0525 56.9594 15.8525 56.8964 15.6609 56.7991C15.2519 56.5871 14.9561 56.2462 14.8407 55.8396C14.7211 55.4393 14.7631 55.006 14.9827 54.6281L14.9855 54.6267ZM53.7863 43.6552C54.3828 43.9862 55.1366 43.7343 55.4632 43.0953C55.6198 42.7747 55.6212 42.4178 55.5128 42.1161C55.403 41.8138 55.1772 41.5618 54.8646 41.4274C54.5527 41.2924 54.2108 41.2938 53.9171 41.3995C53.6213 41.5051 53.3808 41.7193 53.2367 42.0105C52.9409 42.5872 53.1885 43.3249 53.7849 43.6552H53.7863ZM15.2861 54.8003C15.1183 55.0977 15.0889 55.4379 15.182 55.7507C15.2778 56.0566 15.5029 56.3246 15.8204 56.4884C15.9791 56.5689 16.1455 56.6158 16.3106 56.6298C16.4756 56.641 16.642 56.613 16.7952 56.5605C17.1 56.452 17.356 56.2287 17.4958 55.9173C17.6357 55.6058 17.6371 55.2671 17.535 54.9738C17.4832 54.8269 17.4042 54.6946 17.3042 54.5756C17.2056 54.4545 17.0826 54.3516 16.9378 54.2781C16.6476 54.1284 16.3204 54.12 16.0204 54.2144C15.7246 54.3033 15.454 54.5042 15.2875 54.8017L15.2861 54.8003Z" fill="#ECF1FC"/>
<mask id="mask0_3054_6571" style="mask-type:luminance" maskUnits="userSpaceOnUse" x="0" y="4" width="16" height="44">
<path d="M0.734344 4.95898H15.2609V47.7811H0.734344V4.95898Z" fill="white"/>
</mask>
<g mask="url(#mask0_3054_6571)">
<path d="M14.9854 5.86835C15.2029 6.24769 15.2504 6.67812 15.1588 7.06166C15.0672 7.4452 14.8533 7.80635 14.505 8.02611C14.1771 8.22628 13.8106 8.31237 13.4428 8.25918C13.0764 8.20808 12.7156 8.03171 12.445 7.73846C9.68498 9.78284 7.30468 12.3374 5.46141 15.2371C3.61535 18.1332 2.31122 21.3737 1.63643 24.7444C1.29379 26.4276 1.12457 28.1459 1.10219 29.8627C1.08121 31.5816 1.21337 33.3013 1.50147 34.9943C2.07627 38.3811 3.2811 41.6636 5.05444 44.6073C5.23485 44.524 5.42505 44.4778 5.61245 44.4645C5.80266 44.4491 5.99425 44.4645 6.17466 44.5114C6.53688 44.6031 6.85225 44.8159 7.06273 45.1378C7.30188 45.4738 7.37251 45.8797 7.30188 46.2758C7.26412 46.4739 7.19629 46.6657 7.0949 46.842C6.99211 47.0191 6.85505 47.1801 6.68023 47.3117C6.50612 47.4454 6.31382 47.5356 6.11103 47.5853C5.90824 47.6357 5.69846 47.6441 5.49917 47.6063C5.095 47.5342 4.70621 47.2949 4.43979 46.9176C4.20273 46.5579 4.12232 46.1394 4.17896 45.7586C4.20833 45.5682 4.27056 45.3863 4.36776 45.2225C4.46776 45.0559 4.59782 44.909 4.75795 44.7879C2.96294 41.8084 1.74202 38.484 1.16023 35.0559C0.868634 33.3412 0.735774 31.5991 0.756752 29.8613C0.778429 28.1228 0.950449 26.3835 1.29798 24.6786C1.98047 21.2673 3.30208 17.9863 5.17122 15.0537C7.03826 12.1184 9.44723 9.53298 12.2415 7.4634C12.0415 7.11906 11.9898 6.72292 12.0814 6.34498C12.1744 5.97123 12.4009 5.60449 12.7687 5.37843C13.1589 5.13067 13.6016 5.04738 14.0078 5.14326C14.4148 5.24055 14.7686 5.49321 14.9875 5.87255L14.9854 5.86835ZM5.07961 44.9852C4.49713 45.338 4.3328 46.1198 4.72579 46.7217C5.14045 47.3075 5.92363 47.4482 6.46766 47.0352C7.01169 46.623 7.15014 45.8587 6.77464 45.331C6.42151 44.7879 5.6656 44.6311 5.07961 44.9852ZM14.6854 6.04192C14.512 5.75077 14.2288 5.5478 13.9162 5.48131C13.6058 5.41412 13.2582 5.47151 12.9575 5.66468C12.6534 5.85225 12.4702 6.15741 12.4107 6.47586C12.3506 6.79361 12.4177 7.12605 12.617 7.40251C12.817 7.67897 13.11 7.85114 13.4156 7.90783C13.7204 7.96452 14.0372 7.90503 14.3148 7.73426C14.5896 7.55789 14.7631 7.28143 14.8295 6.97278C14.8952 6.66483 14.8602 6.33658 14.684 6.04052L14.6854 6.04192Z" fill="#ECF1FC"/>
</g>
<mask id="mask1_3054_6571" style="mask-type:luminance" maskUnits="userSpaceOnUse" x="25" y="0" width="34" height="31">
<path d="M25.2857 0.575684H58.7344V30.4015H25.2857V0.575684Z" fill="white"/>
</mask>
<g mask="url(#mask1_3054_6571)">
<path d="M57.1757 30.2478C56.7387 30.2478 56.3387 30.0714 56.0443 29.8005C55.7478 29.5297 55.5695 29.1615 55.5478 28.7507C55.5184 28.3672 55.6464 28.006 55.8779 27.7128C56.1156 27.4195 56.4331 27.199 56.8233 27.1116C56.4555 23.694 55.4226 20.3534 53.8325 17.3096C52.2417 14.2644 50.0865 11.5166 47.5091 9.24685C44.933 6.97571 41.9408 5.17699 38.7165 3.98927C35.4943 2.80156 32.0504 2.22905 28.6184 2.27944C28.5806 2.67628 28.4002 3.03462 28.1408 3.29498C28.0107 3.42516 27.859 3.53085 27.6926 3.60573C27.5261 3.68762 27.3457 3.74221 27.1541 3.75551C26.9485 3.77091 26.7492 3.74221 26.5632 3.67502C26.4702 3.64213 26.38 3.59873 26.294 3.54904C26.2073 3.50285 26.1269 3.44756 26.0507 3.38527C25.7472 3.13471 25.522 2.76237 25.4668 2.32913C25.4108 1.8959 25.5402 1.47877 25.8052 1.15682C25.8717 1.07633 25.9451 1.00144 26.0269 0.932852C26.1094 0.867762 26.1996 0.81387 26.2954 0.764878C26.4863 0.668993 26.7017 0.608102 26.9325 0.591305C27.1471 0.575907 27.3541 0.596904 27.5457 0.654995C27.7373 0.720785 27.9121 0.81807 28.0632 0.94125C28.3645 1.18761 28.5645 1.53616 28.6142 1.9316C32.0881 1.8805 35.5747 2.46141 38.8375 3.66312C42.1002 4.86414 45.1315 6.68525 47.7377 8.98579C50.346 11.2849 52.5291 14.0663 54.1388 17.1486C55.7492 20.2309 56.7953 23.6121 57.1673 27.0724C57.5645 27.0724 57.9484 27.2249 58.219 27.4944C58.4938 27.7625 58.6784 28.1446 58.7106 28.5743C58.7372 29.0356 58.5596 29.4618 58.2833 29.7648C58.0043 30.0686 57.6113 30.2478 57.1757 30.2478ZM28.2785 2.11357C28.2701 1.77202 28.1212 1.46687 27.8814 1.2485C27.7618 1.14142 27.6191 1.04833 27.4625 0.997242C27.3052 0.94545 27.1331 0.923753 26.9555 0.937051C26.6003 0.963647 26.2898 1.12742 26.0828 1.36818C25.8759 1.62084 25.7717 1.94559 25.8108 2.28504C25.8493 2.62379 26.022 2.91424 26.2591 3.11021C26.4989 3.31668 26.8045 3.43356 27.1289 3.40836C27.2919 3.39577 27.4443 3.35027 27.5828 3.27679C27.7219 3.2033 27.8457 3.11441 27.9492 2.99753C28.1576 2.76796 28.2869 2.45441 28.2771 2.11357H28.2785ZM57.1659 29.9006C57.5072 29.8964 57.8127 29.7536 58.0309 29.5157C58.2456 29.2798 58.3861 28.9502 58.3624 28.5932C58.3078 27.8765 57.7113 27.3544 57.0324 27.4265C56.3541 27.5 55.8422 28.0851 55.8905 28.7311C55.9128 29.0559 56.0485 29.3463 56.2806 29.5591C56.5093 29.7697 56.8233 29.9034 57.1645 29.9006H57.1659Z" fill="#ECF1FC"/>
</g>
<path d="M29.047 54.4364C15.7218 54.4364 4.87967 43.586 4.87967 30.2475C4.87967 16.909 15.7218 6.05859 29.047 6.05859C42.3722 6.05859 53.2143 16.909 53.2143 30.2475C53.2143 43.586 42.3736 54.4364 29.047 54.4364ZM29.047 6.40714C15.912 6.40714 5.2272 17.1022 5.2272 30.2489C5.2272 43.3957 15.912 54.0907 29.047 54.0907C42.182 54.0907 52.8675 43.3957 52.8675 30.2489C52.8675 17.1022 42.182 6.40574 29.047 6.40574V6.40714Z" fill="#ECF1FC"/>
<path d="M41.2779 34.7538C41.1166 36.3107 40.7696 38.0317 39.4921 38.9362C38.5027 39.6376 37.2021 39.6635 35.988 39.6621C33.4216 39.6606 30.8536 39.6577 28.2872 39.6563C25.8186 39.6534 23.3501 39.652 20.8816 39.6491C19.8504 39.6476 18.848 39.7283 17.8902 39.2818C17.0679 38.8987 16.4241 38.17 16.0367 37.3592C15.4995 36.2315 15.3871 34.954 15.3223 33.7067C15.2028 31.4355 15.2157 29.1585 15.3583 26.8887C15.4635 25.2325 15.7299 23.402 17.0103 22.3463C18.1452 21.4116 19.7467 21.3655 21.2186 21.3641C25.8906 21.3598 30.5642 21.3554 35.2377 21.3526C35.8368 21.3511 36.4619 21.3626 37.0725 21.4289C38.2737 21.5585 39.4186 21.9027 40.1906 22.7928C40.9697 23.69 41.1699 24.9387 41.288 26.1211C41.5761 28.99 41.5732 31.8863 41.2779 34.7538ZM25.5853 26.4855V34.5291L32.5502 30.508L25.5853 26.4855Z" fill="#ECF1FC"/>
</svg>
