<svg width="58" height="59" viewBox="0 0 58 59" fill="none" xmlns="http://www.w3.org/2000/svg">
<path d="M28.3222 7.94398C16.1787 7.94398 6.30005 17.8226 6.30005 29.9661C6.30005 42.1096 16.1787 51.9883 28.3222 51.9883C40.4657 51.9883 50.3443 42.1096 50.3443 29.9661C50.3443 17.8226 40.4657 7.94398 28.3222 7.94398ZM28.3222 50.4933C17.0039 50.4933 7.795 41.2844 7.795 29.9661C7.795 18.6478 17.0039 9.43893 28.3222 9.43893C39.6405 9.43893 48.8494 18.6478 48.8494 29.9661C48.8494 41.2844 39.6405 50.4933 28.3222 50.4933Z" fill="#F8A207"/>
<path d="M14.2511 54.7712C14.47 54.3933 14.8196 54.1378 15.1986 54.0237C15.5734 53.9187 15.9937 53.9208 16.3587 54.1112C16.5314 54.1987 16.6755 54.3198 16.7978 54.4577C16.9209 54.5906 17.0195 54.7474 17.0887 54.9189C17.2279 55.2604 17.2559 55.6601 17.1363 56.0408C20.2823 57.4161 23.6842 58.1944 27.1148 58.3428C28.8308 58.4218 30.5531 58.333 32.2516 58.0915C33.9508 57.8493 35.6284 57.4511 37.2535 56.9024C40.5072 55.805 43.5518 54.0979 46.1915 51.8989C48.834 49.704 51.0605 47.0101 52.7317 44.0097C52.5688 43.8942 52.4345 43.7528 52.3289 43.5975C52.2248 43.4414 52.1471 43.2692 52.0947 43.0886C51.9933 42.7289 52.015 42.3468 52.1898 42.0052C52.3695 41.6343 52.6758 41.3662 53.0548 41.2304C53.2436 41.1618 53.4464 41.1275 53.6526 41.1289C53.8582 41.1303 54.0652 41.1688 54.2666 41.2535C54.468 41.3382 54.6442 41.4607 54.7869 41.6105C54.9267 41.7595 55.0351 41.9359 55.105 42.1305C55.2421 42.5161 55.2379 42.9774 55.0379 43.3931C54.8421 43.778 54.5246 44.0587 54.168 44.1987C53.9918 44.2694 53.7988 44.3044 53.6044 44.3002C53.4114 44.2974 53.2184 44.2568 53.0338 44.1791C51.3423 47.2173 49.0885 49.9441 46.4125 52.1669C43.7406 54.3919 40.6582 56.1213 37.3633 57.2327C35.7172 57.7884 34.0187 58.1916 32.2992 58.4372C30.5783 58.6829 28.835 58.7718 27.0987 58.6913C23.6262 58.5415 20.1816 57.7534 16.9957 56.3607C16.7978 56.7064 16.4797 56.9493 16.1063 57.0592C15.9203 57.1144 15.7203 57.1354 15.5182 57.1214C15.3182 57.104 15.1182 57.041 14.9266 56.9437C14.5175 56.7316 14.2217 56.3908 14.1064 55.9841C13.9868 55.5838 14.0287 55.1506 14.2483 54.7726L14.2511 54.7712ZM53.052 43.7997C53.6485 44.1308 54.4023 43.8788 54.7288 43.2398C54.8855 42.9193 54.8869 42.5623 54.7785 42.2607C54.6687 41.9583 54.4428 41.7064 54.1302 41.572C53.8184 41.4369 53.4764 41.4383 53.1827 41.544C52.887 41.6497 52.6464 41.8638 52.5024 42.155C52.2066 42.7317 52.4541 43.4694 53.0506 43.7997H53.052ZM14.5518 54.9448C14.384 55.2422 14.3546 55.5824 14.4476 55.8952C14.5434 56.2011 14.7686 56.4691 15.086 56.6329C15.2448 56.7134 15.4112 56.7603 15.5762 56.7743C15.7412 56.7855 15.9077 56.7575 16.0608 56.705C16.3657 56.5965 16.6216 56.3733 16.7615 56.0618C16.9013 55.7504 16.9027 55.4116 16.8006 55.1184C16.7489 54.9714 16.6699 54.8391 16.5699 54.7201C16.4713 54.599 16.3482 54.4962 16.2035 54.4227C15.9133 54.2729 15.586 54.2645 15.286 54.359C14.9902 54.4479 14.7196 54.6487 14.5532 54.9462L14.5518 54.9448Z" fill="#F8A207"/>
<mask id="mask0_3089_9481" style="mask-type:luminance" maskUnits="userSpaceOnUse" x="0" y="5" width="15" height="43">
<path d="M0 5.10352H14.5266V47.9256H0V5.10352Z" fill="white"/>
</mask>
<g mask="url(#mask0_3089_9481)">
<path d="M14.2511 6.01191C14.4685 6.39125 14.5161 6.82168 14.4245 7.20522C14.3329 7.58876 14.1189 7.9499 13.7707 8.16967C13.4427 8.36984 13.0763 8.45592 12.7085 8.40273C12.3421 8.35164 11.9813 8.17527 11.7106 7.88201C8.95064 9.92639 6.57033 12.481 4.72707 15.3806C2.88101 18.2768 1.57688 21.5173 0.902084 24.888C0.559444 26.5712 0.390221 28.2894 0.367845 30.0063C0.346867 31.7252 0.479028 33.4448 0.767126 35.1379C1.34192 38.5246 2.54676 41.8071 4.3201 44.7509C4.50051 44.6676 4.69071 44.6214 4.87811 44.6081C5.06831 44.5927 5.25991 44.6081 5.44032 44.655C5.80254 44.7467 6.11791 44.9594 6.32839 45.2814C6.56754 45.6173 6.63816 46.0233 6.56754 46.4194C6.52978 46.6175 6.46195 46.8092 6.36055 46.9856C6.25776 47.1627 6.12071 47.3237 5.94589 47.4552C5.77177 47.5889 5.57947 47.6792 5.37669 47.7289C5.1739 47.7793 4.96412 47.7877 4.76483 47.7499C4.36065 47.6778 3.97186 47.4384 3.70544 47.0612C3.46839 46.7014 3.38797 46.2829 3.44462 45.9022C3.47398 45.7118 3.53622 45.5298 3.63342 45.3661C3.73341 45.1995 3.86348 45.0525 4.02361 44.9314C2.22859 41.952 1.00767 38.6275 0.425884 35.1994C0.13429 33.4847 0.00142969 31.7427 0.0224076 30.0049C0.0440849 28.2663 0.216104 26.5271 0.563639 24.8222C1.24612 21.4109 2.56774 18.1298 4.43687 15.1973C6.30391 12.2619 8.71289 9.67653 11.5072 7.60696C11.3072 7.26261 11.2554 6.86647 11.347 6.48853C11.44 6.11479 11.6666 5.74805 12.0344 5.52198C12.4246 5.27422 12.8672 5.19093 13.2735 5.28682C13.6805 5.3841 14.0343 5.63676 14.2532 6.0161L14.2511 6.01191ZM4.34527 45.1288C3.76278 45.4815 3.59845 46.2633 3.99144 46.8652C4.40611 47.451 5.18928 47.5917 5.73331 47.1788C6.27734 46.7665 6.4158 46.0023 6.04029 45.4745C5.68716 44.9314 4.93125 44.7746 4.34527 45.1288ZM13.9511 6.18548C13.7777 5.89432 13.4945 5.69136 13.1819 5.62487C12.8714 5.55768 12.5239 5.61507 12.2232 5.80824C11.919 5.99581 11.7358 6.30096 11.6764 6.61941C11.6162 6.93716 11.6834 7.26961 11.8827 7.54607C12.0826 7.82252 12.3756 7.9947 12.6812 8.05139C12.9861 8.10808 13.3029 8.04859 13.5805 7.87781C13.8553 7.70144 14.0287 7.42498 14.0951 7.11633C14.1609 6.80838 14.1259 6.48013 13.9497 6.18408L13.9511 6.18548Z" fill="#F8A207"/>
</g>
<mask id="mask1_3089_9481" style="mask-type:luminance" maskUnits="userSpaceOnUse" x="24" y="0" width="34" height="31">
<path d="M24.5513 0.720703H58V30.5465H24.5513V0.720703Z" fill="white"/>
</mask>
<g mask="url(#mask1_3089_9481)">
<path d="M56.4412 30.3918C56.0042 30.3918 55.6042 30.2154 55.3098 29.9446C55.0133 29.6737 54.835 29.3056 54.8133 28.8947C54.784 28.5112 54.9119 28.1501 55.1434 27.8568C55.3811 27.5636 55.6986 27.3431 56.0888 27.2556C55.721 23.838 54.6882 20.4975 53.098 17.4536C51.5072 14.4084 49.3521 11.6606 46.7746 9.39089C44.1985 7.11975 41.2063 5.32103 37.982 4.13332C34.7598 2.9456 31.3159 2.37309 27.8839 2.42348C27.8462 2.82032 27.6657 3.17867 27.4063 3.43903C27.2763 3.56921 27.1245 3.67489 26.9581 3.74978C26.7917 3.83166 26.6113 3.88626 26.4197 3.89955C26.2141 3.91495 26.0148 3.88626 25.8288 3.81907C25.7358 3.78617 25.6456 3.74278 25.5596 3.69309C25.4728 3.64689 25.3924 3.5916 25.3162 3.52931C25.0127 3.27875 24.7876 2.90641 24.7323 2.47318C24.6764 2.03994 24.8057 1.62281 25.0708 1.30086C25.1372 1.22037 25.2106 1.14548 25.2924 1.07689C25.3749 1.0118 25.4652 0.957913 25.561 0.908921C25.7519 0.813036 25.9672 0.752145 26.198 0.735348C26.4127 0.71995 26.6196 0.740947 26.8112 0.799038C27.0028 0.864828 27.1777 0.962113 27.3287 1.08529C27.6301 1.33165 27.8301 1.6802 27.8797 2.07564C31.3537 2.02455 34.8402 2.60546 38.103 3.80717C41.3658 5.00818 44.3971 6.8293 47.0032 9.12984C49.6115 11.429 51.7946 14.2103 53.4043 17.2927C55.0147 20.375 56.0608 23.7562 56.4328 27.2164C56.83 27.2164 57.2139 27.369 57.4845 27.6384C57.7594 27.9065 57.944 28.2886 57.9761 28.7184C58.0027 29.1796 57.8251 29.6058 57.5489 29.9089C57.2699 30.2126 56.8769 30.3918 56.4412 30.3918ZM27.5441 2.25761C27.5357 1.91606 27.3867 1.61091 27.1469 1.39255C27.0273 1.28546 26.8847 1.19238 26.728 1.14128C26.5707 1.08949 26.3987 1.0678 26.2211 1.08109C25.8658 1.10769 25.5554 1.27146 25.3484 1.51223C25.1414 1.76489 25.0372 2.08964 25.0764 2.42908C25.1148 2.76783 25.2875 3.05828 25.5246 3.25425C25.7644 3.46072 26.07 3.5776 26.3945 3.55241C26.5574 3.53981 26.7098 3.49432 26.8483 3.42083C26.9875 3.34734 27.1112 3.25845 27.2147 3.14157C27.4231 2.91201 27.5525 2.59846 27.5427 2.25761H27.5441ZM56.4314 30.0447C56.7727 30.0405 57.0783 29.8977 57.2964 29.6597C57.5111 29.4239 57.6517 29.0942 57.6279 28.7373C57.5733 28.0206 56.9769 27.4985 56.2979 27.5706C55.6196 27.644 55.1077 28.2292 55.156 28.8752C55.1784 29.1999 55.314 29.4904 55.5462 29.7031C55.7748 29.9138 56.0888 30.0475 56.43 30.0447H56.4314Z" fill="#F8A207"/>
</g>
<path d="M28.3126 54.581C14.9874 54.581 4.14526 43.7306 4.14526 30.392C4.14526 17.0535 14.9874 6.20312 28.3126 6.20312C41.6378 6.20312 52.4799 17.0535 52.4799 30.392C52.4799 43.7306 41.6392 54.581 28.3126 54.581ZM28.3126 6.55167C15.1776 6.55167 4.4928 17.2467 4.4928 30.3934C4.4928 43.5402 15.1776 54.2352 28.3126 54.2352C41.4476 54.2352 52.1331 43.5402 52.1331 30.3934C52.1331 17.2467 41.4476 6.55027 28.3126 6.55027V6.55167Z" fill="#F8A207"/>
<path d="M40.5435 34.8983C40.3822 36.4552 40.0351 38.1763 38.7576 39.0807C37.7682 39.7821 36.4677 39.808 35.2536 39.8066C32.6871 39.8052 30.1192 39.8023 27.5527 39.8008C25.0842 39.7979 22.6156 39.7965 20.1471 39.7936C19.1159 39.7922 18.1135 39.8728 17.1558 39.4264C16.3334 39.0433 15.6896 38.3145 15.3022 37.5037C14.765 36.376 14.6527 35.0985 14.5879 33.8513C14.4683 31.5801 14.4813 29.3031 14.6239 27.0333C14.729 25.377 14.9954 23.5465 16.2758 22.4909C17.4107 21.5562 19.0122 21.5101 20.4841 21.5086C25.1562 21.5043 29.8297 21.5 34.5032 21.4971C35.1023 21.4956 35.7274 21.5072 36.3381 21.5734C37.5392 21.703 38.6842 22.0472 39.4561 22.9373C40.2353 23.8346 40.4355 25.0832 40.5536 26.2657C40.8416 29.1346 40.8387 32.0308 40.5435 34.8983ZM24.8509 26.63V34.6736L31.8158 30.6526L24.8509 26.63Z" fill="#F8A207"/>
</svg>
